<svg width="91" height="92" viewBox="0 0 91 92" fill="none" xmlns="http://www.w3.org/2000/svg">
<g filter="url(#filter0_d_262_6)">
<circle cx="45.5328" cy="42.3834" r="41.4196" fill="white" />
<circle cx="45.5328" cy="42.3834" r="40.4196" stroke="#21CE99" stroke-width="2"/>
</g>
<g clip-path="url(#clip0_262_6)">
<path d="M34.0745 56.0501C30.9148 56.0501 28.2148 54.9563 25.9745 52.7688C23.7343 50.5813 22.6148 47.9077 22.6162 44.748C22.6162 42.0396 23.4322 39.6265 25.0641 37.5084C26.6961 35.3903 28.8315 34.0362 31.4704 33.4459C32.3384 30.2515 34.0745 27.6647 36.6787 25.6855C39.2829 23.7063 42.2343 22.7167 45.5329 22.7167C49.5954 22.7167 53.0419 24.132 55.8725 26.9626C58.703 29.7931 60.1176 33.239 60.1162 37.3001C62.5121 37.5778 64.5002 38.6112 66.0808 40.4001C67.6614 42.1889 68.4509 44.2806 68.4496 46.6751C68.4496 49.2792 67.5377 51.4931 65.7141 53.3167C63.8905 55.1403 61.6773 56.0514 59.0746 56.0501H34.0745Z" fill="#21CE99"/>
<path d="M69.262 52.8061H66.2831V50.5468C66.2831 50.4118 66.2789 50.2794 66.2705 50.1497C67.6566 48.8429 67.7822 47.1202 67.7831 45.3216C67.7831 44.918 67.4719 44.5716 67.0683 44.5524C66.9671 44.5476 66.866 44.5635 66.771 44.5989C66.6761 44.6343 66.5893 44.6886 66.5159 44.7584C66.4426 44.8283 66.3841 44.9123 66.3441 45.0054C66.3041 45.0985 66.2833 45.1987 66.2831 45.3C66.2831 46.6125 66.1959 47.5571 65.8191 48.2925C64.9181 46.3636 62.7356 45.2968 59.5331 45.2968C57.6675 45.2968 56.0555 45.7247 54.8724 46.5338C54.1739 47.0115 53.6442 47.6077 53.2927 48.3019C52.8769 47.5805 52.7831 46.6594 52.7831 45.3216C52.7831 44.918 52.4738 44.5716 52.0706 44.551C51.9691 44.5459 51.8676 44.5615 51.7723 44.5969C51.677 44.6322 51.5899 44.6866 51.5162 44.7566C51.4426 44.8267 51.3839 44.911 51.3439 45.0044C51.3038 45.0978 51.2831 45.1984 51.2831 45.3C51.2831 47.064 51.4055 48.7561 52.8038 50.064C52.7903 50.2221 52.7834 50.383 52.7831 50.5468V52.8061H49.8042C49.4006 52.8061 49.0542 53.1165 49.0341 53.52C49.0292 53.6215 49.045 53.723 49.0805 53.8182C49.116 53.9134 49.1704 54.0004 49.2406 54.0739C49.3107 54.1474 49.395 54.2059 49.4885 54.2458C49.5819 54.2857 49.6825 54.3063 49.7841 54.3061H52.7841V55.05C52.7834 55.9124 52.9487 56.7669 53.2711 57.5668C52.0678 58.6426 51.2916 59.8313 51.2831 61.7691C51.2831 62.1788 51.5934 62.5332 52.0031 62.5496C52.1041 62.5536 52.2048 62.5372 52.2993 62.5014C52.3937 62.4655 52.48 62.411 52.5528 62.341C52.6256 62.271 52.6836 62.187 52.7232 62.094C52.7628 62.0011 52.7832 61.9011 52.7831 61.8001C52.7831 60.5035 53.2097 59.7043 54.0099 58.9257C54.9326 60.2391 56.2921 61.1818 57.8456 61.5854C57.9565 61.614 58.0724 61.6168 58.1845 61.5938C58.2966 61.5707 58.4019 61.5222 58.4924 61.4521C58.5829 61.382 58.6561 61.2922 58.7065 61.1894C58.7569 61.0867 58.7831 60.9737 58.7831 60.8593V49.0711C58.7831 48.6675 59.0934 48.3211 59.497 48.301C59.5984 48.2961 59.6998 48.3119 59.7949 48.3473C59.8901 48.3827 59.977 48.4371 60.0505 48.5072C60.124 48.5772 60.1825 48.6614 60.2225 48.7547C60.2625 48.8481 60.2831 48.9485 60.2831 49.05V60.8593C60.2831 60.9737 60.3094 61.0867 60.3598 61.1894C60.4102 61.2922 60.4834 61.382 60.5739 61.4521C60.6644 61.5222 60.7697 61.5707 60.8818 61.5938C60.9939 61.6168 61.1098 61.614 61.2206 61.5854C62.774 61.1815 64.1333 60.2389 65.0559 58.9257C65.8528 59.701 66.2789 60.4969 66.2827 61.7827C66.281 61.9766 66.3532 62.1639 66.4847 62.3065C66.6162 62.449 66.797 62.5361 66.9905 62.5501C67.0925 62.5559 67.1946 62.5408 67.2906 62.5057C67.3866 62.4706 67.4744 62.4163 67.5486 62.3461C67.6228 62.2758 67.6819 62.1912 67.7223 62.0973C67.7626 62.0034 67.7833 61.9022 67.7831 61.8001C67.7831 59.8463 67.005 58.6486 65.7961 57.5668C66.1185 56.7669 66.2838 55.9124 66.2831 55.05V54.3061H69.2831C69.3847 54.3063 69.4853 54.2857 69.5787 54.2458C69.6722 54.2059 69.7565 54.1474 69.8266 54.0739C69.8968 54.0004 69.9513 53.9134 69.9867 53.8182C70.0222 53.723 70.038 53.6215 70.0331 53.52C70.0134 53.1165 69.6656 52.8061 69.262 52.8061Z" fill="#263238"/>
<path d="M62.5987 44.925L62.6137 44.9293C63.2498 45.1074 63.7889 44.4347 63.4668 43.8582C63.0776 43.1589 62.5088 42.5763 61.819 42.1705C61.1293 41.7648 60.3437 41.5505 59.5434 41.55H59.5237C58.7154 41.5506 57.9222 41.7692 57.2276 42.1827C56.5331 42.5963 55.963 43.1895 55.5773 43.8999C55.2567 44.4896 55.8182 45.1655 56.4604 44.9715C57.3843 44.6902 58.4193 44.5468 59.5335 44.5468C60.6628 44.5468 61.694 44.6743 62.5987 44.925Z" fill="#263238"/>
</g>
<defs>
<filter id="filter0_d_262_6" x="0.113281" y="0.963867" width="90.8391" height="90.8391" filterUnits="userSpaceOnUse" color-interpolation-filters="sRGB">
<feFlood flood-opacity="0" result="BackgroundImageFix"/>
<feColorMatrix in="SourceAlpha" type="matrix" values="0 0 0 0 0 0 0 0 0 0 0 0 0 0 0 0 0 0 127 0" result="hardAlpha"/>
<feOffset dy="4"/>
<feGaussianBlur stdDeviation="2"/>
<feComposite in2="hardAlpha" operator="out"/>
<feColorMatrix type="matrix" values="0 0 0 0 0 0 0 0 0 0 0 0 0 0 0 0 0 0 0.25 0"/>
<feBlend mode="normal" in2="BackgroundImageFix" result="effect1_dropShadow_262_6"/>
<feBlend mode="normal" in="SourceGraphic" in2="effect1_dropShadow_262_6" result="shape"/>
</filter>
<clipPath id="clip0_262_6">
<rect width="50" height="50" fill="white" transform="translate(20.5332 17.3834)"/>
</clipPath>
</defs>
</svg>
