<svg width="76" height="65" viewBox="0 0 76 65" fill="none" xmlns="http://www.w3.org/2000/svg">
<g clip-path="url(#clip0_619_1311)">
<path d="M70.022 3.57361H1.53125V62.3994H70.022V3.57361Z" fill="#B4FFC9"/>
<g filter="url(#filter0_d_619_1311)">
<path d="M75.6692 2.59999H5.17285V58.2935H75.6692V2.59999Z" fill="white" stroke="#078449" stroke-miterlimit="10"/>
</g>
<g clip-path="url(#clip1_619_1311)">
<path d="M55.6991 22.0065C54.9672 18.3182 52.9703 14.997 50.0493 12.6102C47.1284 10.2234 43.4647 8.91898 39.6841 8.91983C33.387 8.91983 27.9179 12.4732 25.1943 17.6732C21.9918 18.0173 19.0302 19.5261 16.8785 21.9097C14.7267 24.2933 13.5367 27.3835 13.5371 30.5865C13.5371 37.7582 19.3984 43.5865 26.6106 43.5865H54.9365C60.9503 43.5865 65.8311 38.7332 65.8311 32.7532C65.8311 27.0332 61.3643 22.3965 55.6991 22.0065Z" fill="#C4FFE4"/>
<path d="M55.1757 24.6065C54.4438 20.9182 52.4468 17.597 49.5259 15.2102C46.605 12.8234 42.9413 11.519 39.1607 11.5198C32.8636 11.5198 27.3945 15.0732 24.6709 20.2732C21.4684 20.6173 18.5067 22.1261 16.355 24.5097C14.2033 26.8933 13.0133 29.9835 13.0137 33.1865C13.0137 40.3582 18.875 46.1865 26.0872 46.1865H54.4131C60.4269 46.1865 65.3076 41.3332 65.3076 35.3532C65.3076 29.6332 60.8409 24.9965 55.1757 24.6065Z" fill="#1DBF73"/>
<path d="M46.9773 32.3505C46.5958 32.3471 46.2155 32.3088 45.8412 32.2361C45.4812 32.1609 45.1296 32.0508 44.7914 31.9072L44.5469 31.85H44.3743C44.2305 31.85 44.1586 31.9501 44.1586 32.1503V32.6222C44.1382 32.7116 44.1382 32.8045 44.1586 32.8939C44.2308 33.0115 44.3357 33.1059 44.4606 33.1656C44.8065 33.3377 45.1741 33.4627 45.5535 33.5374C46.0247 33.6494 46.5072 33.707 46.9916 33.709C47.4789 33.7235 47.9652 33.6558 48.4297 33.5088C48.8135 33.4087 49.1714 33.2283 49.4795 32.9797C49.7707 32.7559 50.0109 32.4732 50.1842 32.1503C50.3491 31.8015 50.4326 31.4202 50.4287 31.0349C50.4338 30.5568 50.2824 30.09 49.9972 29.705C49.6138 29.2717 49.1154 28.9546 48.5591 28.7898L47.193 28.3608C46.8112 28.2626 46.4539 28.0873 46.1432 27.846C46.0521 27.7591 45.9796 27.6547 45.9302 27.5392C45.8807 27.4237 45.8554 27.2994 45.8555 27.1739C45.8453 27.0042 45.8813 26.8349 45.9597 26.6839C46.0382 26.5329 46.1562 26.4057 46.3014 26.3159C46.6993 26.1239 47.1396 26.0354 47.5812 26.0585C48.2105 26.0433 48.835 26.1704 49.4076 26.4303C49.5247 26.4896 49.6512 26.5283 49.7815 26.5447C49.9253 26.5447 49.9972 26.4303 49.9972 26.2301V25.7153C50.0015 25.6041 49.9714 25.4943 49.9109 25.4007C49.8341 25.3034 49.7357 25.225 49.6233 25.1719C49.4951 25.1017 49.3602 25.0442 49.2207 25.0003C49.0417 24.9375 48.8592 24.885 48.6742 24.843L48.0414 24.7C47.8069 24.6831 47.5714 24.6831 47.3368 24.7C46.9332 24.6931 46.5309 24.7461 46.1432 24.8573C45.7801 24.9627 45.4391 25.1322 45.1365 25.3578C44.8558 25.5615 44.6248 25.8254 44.4606 26.13C44.2842 26.4547 44.195 26.8192 44.2017 27.1882C44.1931 27.7044 44.3604 28.2084 44.6763 28.6182C45.0712 29.0912 45.6037 29.4309 46.2007 29.5906L47.6388 30.0196C47.9946 30.1023 48.3251 30.269 48.6023 30.5058C48.7745 30.687 48.8675 30.9286 48.8611 31.1779C48.8642 31.3588 48.8194 31.5373 48.731 31.6955C48.6426 31.8536 48.5139 31.9858 48.3578 32.0788C47.931 32.2923 47.4537 32.3862 46.9773 32.3505ZM38.622 25.415C38.5998 25.2748 38.5345 25.1449 38.435 25.0432C38.3275 24.9643 38.194 24.9286 38.0611 24.9431H37.2702C37.138 24.9358 37.0069 24.9709 36.8963 25.0432C36.7914 25.141 36.7251 25.2729 36.7093 25.415L35.2712 31.707L33.6318 25.415C33.6057 25.2731 33.5352 25.143 33.4305 25.0432C33.4305 25.0432 33.2435 24.9431 33.0566 24.9431H32.1218C31.9636 24.9431 31.8917 25.0289 31.8917 25.1862C31.9057 25.3177 31.9346 25.4473 31.978 25.5723L34.2214 32.9225C34.2506 33.0532 34.3096 33.1756 34.394 33.28C34.5071 33.3455 34.6374 33.3754 34.7679 33.3658H35.5876C35.7226 33.3749 35.8574 33.3451 35.9759 33.28C36.0666 33.1686 36.1261 33.0354 36.1485 32.8939L37.5866 26.7735L39.0246 32.9082C39.0366 33.0484 39.0977 33.18 39.1972 33.28C39.3104 33.3586 39.4482 33.3941 39.5855 33.3801H40.4052C40.5328 33.3863 40.659 33.3512 40.7647 33.28C40.8729 33.1828 40.944 33.0515 40.9661 32.9082L43.2814 25.558C43.2898 25.482 43.2898 25.4052 43.2814 25.3292C43.287 25.2769 43.287 25.2242 43.2814 25.1719C43.2862 25.1389 43.2832 25.1052 43.2726 25.0735C43.262 25.0418 43.2442 25.013 43.2204 24.9894C43.1967 24.9658 43.1677 24.948 43.1359 24.9375C43.104 24.927 43.0701 24.924 43.0369 24.9288H42.1453C42.0133 24.9234 41.8828 24.9584 41.7714 25.0289C41.6828 25.138 41.6191 25.2648 41.5844 25.4007L40.1463 31.85L38.622 25.415ZM28.3109 28.4609C27.9723 28.4167 27.6313 28.3928 27.2899 28.3894C26.4435 28.3452 25.61 28.6096 24.9458 29.133C24.6629 29.3739 24.4384 29.6752 24.289 30.0144C24.1396 30.3536 24.0692 30.722 24.0829 31.0921C24.0662 31.4291 24.1202 31.7659 24.2415 32.081C24.3629 32.3962 24.5488 32.6827 24.7876 32.9225C25.0442 33.158 25.3457 33.34 25.6742 33.4579C26.0026 33.5758 26.3515 33.6271 26.7003 33.6089C27.2492 33.6246 27.7943 33.514 28.2932 33.2858C28.7921 33.0576 29.2312 32.718 29.5764 32.2933C29.6605 32.485 29.7565 32.6712 29.864 32.851C29.9664 33.0081 30.0819 33.1564 30.2092 33.2943C30.244 33.3293 30.2854 33.3571 30.3311 33.3761C30.3767 33.3951 30.4257 33.4048 30.4752 33.4048C30.5247 33.4048 30.5737 33.3951 30.6194 33.3761C30.6651 33.3571 30.7065 33.3293 30.7413 33.2943L31.3453 32.8939C31.3957 32.8628 31.4386 32.8211 31.4709 32.7717C31.5032 32.7222 31.5242 32.6663 31.5322 32.6079C31.5555 32.5334 31.5555 32.4536 31.5322 32.3791C31.4157 32.1624 31.3148 31.9378 31.2302 31.707C31.1532 31.4277 31.1192 31.1384 31.1296 30.849V27.8317C31.1639 27.4079 31.1115 26.9816 30.9756 26.5785C30.8397 26.1755 30.623 25.804 30.3386 25.4865C29.9731 25.1809 29.5483 24.9534 29.0906 24.8181C28.6329 24.6828 28.1521 24.6426 27.6782 24.7C27.1927 24.6998 26.7093 24.7623 26.2401 24.8859C25.8222 24.9825 25.4169 25.1264 25.0321 25.3149C24.9306 25.3595 24.8417 25.4282 24.7732 25.5151C24.7381 25.6219 24.7381 25.7371 24.7732 25.844V26.3159C24.7732 26.5161 24.7732 26.6019 24.9746 26.6019C25.0267 26.6131 25.0806 26.6131 25.1327 26.6019L25.4635 26.4875C25.7556 26.3449 26.0585 26.2254 26.3695 26.13C26.7081 26.0456 27.0558 26.0024 27.4049 26.0013C27.9608 25.9434 28.5176 26.1023 28.958 26.4446C29.3005 26.8723 29.4606 27.4166 29.4039 27.9604V28.6611L28.3109 28.4609ZM29.4326 29.7479V30.134C29.4337 30.4135 29.3999 30.6921 29.3319 30.9634C29.2713 31.1911 29.158 31.4017 29.0012 31.5783C28.7614 31.8586 28.4476 32.0666 28.0952 32.1789C27.7809 32.2888 27.4505 32.3468 27.1173 32.3505C26.9349 32.364 26.7516 32.3405 26.5786 32.2815C26.4055 32.2225 26.2464 32.1292 26.1106 32.0073C25.9847 31.8716 25.8888 31.7111 25.8294 31.5362C25.7699 31.3612 25.7482 31.1758 25.7655 30.992C25.7536 30.7866 25.7904 30.5812 25.8728 30.3925C25.9552 30.2037 26.081 30.0368 26.2401 29.9052C26.6592 29.613 27.1681 29.4764 27.6782 29.5191H28.5698C28.8614 29.5796 29.1494 29.656 29.4326 29.7479ZM48.4297 37.57C44.9918 39.0083 41.3019 39.7567 37.5722 39.7722C32.5799 39.7731 27.6734 38.4819 23.3351 36.0256C22.99 35.8111 22.7168 36.1686 23.0188 36.4403C26.9236 39.9504 32.0063 41.8833 37.2702 41.86C41.4213 41.8702 45.4796 40.6396 48.9187 38.3279C49.4076 37.8846 48.9618 37.2983 48.4297 37.57Z" fill="white"/>
<path d="M46.4446 36.2258C46.1714 36.426 46.2145 36.6977 46.5165 36.6548C47.5376 36.5261 49.7953 36.2687 50.198 36.7835C50.6007 37.2983 49.7522 39.4004 49.3639 40.3442C49.2489 40.6302 49.5077 40.7446 49.7666 40.5301C50.4214 39.9307 50.9233 39.1849 51.2309 38.3543C51.5385 37.5238 51.6429 36.6325 51.5354 35.7539C50.7091 35.4303 49.8177 35.3044 48.9334 35.3864C48.0491 35.4684 47.1966 35.7559 46.4446 36.2258Z" fill="#078449"/>
</g>
<g clip-path="url(#clip2_619_1311)">
<path d="M59.8429 33.9665L52.7832 37.0865V41.7665C52.7832 46.0955 55.7953 50.1437 59.8429 51.1265C63.8904 50.1437 66.9026 46.0955 66.9026 41.7665V37.0865L59.8429 33.9665ZM59.8429 38.6465C60.9411 38.6465 62.0392 39.5045 62.0392 40.5965V41.7665C62.5099 41.7665 62.9805 42.2345 62.9805 42.7805V45.5105C62.9805 45.9785 62.5099 46.4465 61.9608 46.4465H57.6465C57.1759 46.4465 56.7053 45.9785 56.7053 45.4325V42.7025C56.7053 42.2345 57.1759 41.7665 57.6465 41.7665V40.5965C57.6465 39.5045 58.7447 38.6465 59.8429 38.6465ZM59.8429 39.5825C59.2154 39.5825 58.6663 39.9725 58.6663 40.5965V41.7665H61.0195V40.5965C61.0195 39.9725 60.4704 39.5825 59.8429 39.5825Z" fill="#078449"/>
</g>
<path d="M10.1621 11.2365H17.2003" stroke="#078449" stroke-miterlimit="10" stroke-linecap="round" stroke-linejoin="round"/>
<path d="M10.1621 12.0398H17.2003" stroke="#078449" stroke-miterlimit="10" stroke-linecap="round" stroke-linejoin="round"/>
<path d="M16.6331 7.47971C16.1354 6.79451 15.543 6.36921 14.7373 6.10931C13.9315 5.84941 13.1969 5.84941 12.3912 6.10931C11.5855 6.36921 10.993 6.81814 10.4954 7.47971C9.99772 8.16491 9.76074 8.87374 9.76074 9.7007H13.5524H17.344C17.3677 8.87374 17.1307 8.16491 16.6331 7.47971Z" fill="#92E3A9"/>
<path d="M13.5771 9.7007L16.6342 7.47971C17.1318 8.16491 17.3688 8.87373 17.3688 9.7007H13.5771Z" stroke="white" stroke-width="0.5" stroke-miterlimit="10" stroke-linecap="round" stroke-linejoin="round"/>
<path d="M13.5771 9.7007L14.7383 6.10931C15.5441 6.36922 16.1365 6.81814 16.6342 7.47971L13.5771 9.7007Z" stroke="white" stroke-width="0.5" stroke-miterlimit="10" stroke-linecap="round" stroke-linejoin="round"/>
<path d="M13.5753 9.7007L12.4141 6.10931C13.2198 5.84941 13.9544 5.84941 14.7601 6.10931L13.5753 9.7007Z" stroke="white" stroke-width="0.5" stroke-miterlimit="10" stroke-linecap="round" stroke-linejoin="round"/>
<path d="M13.5746 9.7007L10.5176 7.47971C11.0152 6.79451 11.6077 6.36922 12.4134 6.10931L13.5746 9.7007Z" stroke="white" stroke-width="0.5" stroke-miterlimit="10" stroke-linecap="round" stroke-linejoin="round"/>
<path d="M13.5758 9.7007H9.78418C9.78418 8.87373 10.0212 8.16491 10.5188 7.47971L13.5758 9.7007Z" stroke="white" stroke-width="0.5" stroke-miterlimit="10" stroke-linecap="round" stroke-linejoin="round"/>
<path d="M14.0265 9.7007C14.0265 9.44079 13.8132 9.25177 13.5762 9.25177C13.3156 9.25177 13.126 9.46442 13.126 9.7007C13.126 9.9606 13.3393 10.1496 13.5762 10.1496C13.8369 10.1496 14.0265 9.9606 14.0265 9.7007Z" fill="#078449"/>
<path d="M13.5771 9.7007L15.1412 7.43245" stroke="#078449" stroke-miterlimit="10" stroke-linecap="round" stroke-linejoin="round"/>
<path d="M65.0439 10.4332H72.0822" stroke="#078449" stroke-miterlimit="10" stroke-linecap="round" stroke-linejoin="round"/>
<path d="M65.0439 11.2365H72.0822" stroke="#078449" stroke-miterlimit="10" stroke-linecap="round" stroke-linejoin="round"/>
<path d="M71.5149 6.67638C71.0173 5.99118 70.4248 5.56588 69.6191 5.30598C68.8134 5.04608 68.0788 5.04608 67.273 5.30598C66.4673 5.56588 65.8749 6.01481 65.3772 6.67638C64.8796 7.36158 64.6426 8.07041 64.6426 8.89737H68.4342H72.2259C72.2496 8.07041 72.0126 7.36158 71.5149 6.67638Z" fill="#92E3A9"/>
<path d="M68.459 8.89737L71.516 6.67638C72.0136 7.36158 72.2506 8.0704 72.2506 8.89737H68.459Z" stroke="white" stroke-width="0.5" stroke-miterlimit="10" stroke-linecap="round" stroke-linejoin="round"/>
<path d="M68.459 8.89736L69.6202 5.30597C70.4259 5.56587 71.0183 6.0148 71.516 6.67637L68.459 8.89736Z" stroke="white" stroke-width="0.5" stroke-miterlimit="10" stroke-linecap="round" stroke-linejoin="round"/>
<path d="M68.4571 8.89737L67.2959 5.30598C68.1016 5.04608 68.8362 5.04608 69.642 5.30598L68.4571 8.89737Z" stroke="white" stroke-width="0.5" stroke-miterlimit="10" stroke-linecap="round" stroke-linejoin="round"/>
<path d="M68.4564 8.89736L65.3994 6.67637C65.8971 5.99117 66.4895 5.56587 67.2952 5.30597L68.4564 8.89736Z" stroke="white" stroke-width="0.5" stroke-miterlimit="10" stroke-linecap="round" stroke-linejoin="round"/>
<path d="M68.4577 8.89737H64.666C64.666 8.0704 64.903 7.36158 65.4006 6.67638L68.4577 8.89737Z" stroke="white" stroke-width="0.5" stroke-miterlimit="10" stroke-linecap="round" stroke-linejoin="round"/>
<path d="M68.9083 8.89737C68.9083 8.63746 68.695 8.44844 68.4581 8.44844C68.1974 8.44844 68.0078 8.66109 68.0078 8.89737C68.0078 9.15727 68.2211 9.34629 68.4581 9.34629C68.7187 9.34629 68.9083 9.15727 68.9083 8.89737Z" fill="#078449"/>
<path d="M68.459 8.89737L70.023 6.62912" stroke="#078449" stroke-miterlimit="10" stroke-linecap="round" stroke-linejoin="round"/>
<path d="M10.1621 52.8365H17.2003" stroke="#078449" stroke-miterlimit="10" stroke-linecap="round" stroke-linejoin="round"/>
<path d="M10.1621 53.6398H17.2003" stroke="#078449" stroke-miterlimit="10" stroke-linecap="round" stroke-linejoin="round"/>
<path d="M16.6331 49.0797C16.1354 48.3945 15.543 47.9692 14.7373 47.7093C13.9315 47.4494 13.1969 47.4494 12.3912 47.7093C11.5855 47.9692 10.993 48.4181 10.4954 49.0797C9.99772 49.7649 9.76074 50.4737 9.76074 51.3007H13.5524H17.344C17.3677 50.4737 17.1307 49.7649 16.6331 49.0797Z" fill="#92E3A9"/>
<path d="M13.5771 51.3007L16.6342 49.0797C17.1318 49.7649 17.3688 50.4737 17.3688 51.3007H13.5771Z" stroke="white" stroke-width="0.5" stroke-miterlimit="10" stroke-linecap="round" stroke-linejoin="round"/>
<path d="M13.5771 51.3007L14.7383 47.7093C15.5441 47.9692 16.1365 48.4181 16.6342 49.0797L13.5771 51.3007Z" stroke="white" stroke-width="0.5" stroke-miterlimit="10" stroke-linecap="round" stroke-linejoin="round"/>
<path d="M13.5753 51.3007L12.4141 47.7093C13.2198 47.4494 13.9544 47.4494 14.7601 47.7093L13.5753 51.3007Z" stroke="white" stroke-width="0.5" stroke-miterlimit="10" stroke-linecap="round" stroke-linejoin="round"/>
<path d="M13.5746 51.3007L10.5176 49.0797C11.0152 48.3945 11.6077 47.9692 12.4134 47.7093L13.5746 51.3007Z" stroke="white" stroke-width="0.5" stroke-miterlimit="10" stroke-linecap="round" stroke-linejoin="round"/>
<path d="M13.5758 51.3007H9.78418C9.78418 50.4737 10.0212 49.7649 10.5188 49.0797L13.5758 51.3007Z" stroke="white" stroke-width="0.5" stroke-miterlimit="10" stroke-linecap="round" stroke-linejoin="round"/>
<path d="M14.0265 51.3007C14.0265 51.0408 13.8132 50.8518 13.5762 50.8518C13.3156 50.8518 13.126 51.0644 13.126 51.3007C13.126 51.5606 13.3393 51.7496 13.5762 51.7496C13.8369 51.7496 14.0265 51.5606 14.0265 51.3007Z" fill="#078449"/>
<path d="M13.5771 51.3007L15.1412 49.0325" stroke="#078449" stroke-miterlimit="10" stroke-linecap="round" stroke-linejoin="round"/>
<path d="M65.0439 52.0332H72.0822" stroke="#078449" stroke-miterlimit="10" stroke-linecap="round" stroke-linejoin="round"/>
<path d="M65.0439 52.8365H72.0822" stroke="#078449" stroke-miterlimit="10" stroke-linecap="round" stroke-linejoin="round"/>
<path d="M71.5149 48.2764C71.0173 47.5912 70.4248 47.1659 69.6191 46.906C68.8134 46.6461 68.0788 46.6461 67.273 46.906C66.4673 47.1659 65.8749 47.6148 65.3772 48.2764C64.8796 48.9616 64.6426 49.6704 64.6426 50.4974H68.4342H72.2259C72.2496 49.6704 72.0126 48.9616 71.5149 48.2764Z" fill="#92E3A9"/>
<path d="M68.459 50.4974L71.516 48.2764C72.0136 48.9616 72.2506 49.6704 72.2506 50.4974H68.459Z" stroke="white" stroke-width="0.5" stroke-miterlimit="10" stroke-linecap="round" stroke-linejoin="round"/>
<path d="M68.459 50.4974L69.6202 46.906C70.4259 47.1659 71.0183 47.6148 71.516 48.2764L68.459 50.4974Z" stroke="white" stroke-width="0.5" stroke-miterlimit="10" stroke-linecap="round" stroke-linejoin="round"/>
<path d="M68.4571 50.4974L67.2959 46.906C68.1016 46.6461 68.8362 46.6461 69.642 46.906L68.4571 50.4974Z" stroke="white" stroke-width="0.5" stroke-miterlimit="10" stroke-linecap="round" stroke-linejoin="round"/>
<path d="M68.4564 50.4974L65.3994 48.2764C65.8971 47.5912 66.4895 47.1659 67.2952 46.906L68.4564 50.4974Z" stroke="white" stroke-width="0.5" stroke-miterlimit="10" stroke-linecap="round" stroke-linejoin="round"/>
<path d="M68.4577 50.4974H64.666C64.666 49.6704 64.903 48.9616 65.4006 48.2764L68.4577 50.4974Z" stroke="white" stroke-width="0.5" stroke-miterlimit="10" stroke-linecap="round" stroke-linejoin="round"/>
<path d="M68.9083 50.4974C68.9083 50.2375 68.695 50.0484 68.4581 50.0484C68.1974 50.0484 68.0078 50.2611 68.0078 50.4974C68.0078 50.7573 68.2211 50.9463 68.4581 50.9463C68.7187 50.9463 68.9083 50.7573 68.9083 50.4974Z" fill="#078449"/>
<path d="M68.459 50.4974L70.023 48.2291" stroke="#078449" stroke-miterlimit="10" stroke-linecap="round" stroke-linejoin="round"/>
</g>
<defs>
<filter id="filter0_d_619_1311" x="0.672852" y="2.09999" width="79.4961" height="64.6935" filterUnits="userSpaceOnUse" color-interpolation-filters="sRGB">
<feFlood flood-opacity="0" result="BackgroundImageFix"/>
<feColorMatrix in="SourceAlpha" type="matrix" values="0 0 0 0 0 0 0 0 0 0 0 0 0 0 0 0 0 0 127 0" result="hardAlpha"/>
<feOffset dy="4"/>
<feGaussianBlur stdDeviation="2"/>
<feComposite in2="hardAlpha" operator="out"/>
<feColorMatrix type="matrix" values="0 0 0 0 0 0 0 0 0 0 0 0 0 0 0 0 0 0 0.1 0"/>
<feBlend mode="normal" in2="BackgroundImageFix" result="effect1_dropShadow_619_1311"/>
<feBlend mode="normal" in="SourceGraphic" in2="effect1_dropShadow_619_1311" result="shape"/>
</filter>
<clipPath id="clip0_619_1311">
<rect width="75" height="65" fill="white" transform="translate(0.894531)"/>
</clipPath>
<clipPath id="clip1_619_1311">
<rect width="55.9545" height="52" fill="white" transform="translate(9.55469 2.59999)"/>
</clipPath>
<clipPath id="clip2_619_1311">
<rect width="18.8258" height="18.72" fill="white" transform="translate(50.4297 33.1865)"/>
</clipPath>
</defs>
</svg>
