<svg width="172" height="172" viewBox="0 0 172 172" fill="none" xmlns="http://www.w3.org/2000/svg">
<g filter="url(#filter0_d_222_1605)">
<circle cx="86" cy="83" r="79" stroke="#1DBF73" stroke-width="2" shape-rendering="crispEdges"/>
</g>
<g clip-path="url(#clip0_222_1605)">
<g filter="url(#filter1_d_222_1605)">
<path d="M83.5371 78.1112C86.9594 81.5343 89.0621 86.0567 89.4738 90.8796C89.8855 95.7026 88.5797 100.516 85.7871 104.47L85.1996 105.261L102.77 122.836L103.083 123.199C103.541 123.819 103.761 124.583 103.704 125.352C103.646 126.121 103.314 126.844 102.769 127.389C102.224 127.934 101.501 128.266 100.732 128.323C99.9632 128.381 99.1991 128.161 98.5788 127.703L98.2163 127.39L80.4788 109.657C76.2458 112.487 71.1125 113.642 66.0754 112.899C61.0383 112.157 56.457 109.569 53.2209 105.638C49.9849 101.707 48.325 96.7137 48.5636 91.6277C48.8022 86.5418 50.9222 81.726 54.5121 78.1153C58.3612 74.2667 63.5815 72.1046 69.0246 72.1046C74.4678 72.1046 79.688 74.2625 83.5371 78.1112ZM90.7038 40.8362C93.1887 40.8373 95.5716 41.8249 97.3288 43.582L109.045 55.2903L120.745 67.007C122.5 68.7654 123.487 71.1487 123.487 73.632V114.795C123.487 117.281 122.499 119.665 120.741 121.424C118.983 123.182 116.599 124.17 114.112 124.17H107.82C107.661 122.916 107.182 121.725 106.429 120.711L105.929 120.115L103.733 117.915L114.108 117.92C114.937 117.92 115.732 117.59 116.318 117.004C116.904 116.418 117.233 115.623 117.233 114.795V74.182H99.5413C97.1664 74.1824 94.8799 73.2814 93.1436 71.6612C91.4074 70.0409 90.3507 67.8221 90.1871 65.4529L90.1663 64.8112V47.0862H66.2079C65.3791 47.0862 64.5843 47.4154 63.9982 48.0015C63.4122 48.5875 63.0829 49.3824 63.0829 50.2112V68.632C60.8971 69.1505 58.7928 69.9664 56.8288 71.057L56.8329 50.2112C56.8329 47.7248 57.8207 45.3402 59.5788 43.5821C61.337 41.8239 63.7215 40.8362 66.2079 40.8362H90.7038ZM59.0663 82.6695C57.7263 83.97 56.6583 85.524 55.9245 87.241C55.1907 88.9581 54.8056 90.8039 54.7917 92.6712C54.7779 94.5384 55.1355 96.3898 55.8438 98.1175C56.552 99.8453 57.5968 101.415 58.9173 102.735C60.2378 104.055 61.8077 105.1 63.5356 105.808C65.2635 106.516 67.1149 106.873 68.9822 106.859C70.8494 106.844 72.6952 106.459 74.4121 105.725C76.129 104.991 77.6827 103.922 78.9829 102.582C81.6058 99.9371 83.074 96.3608 83.0662 92.6359C83.0585 88.911 81.5753 85.3408 78.9414 82.7069C76.3074 80.073 72.7373 78.5898 69.0124 78.5821C65.2875 78.5743 61.7112 80.0425 59.0663 82.6653V82.6695ZM96.4163 51.5028V64.8112C96.4163 66.3945 97.5913 67.6987 99.1163 67.907L99.5413 67.9362L112.837 67.932L96.4163 51.5028Z" fill="#21CE99"/>
</g>
</g>
<defs>
<filter id="filter0_d_222_1605" x="0" y="0" width="172" height="172" filterUnits="userSpaceOnUse" color-interpolation-filters="sRGB">
<feFlood flood-opacity="0" result="BackgroundImageFix"/>
<feColorMatrix in="SourceAlpha" type="matrix" values="0 0 0 0 0 0 0 0 0 0 0 0 0 0 0 0 0 0 127 0" result="hardAlpha"/>
<feMorphology radius="2" operator="dilate" in="SourceAlpha" result="effect1_dropShadow_222_1605"/>
<feOffset dy="3"/>
<feGaussianBlur stdDeviation="2"/>
<feComposite in2="hardAlpha" operator="out"/>
<feColorMatrix type="matrix" values="0 0 0 0 0 0 0 0 0 0 0 0 0 0 0 0 0 0 0.14 0"/>
<feBlend mode="normal" in2="BackgroundImageFix" result="effect1_dropShadow_222_1605"/>
<feBlend mode="normal" in="SourceGraphic" in2="effect1_dropShadow_222_1605" result="shape"/>
</filter>
<filter id="filter1_d_222_1605" x="44.541" y="40.8362" width="82.946" height="95.4963" filterUnits="userSpaceOnUse" color-interpolation-filters="sRGB">
<feFlood flood-opacity="0" result="BackgroundImageFix"/>
<feColorMatrix in="SourceAlpha" type="matrix" values="0 0 0 0 0 0 0 0 0 0 0 0 0 0 0 0 0 0 127 0" result="hardAlpha"/>
<feOffset dy="4"/>
<feGaussianBlur stdDeviation="2"/>
<feComposite in2="hardAlpha" operator="out"/>
<feColorMatrix type="matrix" values="0 0 0 0 0 0 0 0 0 0 0 0 0 0 0 0 0 0 0.15 0"/>
<feBlend mode="normal" in2="BackgroundImageFix" result="effect1_dropShadow_222_1605"/>
<feBlend mode="normal" in="SourceGraphic" in2="effect1_dropShadow_222_1605" result="shape"/>
</filter>
<clipPath id="clip0_222_1605">
<rect width="100" height="100" fill="white" transform="translate(36 32.5029)"/>
</clipPath>
</defs>
</svg>
