<svg width="54" height="32" viewBox="0 0 54 32" fill="none" xmlns="http://www.w3.org/2000/svg">
<path d="M37.7491 9.52095H34.4863V12.7925H37.7491V9.52095Z" fill="#078449"/>
<path d="M39.7891 11.1567H53.1574" stroke="#078449" stroke-miterlimit="10" stroke-linejoin="round"/>
<path d="M37.7491 15.4733H34.4863V18.7448H37.7491V15.4733Z" fill="#92E3A9"/>
<path d="M39.7891 17.109H53.1574" stroke="#078449" stroke-miterlimit="10" stroke-linejoin="round"/>
<path d="M37.7491 21.4256H34.4863V24.6971H37.7491V21.4256Z" fill="#7D7D7D"/>
<path d="M39.7891 23.0614H53.1574" stroke="#078449" stroke-miterlimit="10" stroke-linejoin="round"/>
<path d="M20.7109 26.8781C24.9254 25.1061 27.8709 20.9258 27.8709 16.064C27.8709 13.2468 26.874 10.7023 25.2426 8.70308" stroke="#92E3A9" stroke-width="7" stroke-miterlimit="10" stroke-linejoin="round"/>
<path d="M6.34375 22.5161C8.4283 25.6967 12.0536 27.8323 16.1321 27.8323C17.7635 27.8323 19.3042 27.5142 20.6637 26.9236" stroke="#7D7D7D" stroke-width="7" stroke-miterlimit="10" stroke-linejoin="round"/>
<path d="M25.2416 8.70307C23.1118 6.06769 19.8037 4.34106 16.133 4.34106C9.65279 4.34106 4.44141 9.61183 4.44141 16.064C4.44141 18.4267 5.12115 20.6532 6.3447 22.4707" stroke="#078449" stroke-width="7" stroke-miterlimit="10" stroke-linejoin="round"/>
<path d="M11.1934 14.7917H21.4349" stroke="#078449" stroke-miterlimit="10" stroke-linejoin="round"/>
<path d="M11.1934 17.836H21.4349" stroke="#078449" stroke-miterlimit="10" stroke-linejoin="round"/>
</svg>
