<svg width="97" height="15" viewBox="0 0 97 15" fill="none" xmlns="http://www.w3.org/2000/svg">
<path d="M8.18653 10.6827C7.76653 10.944 7.27653 11.1587 6.71653 11.3267C6.15653 11.4947 5.53586 11.5787 4.85453 11.5787C4.0332 11.5787 3.31453 11.4434 2.69853 11.1727C2.09186 10.902 1.58786 10.538 1.18653 10.0807C0.785198 9.61402 0.486531 9.07269 0.290531 8.45669C0.0945313 7.84069 -0.00346873 7.18736 -0.00346873 6.49669C-0.00346873 5.80602 0.0945313 5.15269 0.290531 4.53669C0.486531 3.91136 0.785198 3.37002 1.18653 2.91269C1.58786 2.44602 2.09186 2.07736 2.69853 1.80669C3.31453 1.53602 4.0332 1.40069 4.85453 1.40069C5.53586 1.40069 6.15653 1.48469 6.71653 1.65269C7.27653 1.82069 7.76653 2.03536 8.18653 2.29669L7.48653 3.78069C7.04786 3.54736 6.60453 3.37936 6.15653 3.27669C5.70853 3.17402 5.31187 3.12269 4.96653 3.12269C4.49053 3.12269 4.07053 3.21136 3.70653 3.38869C3.34253 3.55669 3.0392 3.79469 2.79653 4.10269C2.55386 4.40136 2.37186 4.75602 2.25053 5.16669C2.1292 5.57736 2.06853 6.02069 2.06853 6.49669C2.06853 6.97269 2.1292 7.41602 2.25053 7.82669C2.37186 8.22802 2.55386 8.58269 2.79653 8.89069C3.0392 9.18936 3.34253 9.42736 3.70653 9.60469C4.07053 9.77269 4.49053 9.85669 4.96653 9.85669C5.31187 9.85669 5.70853 9.80536 6.15653 9.70269C6.60453 9.60002 7.04786 9.43202 7.48653 9.19869L8.18653 10.6827ZM12.6723 10.0247C13.2603 10.0247 13.685 9.81936 13.9463 9.40869C14.217 8.99802 14.3523 8.45669 14.3523 7.78469C14.3523 7.11269 14.217 6.57136 13.9463 6.16069C13.685 5.74069 13.2603 5.53069 12.6723 5.53069C12.0843 5.53069 11.655 5.74069 11.3843 6.16069C11.1137 6.57136 10.9783 7.11269 10.9783 7.78469C10.9783 8.45669 11.1137 8.99802 11.3843 9.40869C11.655 9.81936 12.0843 10.0247 12.6723 10.0247ZM15.3743 10.5147C15.0663 10.8507 14.6837 11.112 14.2263 11.2987C13.769 11.4854 13.251 11.5787 12.6723 11.5787C12.0937 11.5787 11.5757 11.4854 11.1183 11.2987C10.661 11.112 10.2737 10.8507 9.95633 10.5147C9.63899 10.1787 9.39633 9.78202 9.22833 9.32469C9.06966 8.85802 8.99033 8.34469 8.99033 7.78469C8.99033 7.22469 9.06966 6.71136 9.22833 6.24469C9.39633 5.77802 9.63899 5.37669 9.95633 5.04069C10.2737 4.70469 10.661 4.44336 11.1183 4.25669C11.5757 4.07002 12.0937 3.97669 12.6723 3.97669C13.251 3.97669 13.769 4.07002 14.2263 4.25669C14.6837 4.44336 15.0663 4.70469 15.3743 5.04069C15.6917 5.37669 15.9297 5.77802 16.0883 6.24469C16.2563 6.71136 16.3403 7.22469 16.3403 7.78469C16.3403 8.34469 16.2563 8.85802 16.0883 9.32469C15.9297 9.78202 15.6917 10.1787 15.3743 10.5147ZM22.3278 6.10469C21.9358 5.89002 21.5765 5.73602 21.2498 5.64269C20.9232 5.54936 20.6198 5.50269 20.3398 5.50269C20.0692 5.50269 19.8358 5.55402 19.6398 5.65669C19.4438 5.75002 19.3458 5.89936 19.3458 6.10469C19.3458 6.32869 19.4718 6.51069 19.7238 6.65069C19.9852 6.78136 20.2978 6.90736 20.6618 7.02869C20.9232 7.11269 21.1985 7.21069 21.4878 7.32269C21.7772 7.43469 22.0385 7.57936 22.2718 7.75669C22.5145 7.93402 22.7105 8.15336 22.8598 8.41469C23.0185 8.67602 23.0978 9.00269 23.0978 9.39469C23.0978 9.80536 23.0138 10.1507 22.8458 10.4307C22.6872 10.7014 22.4678 10.9254 22.1878 11.1027C21.9172 11.2707 21.5998 11.392 21.2358 11.4667C20.8812 11.5414 20.5125 11.5787 20.1298 11.5787C19.1032 11.5787 18.1558 11.336 17.2878 10.8507L17.8478 9.46469C18.2118 9.65136 18.5805 9.79602 18.9538 9.89869C19.3272 10.0014 19.6865 10.0527 20.0318 10.0527C20.3118 10.0527 20.5638 10.0107 20.7878 9.92669C21.0212 9.83336 21.1378 9.67469 21.1378 9.45069C21.1378 9.22669 21.0118 9.04936 20.7598 8.91869C20.5172 8.77869 20.2092 8.64336 19.8358 8.51269C19.5745 8.42869 19.2992 8.33069 19.0098 8.21869C18.7298 8.10669 18.4685 7.96202 18.2258 7.78469C17.9832 7.59802 17.7825 7.37869 17.6238 7.12669C17.4652 6.86536 17.3858 6.54336 17.3858 6.16069C17.3858 5.79669 17.4605 5.47936 17.6098 5.20869C17.7685 4.92869 17.9738 4.70002 18.2258 4.52269C18.4872 4.33602 18.7858 4.20069 19.1218 4.11669C19.4578 4.02336 19.8078 3.97669 20.1718 3.97669C20.6198 3.97669 21.0818 4.04202 21.5578 4.17269C22.0432 4.29402 22.4818 4.47602 22.8738 4.71869L22.3278 6.10469ZM29.1251 11.2287C28.5931 11.462 28.0517 11.5787 27.5011 11.5787C26.6517 11.5787 26.0264 11.336 25.6251 10.8507C25.2331 10.356 25.0371 9.64202 25.0371 8.70869V5.60069H23.6931V4.11669H25.0371V2.38069L27.0251 2.21269V4.11669H28.8311V5.60069H27.0251V8.42869C27.0251 8.91402 27.0857 9.30136 27.2071 9.59069C27.3377 9.88002 27.5944 10.0247 27.9771 10.0247C28.2197 10.0247 28.4857 9.97336 28.7751 9.87069L29.1251 11.2287ZM38.7824 9.64669C39.1091 9.47869 39.3798 9.25002 39.5944 8.96069C39.8091 8.66202 39.9724 8.30269 40.0844 7.88269C40.1964 7.46269 40.2524 7.00069 40.2524 6.49669C40.2524 5.99269 40.1964 5.53069 40.0844 5.11069C39.9724 4.69069 39.8091 4.33136 39.5944 4.03269C39.3798 3.73402 39.1091 3.50536 38.7824 3.34669C38.4558 3.17869 38.0824 3.09469 37.6624 3.09469C37.2424 3.09469 36.8691 3.17869 36.5424 3.34669C36.2158 3.50536 35.9451 3.73402 35.7304 4.03269C35.5158 4.33136 35.3524 4.69069 35.2404 5.11069C35.1284 5.53069 35.0724 5.99269 35.0724 6.49669C35.0724 7.00069 35.1284 7.46269 35.2404 7.88269C35.3524 8.30269 35.5158 8.66202 35.7304 8.96069C35.9451 9.25002 36.2158 9.47869 36.5424 9.64669C36.8691 9.80536 37.2424 9.88469 37.6624 9.88469C38.0824 9.88469 38.4558 9.80536 38.7824 9.64669ZM41.0644 10.1507C40.6631 10.5987 40.1731 10.9487 39.5944 11.2007C39.0251 11.4527 38.3811 11.5787 37.6624 11.5787C36.9438 11.5787 36.2951 11.4527 35.7164 11.2007C35.1471 10.9487 34.6571 10.5987 34.2464 10.1507C33.8451 9.69336 33.5371 9.15669 33.3224 8.54069C33.1078 7.91536 33.0004 7.23402 33.0004 6.49669C33.0004 5.75936 33.1078 5.08269 33.3224 4.46669C33.5371 3.84136 33.8451 3.30469 34.2464 2.85669C34.6571 2.39936 35.1471 2.04469 35.7164 1.79269C36.2951 1.53136 36.9438 1.40069 37.6624 1.40069C38.3811 1.40069 39.0251 1.53136 39.5944 1.79269C40.1731 2.04469 40.6631 2.39936 41.0644 2.85669C41.4751 3.30469 41.7878 3.84136 42.0024 4.46669C42.2171 5.08269 42.3244 5.75936 42.3244 6.49669C42.3244 7.23402 42.2171 7.91536 42.0024 8.54069C41.7878 9.15669 41.4751 9.69336 41.0644 10.1507ZM45.7678 14.6867H43.7938V4.20069L45.3758 4.03269L45.5438 5.01269C45.8424 4.73269 46.1924 4.49002 46.5938 4.28469C46.9951 4.07936 47.4338 3.97669 47.9098 3.97669C48.3671 3.97669 48.7731 4.07936 49.1278 4.28469C49.4918 4.49002 49.7998 4.76536 50.0518 5.11069C50.3038 5.44669 50.4951 5.83869 50.6258 6.28669C50.7564 6.73469 50.8218 7.20136 50.8218 7.68669C50.8218 8.21869 50.7424 8.72269 50.5838 9.19869C50.4344 9.66536 50.2198 10.076 49.9398 10.4307C49.6598 10.7854 49.3191 11.0654 48.9178 11.2707C48.5164 11.476 48.0684 11.5787 47.5738 11.5787C47.2191 11.5787 46.8924 11.5274 46.5938 11.4247C46.3044 11.3127 46.0291 11.1634 45.7678 10.9767V14.6867ZM45.7678 9.70269C45.9918 9.80536 46.2204 9.88469 46.4538 9.94069C46.6871 9.99669 46.9018 10.0247 47.0978 10.0247C47.6858 10.0247 48.1198 9.81002 48.3998 9.38069C48.6891 8.95136 48.8338 8.39602 48.8338 7.71469C48.8338 6.98669 48.6891 6.44069 48.3998 6.07669C48.1104 5.71269 47.7278 5.53069 47.2518 5.53069C47.0091 5.53069 46.7571 5.57736 46.4958 5.67069C46.2438 5.75469 46.0011 5.86202 45.7678 5.99269V9.70269ZM56.9063 11.2287C56.3743 11.462 55.833 11.5787 55.2823 11.5787C54.433 11.5787 53.8076 11.336 53.4063 10.8507C53.0143 10.356 52.8183 9.64202 52.8183 8.70869V5.60069H51.4743V4.11669H52.8183V2.38069L54.8063 2.21269V4.11669H56.6123V5.60069H54.8063V8.42869C54.8063 8.91402 54.867 9.30136 54.9883 9.59069C55.119 9.88002 55.3756 10.0247 55.7583 10.0247C56.001 10.0247 56.267 9.97336 56.5563 9.87069L56.9063 11.2287ZM59.9735 11.4387H57.9995V4.20069L59.9735 4.03269V11.4387ZM60.1415 1.73669C60.1415 2.05402 60.0388 2.31069 59.8335 2.50669C59.6375 2.70269 59.3528 2.80069 58.9795 2.80069C58.6062 2.80069 58.3168 2.70269 58.1115 2.50669C57.9155 2.31069 57.8175 2.05402 57.8175 1.73669C57.8175 1.42869 57.9155 1.18136 58.1115 0.994689C58.3168 0.79869 58.6062 0.70069 58.9795 0.70069C59.3528 0.70069 59.6375 0.79869 59.8335 0.994689C60.0388 1.18136 60.1415 1.42869 60.1415 1.73669ZM70.5233 11.4387C70.4486 11.1214 70.4019 10.776 70.3833 10.4027C70.3646 10.0294 70.3553 9.70736 70.3553 9.43669V6.94469C70.3553 6.52469 70.2853 6.18402 70.1453 5.92269C70.0053 5.66136 69.7393 5.53069 69.3473 5.53069C69.1326 5.53069 68.9039 5.57269 68.6613 5.65669C68.4186 5.74069 68.1806 5.86202 67.9473 6.02069C67.9659 6.15136 67.9799 6.28202 67.9893 6.41269C68.0079 6.54336 68.0173 6.67869 68.0173 6.81869V9.43669C68.0173 9.70736 68.0266 10.0294 68.0453 10.4027C68.0639 10.776 68.1106 11.1214 68.1853 11.4387H66.2113C66.1366 11.1214 66.0899 10.776 66.0713 10.4027C66.0526 10.0294 66.0433 9.70736 66.0433 9.43669V6.94469C66.0433 6.54336 65.9733 6.20736 65.8333 5.93669C65.6933 5.66602 65.4319 5.53069 65.0493 5.53069C64.8346 5.53069 64.6106 5.57269 64.3773 5.65669C64.1533 5.74069 63.9293 5.85736 63.7053 6.00669V11.4387H61.7313V4.20069L63.3133 4.03269L63.4813 4.98469C63.7986 4.71402 64.1486 4.48069 64.5313 4.28469C64.9139 4.07936 65.3386 3.97669 65.8053 3.97669C66.2533 3.97669 66.6266 4.07469 66.9253 4.27069C67.2239 4.46669 67.4619 4.72802 67.6393 5.05469C67.9939 4.73736 68.3719 4.48069 68.7733 4.28469C69.1839 4.07936 69.6226 3.97669 70.0893 3.97669C70.4813 3.97669 70.8173 4.05136 71.0973 4.20069C71.3773 4.35002 71.6059 4.55536 71.7833 4.81669C71.9699 5.06869 72.1053 5.36736 72.1893 5.71269C72.2826 6.05802 72.3293 6.42669 72.3293 6.81869V9.43669C72.3293 9.70736 72.3386 10.0294 72.3573 10.4027C72.3759 10.776 72.4226 11.1214 72.4973 11.4387H70.5233ZM76.0243 11.4387H74.0503V4.20069L76.0243 4.03269V11.4387ZM76.1923 1.73669C76.1923 2.05402 76.0896 2.31069 75.8843 2.50669C75.6883 2.70269 75.4036 2.80069 75.0303 2.80069C74.657 2.80069 74.3676 2.70269 74.1623 2.50669C73.9663 2.31069 73.8683 2.05402 73.8683 1.73669C73.8683 1.42869 73.9663 1.18136 74.1623 0.994689C74.3676 0.79869 74.657 0.70069 75.0303 0.70069C75.4036 0.70069 75.6883 0.79869 75.8843 0.994689C76.0896 1.18136 76.1923 1.42869 76.1923 1.73669ZM83.2141 11.4387H77.3481L77.2221 10.3607L80.7081 5.62869H77.4881V4.11669H83.1021L83.2141 5.20869L79.7281 9.94069H83.2141V11.4387ZM90.3782 10.8087C89.9116 11.1074 89.4356 11.3127 88.9502 11.4247C88.4649 11.5274 88.0262 11.5787 87.6342 11.5787C87.1116 11.5787 86.6262 11.4947 86.1782 11.3267C85.7396 11.1587 85.3569 10.9114 85.0302 10.5847C84.7036 10.258 84.4469 9.85669 84.2602 9.38069C84.0829 8.89536 83.9942 8.33536 83.9942 7.70069C83.9942 7.15936 84.0642 6.66002 84.2042 6.20269C84.3442 5.74536 84.5496 5.35336 84.8202 5.02669C85.1002 4.70002 85.4456 4.44336 85.8562 4.25669C86.2669 4.07002 86.7382 3.97669 87.2702 3.97669C87.7836 3.97669 88.2409 4.06069 88.6422 4.22869C89.0529 4.39669 89.3936 4.63002 89.6642 4.92869C89.9349 5.22736 90.1402 5.57736 90.2802 5.97869C90.4296 6.38002 90.5042 6.80936 90.5042 7.26669C90.5042 7.45336 90.4949 7.65402 90.4762 7.86869C90.4576 8.07402 90.4296 8.25602 90.3922 8.41469H85.9542C86.0662 8.95602 86.2809 9.36202 86.5982 9.63269C86.9249 9.89402 87.3402 10.0247 87.8442 10.0247C88.1616 10.0247 88.4789 9.97802 88.7962 9.88469C89.1229 9.78202 89.4496 9.63736 89.7762 9.45069L90.3782 10.8087ZM88.6282 7.12669C88.6096 6.63202 88.4929 6.24002 88.2782 5.95069C88.0636 5.66136 87.7369 5.51669 87.2982 5.51669C86.8409 5.51669 86.5049 5.67069 86.2902 5.97869C86.0756 6.27736 85.9449 6.66002 85.8982 7.12669H88.6282ZM93.8518 11.4387H91.8778V4.20069L93.4598 4.03269L93.6558 5.15269C93.9264 4.79802 94.2111 4.51336 94.5098 4.29869C94.8084 4.08402 95.1538 3.97669 95.5458 3.97669C95.7978 3.97669 96.0778 4.02802 96.3858 4.13069L96.0218 5.85269C95.8631 5.79669 95.7184 5.76402 95.5878 5.75469C95.4571 5.73602 95.3404 5.72669 95.2378 5.72669C94.9578 5.72669 94.7104 5.76869 94.4958 5.85269C94.2904 5.93669 94.0758 6.06269 93.8518 6.23069V11.4387Z" fill="#ACACAC"/>
</svg>
