<svg width="78" height="67" viewBox="0 0 78 67" fill="none" xmlns="http://www.w3.org/2000/svg">
<g clip-path="url(#clip0_619_1419)">
<path d="M73.1204 4.42H0.729492V65.8047H73.1204V4.42Z" fill="#B4FFC9"/>
<g filter="url(#filter0_d_619_1419)">
<path d="M76.5379 3.37273H4.36523V62.14H76.5379V3.37273Z" fill="white" stroke="#078449" stroke-miterlimit="10"/>
</g>
<path d="M65.0522 8.60689H63.3438V10.3199H65.0522V8.60689Z" fill="#078449"/>
<path d="M66.1201 9.46341H73.1202" stroke="#078449" stroke-miterlimit="10" stroke-linejoin="round"/>
<path d="M65.0522 11.7237H63.3438V13.4368H65.0522V11.7237Z" fill="#92E3A9"/>
<path d="M66.1201 12.5802H73.1202" stroke="#078449" stroke-miterlimit="10" stroke-linejoin="round"/>
<path d="M65.0522 14.8405H63.3438V16.5536H65.0522V14.8405Z" fill="#7D7D7D"/>
<path d="M66.1201 15.6971H73.1202" stroke="#078449" stroke-miterlimit="10" stroke-linejoin="round"/>
<path d="M11.1186 8.60689H9.41016V10.3199H11.1186V8.60689Z" fill="#078449"/>
<path d="M12.1865 9.46341H19.1866" stroke="#078449" stroke-miterlimit="10" stroke-linejoin="round"/>
<path d="M11.1186 11.7237H9.41016V13.4368H11.1186V11.7237Z" fill="#92E3A9"/>
<path d="M12.1865 12.5802H19.1866" stroke="#078449" stroke-miterlimit="10" stroke-linejoin="round"/>
<path d="M11.1186 14.8405H9.41016V16.5536H11.1186V14.8405Z" fill="#7D7D7D"/>
<path d="M12.1865 15.6971H19.1866" stroke="#078449" stroke-miterlimit="10" stroke-linejoin="round"/>
<path d="M65.0522 50.4973H63.3438V52.2104H65.0522V50.4973Z" fill="#078449"/>
<path d="M66.1201 51.3539H73.1202" stroke="#078449" stroke-miterlimit="10" stroke-linejoin="round"/>
<path d="M65.0522 53.6141H63.3438V55.3272H65.0522V53.6141Z" fill="#92E3A9"/>
<path d="M66.1201 54.4707H73.1202" stroke="#078449" stroke-miterlimit="10" stroke-linejoin="round"/>
<path d="M65.0522 56.731H63.3438V58.444H65.0522V56.731Z" fill="#7D7D7D"/>
<path d="M66.1201 57.5875H73.1202" stroke="#078449" stroke-miterlimit="10" stroke-linejoin="round"/>
<path d="M11.1186 50.4973H9.41016V52.2104H11.1186V50.4973Z" fill="#078449"/>
<path d="M12.1865 51.3539H19.1866" stroke="#078449" stroke-miterlimit="10" stroke-linejoin="round"/>
<path d="M11.1186 53.6141H9.41016V55.3272H11.1186V53.6141Z" fill="#92E3A9"/>
<path d="M12.1865 54.4707H19.1866" stroke="#078449" stroke-miterlimit="10" stroke-linejoin="round"/>
<path d="M11.1186 56.731H9.41016V58.444H11.1186V56.731Z" fill="#7D7D7D"/>
<path d="M12.1865 57.5875H19.1866" stroke="#078449" stroke-miterlimit="10" stroke-linejoin="round"/>
</g>
<path fill-rule="evenodd" clip-rule="evenodd" d="M49.0695 46.2821C48.9125 46.1249 48.8242 45.9119 48.8242 45.6897C48.8242 45.4676 48.9125 45.2545 49.0695 45.0974L51.5829 42.584C51.6602 42.504 51.7527 42.4401 51.8549 42.3962C51.9571 42.3523 52.067 42.3292 52.1783 42.3282C52.2895 42.3273 52.3999 42.3485 52.5028 42.3906C52.6058 42.4327 52.6993 42.4949 52.778 42.5736C52.8567 42.6523 52.9189 42.7458 52.961 42.8488C53.0031 42.9517 53.0243 43.062 53.0233 43.1733C53.0224 43.2845 52.9993 43.3945 52.9554 43.4967C52.9115 43.5989 52.8476 43.6914 52.7676 43.7686L50.2542 46.2821C50.0971 46.4391 49.884 46.5274 49.6618 46.5274C49.4397 46.5274 49.2266 46.4391 49.0695 46.2821Z" fill="#1DBF73"/>
<path fill-rule="evenodd" clip-rule="evenodd" d="M55.2809 46.2821C55.1238 46.4391 54.9108 46.5274 54.6886 46.5274C54.4664 46.5274 54.2534 46.4391 54.0963 46.2821L51.5828 43.7686C51.4302 43.6106 51.3458 43.399 51.3477 43.1793C51.3496 42.9597 51.4377 42.7495 51.593 42.5942C51.7484 42.4389 51.9585 42.3507 52.1782 42.3488C52.3979 42.3469 52.6095 42.4314 52.7675 42.584L55.2809 45.0974C55.438 45.2545 55.5262 45.4676 55.5262 45.6897C55.5262 45.9119 55.438 46.125 55.2809 46.2821Z" fill="#078449"/>
<path fill-rule="evenodd" clip-rule="evenodd" d="M52.1745 44.0141C52.3967 44.0141 52.6098 44.1024 52.7669 44.2595C52.9241 44.4166 53.0123 44.6297 53.0123 44.8519V51.5544C53.0123 51.7766 52.9241 51.9897 52.7669 52.1468C52.6098 52.3039 52.3967 52.3922 52.1745 52.3922C51.9523 52.3922 51.7392 52.3039 51.5821 52.1468C51.425 51.9897 51.3367 51.7766 51.3367 51.5544V44.8519C51.3367 44.6297 51.425 44.4166 51.5821 44.2595C51.7392 44.1024 51.9523 44.0141 52.1745 44.0141ZM48.5778 50.1243C48.7349 50.2814 48.8231 50.4944 48.8231 50.7166C48.8231 50.9387 48.7349 51.1518 48.5778 51.3089L46.0644 53.8223C45.9064 53.975 45.6947 54.0594 45.4751 54.0575C45.2554 54.0556 45.0453 53.9675 44.8899 53.8121C44.7346 53.6568 44.6465 53.4467 44.6446 53.227C44.6427 53.0073 44.7271 52.7957 44.8797 52.6377L47.3931 50.1243C47.5503 49.9672 47.7633 49.879 47.9855 49.879C48.2076 49.879 48.4207 49.9672 48.5778 50.1243Z" fill="#1DBF73"/>
<path fill-rule="evenodd" clip-rule="evenodd" d="M42.3664 50.1243C42.5235 49.9672 42.7366 49.879 42.9587 49.879C43.1809 49.879 43.3939 49.9672 43.5511 50.1243L46.0645 52.6377C46.1445 52.715 46.2083 52.8074 46.2522 52.9096C46.2961 53.0118 46.3193 53.1218 46.3202 53.233C46.3212 53.3443 46.3 53.4546 46.2579 53.5576C46.2157 53.6605 46.1535 53.7541 46.0749 53.8327C45.9962 53.9114 45.9027 53.9736 45.7997 54.0157C45.6967 54.0578 45.5864 54.079 45.4752 54.0781C45.3639 54.0771 45.254 54.054 45.1518 54.0101C45.0496 53.9662 44.9571 53.9024 44.8798 53.8223L42.3664 51.3089C42.2093 51.1518 42.1211 50.9387 42.1211 50.7166C42.1211 50.4944 42.2093 50.2814 42.3664 50.1243Z" fill="#078449"/>
<path fill-rule="evenodd" clip-rule="evenodd" d="M45.4726 52.3922C45.2504 52.3922 45.0373 52.3039 44.8802 52.1468C44.723 51.9897 44.6348 51.7766 44.6348 51.5544V44.8519C44.6348 44.6297 44.723 44.4166 44.8802 44.2595C45.0373 44.1024 45.2504 44.0141 45.4726 44.0141C45.6948 44.0141 45.9079 44.1024 46.065 44.2595C46.2221 44.4166 46.3104 44.6297 46.3104 44.8519V51.5544C46.3104 51.7766 46.2221 51.9897 46.065 52.1468C45.9079 52.3039 45.6948 52.3922 45.4726 52.3922Z" fill="#078449"/>
<g clip-path="url(#clip1_619_1419)">
<path d="M28.9238 49.7856C29.0034 50.7847 29.7931 51.5628 31.209 51.6549V52.3922H31.8373V51.6497C33.3035 51.5471 34.1601 50.7637 34.1601 49.6264C34.1601 48.5927 33.5045 48.0597 32.3327 47.7832L31.8373 47.6659V45.6583C32.4657 45.7295 32.8657 46.073 32.9621 46.5485H34.0638C33.9842 45.5861 33.159 44.8331 31.8373 44.7514V44.0141H31.209V44.7671C29.9575 44.8896 29.104 45.6426 29.104 46.7077C29.104 47.6502 29.7386 48.2492 30.7932 48.4953L31.209 48.598V50.7281C30.5649 50.6307 30.1387 50.2778 30.0423 49.7856H28.9238ZM31.2037 47.5172C30.5858 47.3737 30.2507 47.0815 30.2507 46.6417C30.2507 46.1495 30.612 45.7808 31.209 45.673V47.5162L31.2037 47.5172ZM31.9284 48.7666C32.6793 48.9404 33.0259 49.2221 33.0259 49.7196C33.0259 50.2872 32.5945 50.6768 31.8373 50.748V48.7456L31.9284 48.7666Z" fill="#078449"/>
<path d="M31.5421 55.534C29.5979 55.534 27.7333 54.7616 26.3585 53.3868C24.9837 52.012 24.2113 50.1474 24.2113 48.2032C24.2113 46.2589 24.9837 44.3943 26.3585 43.0195C27.7333 41.6447 29.5979 40.8723 31.5421 40.8723C33.4864 40.8723 35.351 41.6447 36.7258 43.0195C38.1006 44.3943 38.873 46.2589 38.873 48.2032C38.873 50.1474 38.1006 52.012 36.7258 53.3868C35.351 54.7616 33.4864 55.534 31.5421 55.534ZM31.5421 56.5812C33.7642 56.5812 35.8952 55.6986 37.4664 54.1274C39.0375 52.5562 39.9202 50.4252 39.9202 48.2032C39.9202 45.9812 39.0375 43.8502 37.4664 42.279C35.8952 40.7078 33.7642 39.8251 31.5421 39.8251C29.3201 39.8251 27.1891 40.7078 25.6179 42.279C24.0468 43.8502 23.1641 45.9812 23.1641 48.2032C23.1641 50.4252 24.0468 52.5562 25.6179 54.1274C27.1891 55.6986 29.3201 56.5812 31.5421 56.5812Z" fill="#1DBF73"/>
<path d="M31.5414 53.9631C30.0137 53.9631 28.5487 53.3563 27.4685 52.2761C26.3883 51.1959 25.7814 49.7308 25.7814 48.2032C25.7814 46.6755 26.3883 45.2105 27.4685 44.1303C28.5487 43.0501 30.0137 42.4432 31.5414 42.4432C33.069 42.4432 34.5341 43.0501 35.6143 44.1303C36.6945 45.2105 37.3013 46.6755 37.3013 48.2032C37.3013 49.7308 36.6945 51.1959 35.6143 52.2761C34.5341 53.3563 33.069 53.9631 31.5414 53.9631ZM31.5414 54.4867C32.3665 54.4867 33.1836 54.3242 33.946 54.0084C34.7083 53.6926 35.401 53.2298 35.9845 52.6463C36.568 52.0628 37.0309 51.3701 37.3466 50.6078C37.6624 49.8454 37.8249 49.0283 37.8249 48.2032C37.8249 47.378 37.6624 46.5609 37.3466 45.7985C37.0309 45.0362 36.568 44.3435 35.9845 43.76C35.401 43.1765 34.7083 42.7137 33.946 42.3979C33.1836 42.0821 32.3665 41.9196 31.5414 41.9196C29.8749 41.9196 28.2766 42.5816 27.0982 43.76C25.9198 44.9384 25.2578 46.5367 25.2578 48.2032C25.2578 49.8697 25.9198 51.4679 27.0982 52.6463C28.2766 53.8247 29.8749 54.4867 31.5414 54.4867Z" fill="#1DBF73"/>
</g>
<path d="M51.7987 25.7833C51.3011 25.7789 50.8049 25.7286 50.3164 25.6332C49.8468 25.5346 49.388 25.3901 48.9467 25.2016L48.6277 25.1266H48.4026C48.2149 25.1266 48.1211 25.2579 48.1211 25.5206V26.1398C48.0945 26.2572 48.0945 26.379 48.1211 26.4963C48.2154 26.6506 48.3522 26.7744 48.5151 26.8528C48.9665 27.0786 49.4461 27.2427 49.9412 27.3407C50.5559 27.4876 51.1855 27.5632 51.8175 27.5658C52.4533 27.5849 53.0877 27.4961 53.6939 27.3031C54.1946 27.1718 54.6616 26.9351 55.0636 26.6089C55.4436 26.3152 55.7569 25.9443 55.983 25.5206C56.1981 25.063 56.3072 24.5627 56.302 24.0571C56.3088 23.4297 56.1112 22.8172 55.7391 22.3121C55.2387 21.7436 54.5885 21.3275 53.8627 21.1112L52.0802 20.5483C51.5821 20.4194 51.1159 20.1895 50.7105 19.8728C50.5916 19.7588 50.4971 19.6219 50.4326 19.4703C50.3681 19.3187 50.335 19.1557 50.3352 18.991C50.3218 18.7683 50.3687 18.5462 50.4711 18.348C50.5735 18.1499 50.7275 17.983 50.9169 17.8652C51.436 17.6133 52.0106 17.4971 52.5868 17.5274C53.4078 17.5075 54.2226 17.6743 54.9698 18.0153C55.1225 18.0931 55.2875 18.1439 55.4576 18.1654C55.6453 18.1654 55.7391 18.0153 55.7391 17.7526V17.0771C55.7447 16.9312 55.7054 16.7871 55.6265 16.6643C55.5263 16.5366 55.3978 16.4338 55.2512 16.3641C55.0839 16.272 54.9079 16.1965 54.7258 16.1389C54.4923 16.0565 54.2543 15.9876 54.0128 15.9325L53.1872 15.7449C52.8812 15.7228 52.5739 15.7228 52.2678 15.7449C51.7413 15.7358 51.2164 15.8054 50.7105 15.9513C50.2368 16.0896 49.7919 16.312 49.397 16.608C49.0308 16.8753 48.7293 17.2216 48.5151 17.6212C48.285 18.0473 48.1687 18.5255 48.1774 19.0097C48.1662 19.6871 48.3844 20.3484 48.7966 20.8861C49.3118 21.5067 50.0066 21.9524 50.7855 22.162L52.6619 22.7249C53.1261 22.8333 53.5574 23.0522 53.919 23.3628C54.1437 23.6006 54.2651 23.9177 54.2568 24.2447C54.2608 24.4821 54.2022 24.7163 54.0869 24.9238C53.9717 25.1314 53.8037 25.3048 53.6 25.4268C53.0431 25.707 52.4204 25.8302 51.7987 25.7833ZM40.8972 16.6831C40.8683 16.4991 40.783 16.3287 40.6533 16.1952C40.5129 16.0917 40.3388 16.0448 40.1654 16.0639H39.1334C38.9609 16.0543 38.7899 16.1003 38.6456 16.1952C38.5088 16.3236 38.4223 16.4966 38.4017 16.6831L36.5253 24.939L34.3863 16.6831C34.3522 16.4969 34.2602 16.3262 34.1236 16.1952C34.1236 16.1952 33.8797 16.0639 33.6357 16.0639H32.4161C32.2097 16.0639 32.1159 16.1764 32.1159 16.3828C32.1341 16.5554 32.1719 16.7254 32.2285 16.8895L35.1556 26.5338C35.1936 26.7054 35.2707 26.8659 35.3807 27.0029C35.5282 27.0889 35.6983 27.1282 35.8686 27.1155H36.9381C37.1143 27.1274 37.2902 27.0883 37.4447 27.0029C37.563 26.8568 37.6407 26.682 37.6699 26.4963L39.5462 18.4656L41.4226 26.5151C41.4382 26.6991 41.5178 26.8717 41.6477 27.0029C41.7954 27.1061 41.9752 27.1527 42.1543 27.1343H43.2239C43.3903 27.1425 43.5549 27.0964 43.6929 27.0029C43.8341 26.8754 43.9269 26.7031 43.9556 26.5151L46.9765 16.8707C46.9875 16.7709 46.9875 16.6702 46.9765 16.5705C46.9838 16.5019 46.9838 16.4327 46.9765 16.3641C46.9828 16.3207 46.9789 16.2765 46.9651 16.2349C46.9513 16.1934 46.928 16.1556 46.897 16.1246C46.8661 16.0936 46.8283 16.0703 46.7867 16.0565C46.7451 16.0427 46.7009 16.0388 46.6576 16.0451H45.4942C45.322 16.0381 45.1518 16.0839 45.0064 16.1764C44.8909 16.3196 44.8077 16.486 44.7625 16.6643L42.8861 25.1266L40.8972 16.6831ZM27.4438 20.6797C27.002 20.6217 26.5572 20.5904 26.1116 20.5858C25.0073 20.5278 23.9198 20.8748 23.0532 21.5615C22.6841 21.8776 22.3912 22.273 22.1962 22.7181C22.0013 23.1632 21.9094 23.6465 21.9274 24.1321C21.9055 24.5743 21.976 25.0163 22.1343 25.4297C22.2926 25.8432 22.5352 26.2192 22.8468 26.5338C23.1816 26.8429 23.5749 27.0817 24.0035 27.2364C24.4321 27.3911 24.8873 27.4584 25.3423 27.4345C26.0585 27.4551 26.7698 27.31 27.4207 27.0106C28.0716 26.7112 28.6446 26.2655 29.095 25.7083C29.2047 25.9598 29.33 26.2042 29.4703 26.44C29.6038 26.6462 29.7545 26.8407 29.9206 27.0217C29.966 27.0676 30.02 27.1041 30.0796 27.129C30.1392 27.1539 30.2031 27.1668 30.2677 27.1668C30.3323 27.1668 30.3962 27.1539 30.4558 27.129C30.5154 27.1041 30.5695 27.0676 30.6148 27.0217L31.4029 26.4963C31.4687 26.4556 31.5247 26.4008 31.5668 26.336C31.609 26.2711 31.6363 26.1977 31.6468 26.121C31.6772 26.0233 31.6772 25.9186 31.6468 25.8208C31.4948 25.5366 31.3631 25.2419 31.2528 24.939C31.1523 24.5725 31.108 24.1929 31.1214 23.8132V19.8541C31.1663 19.298 31.0979 18.7387 30.9206 18.2098C30.7432 17.6809 30.4605 17.1934 30.0895 16.7769C29.6126 16.3759 29.0583 16.0774 28.4612 15.8999C27.864 15.7223 27.2367 15.6696 26.6182 15.7449C25.9849 15.7447 25.3541 15.8266 24.7419 15.9888C24.1967 16.1156 23.6679 16.3044 23.1657 16.5517C23.0333 16.6102 22.9173 16.7004 22.828 16.8144C22.7822 16.9546 22.7822 17.1058 22.828 17.246V17.8652C22.828 18.1278 22.828 18.2404 23.0907 18.2404C23.1587 18.2551 23.2291 18.2551 23.2971 18.2404L23.7287 18.0903C24.1098 17.9032 24.505 17.7464 24.9107 17.6212C25.3526 17.5105 25.8062 17.4538 26.2617 17.4524C26.987 17.3764 27.7136 17.5849 28.2882 18.034C28.735 18.5953 28.9438 19.3094 28.8698 20.0229V20.9424L27.4438 20.6797ZM28.9074 22.3684V22.875C28.9088 23.2418 28.8647 23.6073 28.776 23.9633C28.6968 24.2621 28.5491 24.5383 28.3445 24.7701C28.0316 25.1378 27.6222 25.4108 27.1624 25.5581C26.7522 25.7024 26.3212 25.7785 25.8864 25.7833C25.6484 25.801 25.4093 25.7702 25.1835 25.6928C24.9578 25.6154 24.7501 25.493 24.573 25.333C24.4087 25.155 24.2836 24.9443 24.206 24.7148C24.1285 24.4853 24.1001 24.242 24.1227 24.0008C24.1072 23.7312 24.1551 23.4618 24.2627 23.2141C24.3702 22.9665 24.5343 22.7475 24.7419 22.5748C25.2887 22.1914 25.9527 22.0121 26.6182 22.0682H27.7816C28.162 22.1476 28.5379 22.2478 28.9074 22.3684ZM53.6939 32.632C49.2083 34.5192 44.3939 35.5012 39.5275 35.5215C33.0138 35.5227 26.612 33.8285 20.9517 30.6055C20.5013 30.3241 20.1448 30.7931 20.5389 31.1496C25.6337 35.7554 32.2654 38.2916 39.1334 38.261C44.5496 38.2743 49.8447 36.6596 54.3318 33.6264C54.9698 33.0447 54.3881 32.2754 53.6939 32.632Z" fill="#1DBF73"/>
<path d="M51.1045 30.8682C50.748 31.1309 50.8043 31.4874 51.1984 31.4311C52.5306 31.2622 55.4764 30.9245 56.0018 31.6C56.5272 32.2755 55.4201 35.0337 54.9135 36.2721C54.7634 36.6473 55.1011 36.7974 55.4389 36.516C56.2932 35.7295 56.9481 34.7509 57.3495 33.6611C57.7508 32.5714 57.887 31.4018 57.7468 30.249C56.6686 29.8244 55.5056 29.6592 54.3518 29.7668C53.198 29.8744 52.0857 30.2516 51.1045 30.8682Z" fill="#078449"/>
<defs>
<filter id="filter0_d_619_1419" x="-0.134766" y="2.87273" width="81.1729" height="67.7673" filterUnits="userSpaceOnUse" color-interpolation-filters="sRGB">
<feFlood flood-opacity="0" result="BackgroundImageFix"/>
<feColorMatrix in="SourceAlpha" type="matrix" values="0 0 0 0 0 0 0 0 0 0 0 0 0 0 0 0 0 0 127 0" result="hardAlpha"/>
<feOffset dy="4"/>
<feGaussianBlur stdDeviation="2"/>
<feComposite in2="hardAlpha" operator="out"/>
<feColorMatrix type="matrix" values="0 0 0 0 0 0 0 0 0 0 0 0 0 0 0 0 0 0 0.1 0"/>
<feBlend mode="normal" in2="BackgroundImageFix" result="effect1_dropShadow_619_1419"/>
<feBlend mode="normal" in="SourceGraphic" in2="effect1_dropShadow_619_1419" result="shape"/>
</filter>
<clipPath id="clip0_619_1419">
<rect width="77.0594" height="65.4538" fill="white" transform="translate(0.296875 0.874512)"/>
</clipPath>
<clipPath id="clip1_619_1419">
<rect width="20" height="17" fill="white" transform="translate(20 40)"/>
</clipPath>
</defs>
</svg>
