<svg width="408" height="130" viewBox="0 0 408 130" fill="none" xmlns="http://www.w3.org/2000/svg">
<g clip-path="url(#clip0_222_829)">
<path d="M23.295 -69.022C11.275 -53.1388 11.9617 -32.0967 30.5953 -14.6259C46.5409 0.538506 63.5581 7.62152 68.0885 35.0719C85.2085 140.099 153.081 122.271 189.856 90.8581C242.602 45.6718 264.573 55.4871 304.292 50.4741C332.077 46.9289 354.268 41.5294 373.747 17.8683C402.931 -17.4235 392.766 -61.1239 363.831 -86.5929C349.582 -99.1669 332.148 -110.596 322.011 -118.361C294.836 -139.173 288.395 -150.627 262.928 -186.237C212.048 -254.611 142.806 -240.593 127.239 -174.334C113.936 -117.64 113.643 -113.702 72.1692 -97.517C54.5691 -90.8857 37.0208 -87.2468 23.295 -69.022Z" fill="url(#paint0_linear_222_829)" fill-opacity="0.2"/>
</g>
<defs>
<linearGradient id="paint0_linear_222_829" x1="225.021" y1="101.475" x2="173.519" y2="-229.483" gradientUnits="userSpaceOnUse">
<stop stop-color="#1DBF73"/>
<stop offset="1" stop-color="#74FFBE"/>
</linearGradient>
<clipPath id="clip0_222_829">
<rect width="335" height="370" fill="white" transform="translate(42.2197 129.921) rotate(-98.8451)"/>
</clipPath>
</defs>
</svg>
