<svg width="31" height="31" viewBox="0 0 31 31" fill="none" xmlns="http://www.w3.org/2000/svg">
<path d="M15.335 5.46918C16.661 5.46918 17.9328 5.99596 18.8705 6.93364C19.8082 7.87133 20.335 9.14309 20.335 10.4692C20.335 11.7953 19.8082 13.067 18.8705 14.0047C17.9328 14.9424 16.661 15.4692 15.335 15.4692C14.0089 15.4692 12.7371 14.9424 11.7994 14.0047C10.8617 13.067 10.335 11.7953 10.335 10.4692C10.335 9.14309 10.8617 7.87133 11.7994 6.93364C12.7371 5.99596 14.0089 5.46918 15.335 5.46918ZM15.335 17.9692C20.86 17.9692 25.335 20.2067 25.335 22.9692V25.4692H5.33496V22.9692C5.33496 20.2067 9.80996 17.9692 15.335 17.9692Z" fill="#767676"/>
</svg>
