<svg width="72" height="15" viewBox="0 0 72 15" fill="none" xmlns="http://www.w3.org/2000/svg">
<path d="M10.7445 11.4387H8.70053V4.64869L6.26453 8.54069H5.25653L2.84853 4.69069V11.4387H0.902531V1.54069H3.00253L5.84453 6.09069L8.68653 1.54069H10.7445V11.4387ZM15.934 10.0247C16.522 10.0247 16.9467 9.81936 17.208 9.40869C17.4787 8.99802 17.614 8.45669 17.614 7.78469C17.614 7.11269 17.4787 6.57136 17.208 6.16069C16.9467 5.74069 16.522 5.53069 15.934 5.53069C15.346 5.53069 14.9167 5.74069 14.646 6.16069C14.3754 6.57136 14.24 7.11269 14.24 7.78469C14.24 8.45669 14.3754 8.99802 14.646 9.40869C14.9167 9.81936 15.346 10.0247 15.934 10.0247ZM18.636 10.5147C18.328 10.8507 17.9454 11.112 17.488 11.2987C17.0307 11.4854 16.5127 11.5787 15.934 11.5787C15.3554 11.5787 14.8374 11.4854 14.38 11.2987C13.9227 11.112 13.5354 10.8507 13.218 10.5147C12.9007 10.1787 12.658 9.78202 12.49 9.32469C12.3314 8.85802 12.252 8.34469 12.252 7.78469C12.252 7.22469 12.3314 6.71136 12.49 6.24469C12.658 5.77802 12.9007 5.37669 13.218 5.04069C13.5354 4.70469 13.9227 4.44336 14.38 4.25669C14.8374 4.07002 15.3554 3.97669 15.934 3.97669C16.5127 3.97669 17.0307 4.07002 17.488 4.25669C17.9454 4.44336 18.328 4.70469 18.636 5.04069C18.9534 5.37669 19.1914 5.77802 19.35 6.24469C19.518 6.71136 19.602 7.22469 19.602 7.78469C19.602 8.34469 19.518 8.85802 19.35 9.32469C19.1914 9.78202 18.9534 10.1787 18.636 10.5147ZM25.6736 11.4387C25.5989 11.1214 25.5522 10.776 25.5336 10.4027C25.5149 10.0294 25.5056 9.70736 25.5056 9.43669V6.94469C25.5056 6.74869 25.4869 6.56669 25.4496 6.39869C25.4216 6.22136 25.3702 6.07202 25.2956 5.95069C25.2209 5.82002 25.1136 5.71736 24.9736 5.64269C24.8429 5.56802 24.6796 5.53069 24.4836 5.53069C24.2409 5.53069 23.9889 5.58202 23.7276 5.68469C23.4662 5.78736 23.2049 5.93202 22.9436 6.11869V11.4387H20.9696V4.20069L22.5516 4.03269L22.7336 5.06869C23.0882 4.77002 23.4709 4.51336 23.8816 4.29869C24.2922 4.08402 24.7449 3.97669 25.2396 3.97669C25.6316 3.97669 25.9676 4.05136 26.2476 4.20069C26.5276 4.34069 26.7562 4.54136 26.9336 4.80269C27.1202 5.05469 27.2556 5.35336 27.3396 5.69869C27.4329 6.04402 27.4796 6.41736 27.4796 6.81869V9.43669C27.4796 9.70736 27.4889 10.0294 27.5076 10.4027C27.5262 10.776 27.5729 11.1214 27.6476 11.4387H25.6736ZM31.161 11.4387H29.187V4.20069L31.161 4.03269V11.4387ZM31.329 1.73669C31.329 2.05402 31.2263 2.31069 31.021 2.50669C30.825 2.70269 30.5403 2.80069 30.167 2.80069C29.7937 2.80069 29.5043 2.70269 29.299 2.50669C29.103 2.31069 29.005 2.05402 29.005 1.73669C29.005 1.42869 29.103 1.18136 29.299 0.994689C29.5043 0.79869 29.7937 0.70069 30.167 0.70069C30.5403 0.70069 30.825 0.79869 31.021 0.994689C31.2263 1.18136 31.329 1.42869 31.329 1.73669ZM37.6368 11.2287C37.1048 11.462 36.5634 11.5787 36.0128 11.5787C35.1634 11.5787 34.5381 11.336 34.1368 10.8507C33.7448 10.356 33.5488 9.64202 33.5488 8.70869V5.60069H32.2048V4.11669H33.5488V2.38069L35.5368 2.21269V4.11669H37.3428V5.60069H35.5368V8.42869C35.5368 8.91402 35.5974 9.30136 35.7188 9.59069C35.8494 9.88002 36.1061 10.0247 36.4888 10.0247C36.7314 10.0247 36.9974 9.97336 37.2868 9.87069L37.6368 11.2287ZM42.02 10.0247C42.608 10.0247 43.0327 9.81936 43.294 9.40869C43.5647 8.99802 43.7 8.45669 43.7 7.78469C43.7 7.11269 43.5647 6.57136 43.294 6.16069C43.0327 5.74069 42.608 5.53069 42.02 5.53069C41.432 5.53069 41.0027 5.74069 40.732 6.16069C40.4613 6.57136 40.326 7.11269 40.326 7.78469C40.326 8.45669 40.4613 8.99802 40.732 9.40869C41.0027 9.81936 41.432 10.0247 42.02 10.0247ZM44.722 10.5147C44.414 10.8507 44.0313 11.112 43.574 11.2987C43.1167 11.4854 42.5987 11.5787 42.02 11.5787C41.4413 11.5787 40.9233 11.4854 40.466 11.2987C40.0087 11.112 39.6213 10.8507 39.304 10.5147C38.9867 10.1787 38.744 9.78202 38.576 9.32469C38.4173 8.85802 38.338 8.34469 38.338 7.78469C38.338 7.22469 38.4173 6.71136 38.576 6.24469C38.744 5.77802 38.9867 5.37669 39.304 5.04069C39.6213 4.70469 40.0087 4.44336 40.466 4.25669C40.9233 4.07002 41.4413 3.97669 42.02 3.97669C42.5987 3.97669 43.1167 4.07002 43.574 4.25669C44.0313 4.44336 44.414 4.70469 44.722 5.04069C45.0393 5.37669 45.2773 5.77802 45.436 6.24469C45.604 6.71136 45.688 7.22469 45.688 7.78469C45.688 8.34469 45.604 8.85802 45.436 9.32469C45.2773 9.78202 45.0393 10.1787 44.722 10.5147ZM49.0295 11.4387H47.0555V4.20069L48.6375 4.03269L48.8335 5.15269C49.1042 4.79802 49.3888 4.51336 49.6875 4.29869C49.9862 4.08402 50.3315 3.97669 50.7235 3.97669C50.9755 3.97669 51.2555 4.02802 51.5635 4.13069L51.1995 5.85269C51.0408 5.79669 50.8962 5.76402 50.7655 5.75469C50.6348 5.73602 50.5182 5.72669 50.4155 5.72669C50.1355 5.72669 49.8882 5.76869 49.6735 5.85269C49.4682 5.93669 49.2535 6.06269 49.0295 6.23069V11.4387ZM54.5399 11.4387H52.5659V4.20069L54.5399 4.03269V11.4387ZM54.7079 1.73669C54.7079 2.05402 54.6053 2.31069 54.3999 2.50669C54.2039 2.70269 53.9193 2.80069 53.5459 2.80069C53.1726 2.80069 52.8833 2.70269 52.6779 2.50669C52.4819 2.31069 52.3839 2.05402 52.3839 1.73669C52.3839 1.42869 52.4819 1.18136 52.6779 0.994689C52.8833 0.79869 53.1726 0.70069 53.5459 0.70069C53.9193 0.70069 54.2039 0.79869 54.3999 0.994689C54.6053 1.18136 54.7079 1.42869 54.7079 1.73669ZM61.0017 11.4387C60.927 11.1214 60.8804 10.776 60.8617 10.4027C60.843 10.0294 60.8337 9.70736 60.8337 9.43669V6.94469C60.8337 6.74869 60.815 6.56669 60.7777 6.39869C60.7497 6.22136 60.6984 6.07202 60.6237 5.95069C60.549 5.82002 60.4417 5.71736 60.3017 5.64269C60.171 5.56802 60.0077 5.53069 59.8117 5.53069C59.569 5.53069 59.317 5.58202 59.0557 5.68469C58.7944 5.78736 58.533 5.93202 58.2717 6.11869V11.4387H56.2977V4.20069L57.8797 4.03269L58.0617 5.06869C58.4164 4.77002 58.799 4.51336 59.2097 4.29869C59.6204 4.08402 60.073 3.97669 60.5677 3.97669C60.9597 3.97669 61.2957 4.05136 61.5757 4.20069C61.8557 4.34069 62.0844 4.54136 62.2617 4.80269C62.4484 5.05469 62.5837 5.35336 62.6677 5.69869C62.761 6.04402 62.8077 6.41736 62.8077 6.81869V9.43669C62.8077 9.70736 62.817 10.0294 62.8357 10.4027C62.8544 10.776 62.901 11.1214 62.9757 11.4387H61.0017ZM71.0811 11.1447C71.0811 12.3674 70.7498 13.2867 70.0871 13.9027C69.4338 14.5187 68.5471 14.8267 67.4271 14.8267C66.4378 14.8267 65.5418 14.584 64.7391 14.0987L65.2991 12.7267C65.9525 13.0907 66.6011 13.2727 67.2451 13.2727C68.4865 13.2727 69.1071 12.5727 69.1071 11.1727V10.7947C68.8178 11.0094 68.4911 11.1914 68.1271 11.3407C67.7725 11.4807 67.3991 11.5507 67.0071 11.5507C66.5498 11.5507 66.1391 11.448 65.7751 11.2427C65.4205 11.0374 65.1218 10.7667 64.8791 10.4307C64.6365 10.0854 64.4498 9.69336 64.3191 9.25469C64.1885 8.80669 64.1231 8.34002 64.1231 7.85469C64.1231 7.33202 64.1978 6.83736 64.3471 6.37069C64.4965 5.89469 64.7111 5.47936 64.9911 5.12469C65.2711 4.77002 65.6071 4.49002 65.9991 4.28469C66.3911 4.07936 66.8345 3.97669 67.3291 3.97669C67.7305 3.97669 68.0945 4.04202 68.4211 4.17269C68.7571 4.30336 69.0605 4.49002 69.3311 4.73269L69.4571 4.20069L71.0811 4.03269V11.1447ZM69.1071 5.85269C68.8925 5.75002 68.6685 5.67069 68.4351 5.61469C68.2111 5.55869 68.0011 5.53069 67.8051 5.53069C67.2358 5.53069 66.8111 5.74536 66.5311 6.17469C66.2511 6.60402 66.1111 7.15469 66.1111 7.82669C66.1111 8.54536 66.2511 9.08669 66.5311 9.45069C66.8205 9.81469 67.2031 9.99669 67.6791 9.99669C67.9031 9.99669 68.1411 9.95936 68.3931 9.88469C68.6451 9.81002 68.8831 9.72136 69.1071 9.61869V5.85269Z" fill="#ACACAC"/>
</svg>
