<svg width="76" height="63" viewBox="0 0 76 63" fill="none" xmlns="http://www.w3.org/2000/svg">
<g clip-path="url(#clip0_619_1053)">
<path d="M68.8029 3.96765H1.30566V63.0511H68.8029V3.96765Z" fill="#B4FFC9"/>
<g filter="url(#filter0_d_619_1053)">
<path d="M73.7095 3.55469H4.55371V59.0198H73.7095V3.55469Z" fill="white" stroke="#078449" stroke-miterlimit="10"/>
<g opacity="0.05">
<path d="M61.0143 40.1727H9.04297V42.0734H61.0143V40.1727Z" fill="black"/>
<path d="M61.0143 43.5162H9.04297V45.4169H61.0143V43.5162Z" fill="black"/>
<path d="M61.0143 46.8597H9.04297V48.7604H61.0143V46.8597Z" fill="black"/>
<path d="M61.0143 50.226H9.04297V52.1268H61.0143V50.226Z" fill="black"/>
</g>
<path d="M33.6449 45.0505H30.6738V53.913H33.6449V45.0505Z" fill="#92E3A9"/>
<path d="M30.3353 41.3864H27.3643V53.8901H30.3353V41.3864Z" fill="#078449"/>
<path d="M27.0267 45.8978H24.0557V53.913H27.0267V45.8978Z" fill="#92E3A9"/>
<path d="M23.7191 50.6611H20.748V53.8901H23.7191V50.6611Z" fill="#078449"/>
<path d="M20.3871 44.3406H17.416V53.8901H20.3871V44.3406Z" fill="#92E3A9"/>
<path d="M17.0775 46.31H14.1064V53.8901H17.0775V46.31Z" fill="#078449"/>
<path d="M13.7699 51.0963H10.7988V53.913H13.7699V51.0963Z" fill="#92E3A9"/>
<path d="M40.5775 45.0505H37.6064V53.913H40.5775V45.0505Z" fill="#078449"/>
<path d="M43.9086 41.3864H40.9375V53.8901H43.9086V41.3864Z" fill="#92E3A9"/>
<path d="M47.2181 45.8978H44.2471V53.913H47.2181V45.8978Z" fill="#078449"/>
<path d="M50.5267 50.6611H47.5557V53.8901H50.5267V50.6611Z" fill="#92E3A9"/>
<path d="M53.8344 44.3406H50.8633V53.8901H53.8344V44.3406Z" fill="#078449"/>
<path d="M57.1429 46.31H54.1719V53.8901H57.1429V46.31Z" fill="#92E3A9"/>
<path d="M60.4525 51.0963H57.4814V53.913H60.4525V51.0963Z" fill="#078449"/>
<path d="M-2.1875 1.21884H2.06654" stroke="white" stroke-miterlimit="10" stroke-linecap="round" stroke-linejoin="round"/>
<path d="M-2.1875 2.38676H2.06654" stroke="white" stroke-miterlimit="10" stroke-linecap="round" stroke-linejoin="round"/>
<path d="M-2.1875 3.5547H2.06654" stroke="white" stroke-miterlimit="10" stroke-linecap="round" stroke-linejoin="round"/>
<path opacity="0.05" d="M61.1281 27.3484H36.3467V37.562H61.1281V27.3484Z" fill="black"/>
<path d="M61.1281 35.7987V37.562H36.3467V31.8827L40.3081 30.7606H45.8901L48.1184 33.646H52.0799L55.186 35.7987H61.1281Z" fill="#92E3A9"/>
<path d="M53.7012 29.2491H59.6433" stroke="#078449" stroke-miterlimit="10" stroke-linecap="round" stroke-linejoin="round"/>
<path d="M55.2308 33.2338V33.7605H54.9607V33.2338H54.1504V32.9819L54.9382 31.1957H55.2533V32.9819H55.4559V33.2338H55.2308ZM54.398 32.959H54.9607V31.6995L54.398 32.959Z" fill="#078449"/>
<path d="M55.9293 32.2262C56.0193 32.0888 56.1318 32.0201 56.3119 32.0201C56.627 32.0201 56.7846 32.272 56.7846 32.6384V33.1422C56.7846 33.5315 56.6045 33.7834 56.2219 33.7834C55.8392 33.7834 55.6592 33.5315 55.6592 33.1422V32.959H55.9293V33.1422C55.9293 33.3712 56.0193 33.5086 56.2219 33.5086C56.4245 33.5086 56.5145 33.3712 56.5145 33.1422V32.6384C56.5145 32.4094 56.4245 32.272 56.2219 32.272C56.0643 32.272 55.9518 32.3636 55.9293 32.5468V32.6155H55.6592L55.7267 31.1957H56.7171V31.4476H55.9743L55.9293 32.2262Z" fill="#078449"/>
<path d="M57.7515 31.585V32.3865C57.7515 32.6384 57.639 32.7987 57.3914 32.7987C57.1438 32.7987 57.0312 32.6384 57.0312 32.3865V31.585C57.0312 31.3331 57.1438 31.1728 57.3914 31.1728C57.639 31.1499 57.7515 31.3331 57.7515 31.585ZM57.2113 31.5621V32.4094C57.2113 32.5468 57.2563 32.6384 57.3914 32.6384C57.5264 32.6384 57.5715 32.5468 57.5715 32.4094V31.5621C57.5715 31.4247 57.5264 31.3331 57.3914 31.3331C57.2563 31.3331 57.2113 31.4247 57.2113 31.5621ZM58.5843 31.1728L57.594 33.7376H57.4139L58.4042 31.1728H58.5843ZM58.9895 32.5239V33.3254C58.9895 33.5773 58.8769 33.7376 58.6293 33.7376C58.3817 33.7376 58.2692 33.5773 58.2692 33.3254V32.5239C58.2692 32.272 58.3817 32.1117 58.6293 32.1117C58.8769 32.1117 58.9895 32.2949 58.9895 32.5239ZM58.4493 32.5239V33.3483C58.4493 33.4857 58.4943 33.5773 58.6293 33.5773C58.7644 33.5773 58.8094 33.4857 58.8094 33.3483V32.5239C58.8094 32.3865 58.7644 32.2949 58.6293 32.2949C58.4943 32.2949 58.4493 32.3865 58.4493 32.5239Z" fill="#078449"/>
<path d="M9.19993 9.14242V7.44778H8.8623V7.26457H9.74012V7.44778H9.4025V9.14242H9.19993Z" fill="#078449"/>
<path d="M10.2801 7.26457C10.5728 7.26457 10.6853 7.42488 10.6853 7.69968V7.85999C10.6853 8.06609 10.6178 8.20349 10.4602 8.2493C10.6178 8.2951 10.6853 8.4325 10.6853 8.63861V8.93631C10.6853 9.02791 10.6853 9.09662 10.7303 9.16532H10.5277C10.5052 9.11952 10.4827 9.07372 10.4827 8.93631V8.63861C10.4827 8.4325 10.3927 8.3638 10.2126 8.3638H10.0776V9.16532H9.875V7.28747H10.2801V7.26457ZM10.2351 8.13479C10.3927 8.13479 10.5052 8.08899 10.5052 7.88289V7.69968C10.5052 7.53938 10.4377 7.44778 10.3027 7.44778H10.1001V8.13479H10.2351Z" fill="#078449"/>
<path d="M11.5629 8.08899V8.27219H11.1127V8.93631H11.6754V9.11951H10.9102V7.24167H11.6754V7.42487H11.1127V8.06609H11.5629V8.08899Z" fill="#078449"/>
<path d="M12.0365 9.14242H11.8564V7.26457H12.1265L12.5542 8.6157V7.26457H12.7343V9.14242H12.5317L12.059 7.63098V9.14242H12.0365Z" fill="#078449"/>
<path d="M13.3642 7.26457C13.6568 7.26457 13.7918 7.44777 13.7918 7.72258V8.6615C13.7918 8.95921 13.6568 9.11951 13.3642 9.11951H12.9365V7.24167H13.3642V7.26457ZM13.3642 8.93631C13.5217 8.93631 13.5893 8.84471 13.5893 8.6615V7.69968C13.5893 7.53938 13.5217 7.42487 13.3642 7.42487H13.1391V8.93631H13.3642Z" fill="#078449"/>
<g opacity="0.3">
<path d="M8.83984 23.0202V22.1041" stroke="black" stroke-width="0.5" stroke-miterlimit="10" stroke-linecap="round" stroke-linejoin="round"/>
<path opacity="0.3" d="M8.61523 19.9744H71.4805" stroke="black" stroke-width="0.5" stroke-miterlimit="10" stroke-linecap="round" stroke-linejoin="round"/>
<path opacity="0.3" d="M8.61523 22.0583H71.4805" stroke="black" stroke-width="0.5" stroke-miterlimit="10" stroke-linecap="round" stroke-linejoin="round"/>
<path opacity="0.3" d="M8.61523 17.982H71.4805" stroke="black" stroke-width="0.5" stroke-miterlimit="10" stroke-linecap="round" stroke-linejoin="round"/>
<path opacity="0.3" d="M8.61523 16.0126H71.4805" stroke="black" stroke-width="0.5" stroke-miterlimit="10" stroke-linecap="round" stroke-linejoin="round"/>
<path opacity="0.3" d="M8.61523 14.0431H71.4805" stroke="black" stroke-width="0.5" stroke-miterlimit="10" stroke-linecap="round" stroke-linejoin="round"/>
<path opacity="0.3" d="M8.61523 12.0508H71.4805" stroke="black" stroke-width="0.5" stroke-miterlimit="10" stroke-linecap="round" stroke-linejoin="round"/>
<path opacity="0.3" d="M8.61523 10.0813H71.4805" stroke="black" stroke-width="0.5" stroke-miterlimit="10" stroke-linecap="round" stroke-linejoin="round"/>
<path opacity="0.3" d="M14.0166 23.0202V22.1041" stroke="black" stroke-width="0.5" stroke-miterlimit="10" stroke-linecap="round" stroke-linejoin="round"/>
<path d="M19.1943 23.0202V22.1041" stroke="black" stroke-width="0.5" stroke-miterlimit="10" stroke-linecap="round" stroke-linejoin="round"/>
<path d="M24.3701 23.0202V22.1041" stroke="black" stroke-width="0.5" stroke-miterlimit="10" stroke-linecap="round" stroke-linejoin="round"/>
<path d="M29.5479 23.0202V22.1041" stroke="black" stroke-width="0.5" stroke-miterlimit="10" stroke-linecap="round" stroke-linejoin="round"/>
<path d="M34.7256 23.0202V22.1041" stroke="black" stroke-width="0.5" stroke-miterlimit="10" stroke-linecap="round" stroke-linejoin="round"/>
<path d="M39.9014 23.0202V22.1041" stroke="black" stroke-width="0.5" stroke-miterlimit="10" stroke-linecap="round" stroke-linejoin="round"/>
<path d="M45.0781 23.0202V22.1041" stroke="black" stroke-width="0.5" stroke-miterlimit="10" stroke-linecap="round" stroke-linejoin="round"/>
<path d="M50.2549 23.0202V22.1041" stroke="black" stroke-width="0.5" stroke-miterlimit="10" stroke-linecap="round" stroke-linejoin="round"/>
<path d="M55.4316 23.0202V22.1041" stroke="black" stroke-width="0.5" stroke-miterlimit="10" stroke-linecap="round" stroke-linejoin="round"/>
<path d="M60.6318 23.0202V22.1041" stroke="black" stroke-width="0.5" stroke-miterlimit="10" stroke-linecap="round" stroke-linejoin="round"/>
<path d="M65.8096 23.0202V22.1041" stroke="black" stroke-width="0.5" stroke-miterlimit="10" stroke-linecap="round" stroke-linejoin="round"/>
<path d="M70.9854 23.0202V22.1041" stroke="black" stroke-width="0.5" stroke-miterlimit="10" stroke-linecap="round" stroke-linejoin="round"/>
</g>
<path d="M70.6707 21.7148V10.4707L70.6932 9.46303L67.362 10.15L63.2205 11.5012L58.1562 12.0508L52.8893 13.6309L47.8925 13.0126L42.243 11.3867L36.796 13.9057L32.5194 12.2798L26.8024 13.0126L22.0306 10.9974L16.5387 18.8294L11.3843 12.5775L8.81836 15.1424V21.7148H70.6707Z" fill="#92E3A9"/>
<path opacity="0.5" d="M70.6707 21.7148V10.4707L70.6932 9.46303L67.362 10.15L63.2205 11.5012L58.1562 12.0508L52.8893 13.6309L47.8925 13.0126L42.243 11.3867L36.796 13.9057L32.5194 12.2798L26.8024 13.0126L22.0306 10.9974L16.5387 18.8294L11.3843 12.5775L8.81836 15.1424V21.7148H70.6707Z" fill="white"/>
<path opacity="0.15" d="M70.7149 21.7148V17.9362V17.4782L67.3612 16.1042L63.2197 15.1424L58.1553 15.692L52.8884 16.6538L47.8916 15.921L42.2421 15.3714L36.7951 15.4859L32.5185 16.7225L26.8015 17.7301L22.0298 16.7225L16.5378 17.2263L11.3834 17.7988L8.885 18.1194H8.77246V21.7148H70.7149Z" fill="black"/>
<path d="M11.3835 18.1423C11.57 18.1423 11.7211 17.9885 11.7211 17.7988C11.7211 17.6091 11.57 17.4553 11.3835 17.4553C11.1971 17.4553 11.0459 17.6091 11.0459 17.7988C11.0459 17.9885 11.1971 18.1423 11.3835 18.1423Z" fill="#078449"/>
<path d="M16.8754 17.2263C16.8754 17.0431 16.7179 16.8828 16.5378 16.8828C16.3578 16.8828 16.2002 17.0431 16.2002 17.2263C16.2002 17.4095 16.3578 17.5698 16.5378 17.5698C16.7179 17.5698 16.8754 17.4095 16.8754 17.2263Z" fill="#078449"/>
<path d="M22.03 17.066C22.2165 17.066 22.3676 16.9122 22.3676 16.7225C22.3676 16.5328 22.2165 16.379 22.03 16.379C21.8435 16.379 21.6924 16.5328 21.6924 16.7225C21.6924 16.9122 21.8435 17.066 22.03 17.066Z" fill="#078449"/>
<path d="M26.8015 18.0736C26.988 18.0736 27.1391 17.9199 27.1391 17.7301C27.1391 17.5404 26.988 17.3866 26.8015 17.3866C26.615 17.3866 26.4639 17.5404 26.4639 17.7301C26.4639 17.9199 26.615 18.0736 26.8015 18.0736Z" fill="#078449"/>
<path d="M32.5193 17.066C32.7057 17.066 32.8569 16.9122 32.8569 16.7225C32.8569 16.5328 32.7057 16.379 32.5193 16.379C32.3328 16.379 32.1816 16.5328 32.1816 16.7225C32.1816 16.9122 32.3328 17.066 32.5193 17.066Z" fill="#078449"/>
<path d="M36.7956 15.8294C36.9821 15.8294 37.1333 15.6756 37.1333 15.4859C37.1333 15.2962 36.9821 15.1424 36.7956 15.1424C36.6092 15.1424 36.458 15.2962 36.458 15.4859C36.458 15.6756 36.6092 15.8294 36.7956 15.8294Z" fill="#078449"/>
<path d="M42.2419 15.7149C42.4284 15.7149 42.5795 15.5611 42.5795 15.3714C42.5795 15.1817 42.4284 15.0279 42.2419 15.0279C42.0555 15.0279 41.9043 15.1817 41.9043 15.3714C41.9043 15.5611 42.0555 15.7149 42.2419 15.7149Z" fill="#078449"/>
<path d="M48.229 15.921C48.229 15.7378 48.0714 15.5775 47.8913 15.5775C47.7113 15.5775 47.5537 15.7378 47.5537 15.921C47.5537 16.1042 47.7113 16.2645 47.8913 16.2645C48.0714 16.2645 48.229 16.1271 48.229 15.921Z" fill="#078449"/>
<path d="M52.8884 16.9973C53.0749 16.9973 53.226 16.8435 53.226 16.6538C53.226 16.4641 53.0749 16.3103 52.8884 16.3103C52.7019 16.3103 52.5508 16.4641 52.5508 16.6538C52.5508 16.8435 52.7019 16.9973 52.8884 16.9973Z" fill="#078449"/>
<path d="M58.155 16.0355C58.3415 16.0355 58.4926 15.8817 58.4926 15.692C58.4926 15.5023 58.3415 15.3485 58.155 15.3485C57.9685 15.3485 57.8174 15.5023 57.8174 15.692C57.8174 15.8817 57.9685 16.0355 58.155 16.0355Z" fill="#078449"/>
<path d="M63.2195 15.4859C63.4059 15.4859 63.5571 15.3321 63.5571 15.1424C63.5571 14.9527 63.4059 14.7989 63.2195 14.7989C63.033 14.7989 62.8818 14.9527 62.8818 15.1424C62.8818 15.3321 63.033 15.4859 63.2195 15.4859Z" fill="#078449"/>
<path d="M67.6987 16.1042C67.6987 15.921 67.5411 15.7607 67.3611 15.7607C67.181 15.7607 67.0234 15.921 67.0234 16.1042C67.0234 16.2874 67.181 16.4477 67.3611 16.4477C67.5636 16.4477 67.6987 16.2874 67.6987 16.1042Z" fill="#078449"/>
<g opacity="0.3">
<path d="M11.3835 12.921C11.57 12.921 11.7211 12.7672 11.7211 12.5775C11.7211 12.3878 11.57 12.234 11.3835 12.234C11.1971 12.234 11.0459 12.3878 11.0459 12.5775C11.0459 12.7672 11.1971 12.921 11.3835 12.921Z" fill="black"/>
<path d="M16.5378 19.1729C16.7243 19.1729 16.8754 19.0191 16.8754 18.8293C16.8754 18.6396 16.7243 18.4858 16.5378 18.4858C16.3514 18.4858 16.2002 18.6396 16.2002 18.8293C16.2002 19.0191 16.3514 19.1729 16.5378 19.1729Z" fill="black"/>
<path d="M22.3676 10.9974C22.3676 10.8142 22.2101 10.6539 22.03 10.6539C21.8499 10.6539 21.6924 10.8142 21.6924 10.9974C21.6924 11.1806 21.8499 11.3409 22.03 11.3409C22.2101 11.318 22.3676 11.1806 22.3676 10.9974Z" fill="black"/>
<path d="M26.8015 13.3561C26.988 13.3561 27.1391 13.2023 27.1391 13.0126C27.1391 12.8229 26.988 12.6691 26.8015 12.6691C26.615 12.6691 26.4639 12.8229 26.4639 13.0126C26.4639 13.2023 26.615 13.3561 26.8015 13.3561Z" fill="black"/>
<path d="M32.8569 12.2798C32.8569 12.0966 32.6993 11.9363 32.5193 11.9363C32.3392 11.9363 32.1816 12.0966 32.1816 12.2798C32.1816 12.463 32.3392 12.6233 32.5193 12.6233C32.6993 12.6233 32.8569 12.463 32.8569 12.2798Z" fill="black"/>
<path d="M36.7956 14.1347C36.9821 14.1347 37.1333 13.9809 37.1333 13.7912C37.1333 13.6015 36.9821 13.4477 36.7956 13.4477C36.6092 13.4477 36.458 13.6015 36.458 13.7912C36.458 13.9809 36.6092 14.1347 36.7956 14.1347Z" fill="black"/>
<path d="M42.2419 11.7302C42.4284 11.7302 42.5795 11.5764 42.5795 11.3867C42.5795 11.197 42.4284 11.0432 42.2419 11.0432C42.0555 11.0432 41.9043 11.197 41.9043 11.3867C41.9043 11.5764 42.0555 11.7302 42.2419 11.7302Z" fill="black"/>
<path d="M47.8913 13.3561C48.0778 13.3561 48.229 13.2023 48.229 13.0126C48.229 12.8229 48.0778 12.6691 47.8913 12.6691C47.7049 12.6691 47.5537 12.8229 47.5537 13.0126C47.5537 13.2023 47.7049 13.3561 47.8913 13.3561Z" fill="black"/>
<path d="M52.8884 13.9744C53.0749 13.9744 53.226 13.8206 53.226 13.6309C53.226 13.4412 53.0749 13.2874 52.8884 13.2874C52.7019 13.2874 52.5508 13.4412 52.5508 13.6309C52.5508 13.8206 52.7019 13.9744 52.8884 13.9744Z" fill="black"/>
<path d="M58.155 12.3943C58.3415 12.3943 58.4926 12.2405 58.4926 12.0508C58.4926 11.8611 58.3415 11.7073 58.155 11.7073C57.9685 11.7073 57.8174 11.8611 57.8174 12.0508C57.8174 12.2405 57.9685 12.3943 58.155 12.3943Z" fill="black"/>
<path d="M63.2195 11.8447C63.4059 11.8447 63.5571 11.6909 63.5571 11.5012C63.5571 11.3115 63.4059 11.1577 63.2195 11.1577C63.033 11.1577 62.8818 11.3115 62.8818 11.5012C62.8818 11.6909 63.033 11.8447 63.2195 11.8447Z" fill="black"/>
<path d="M67.3611 10.4936C67.5475 10.4936 67.6987 10.3398 67.6987 10.15C67.6987 9.96033 67.5475 9.80653 67.3611 9.80653C67.1746 9.80653 67.0234 9.96033 67.0234 10.15C67.0234 10.3398 67.1746 10.4936 67.3611 10.4936Z" fill="black"/>
</g>
<path d="M66.6409 8.63861V9.16533H66.3708V8.63861H65.5605V8.38671L66.3483 6.60046H66.6634V8.38671H66.866V8.63861H66.6409ZM65.8081 8.36381H66.3708V7.10428L65.8081 8.36381Z" fill="#078449"/>
<path d="M67.3394 7.63099C67.4295 7.49359 67.542 7.42488 67.7221 7.42488C68.0372 7.42488 68.1947 7.67679 68.1947 8.0432V8.54701C68.1947 8.93632 68.0147 9.18823 67.632 9.18823C67.2494 9.18823 67.0693 8.93632 67.0693 8.54701V8.36381H67.3394V8.54701C67.3394 8.77602 67.4295 8.91342 67.632 8.91342C67.8346 8.91342 67.9246 8.77602 67.9246 8.54701V8.0432C67.9246 7.81419 67.8346 7.67679 67.632 7.67679C67.4745 7.67679 67.3619 7.76839 67.3394 7.9516V8.0203H67.0693L67.1369 6.60046H68.1272V6.85237H67.3844L67.3394 7.63099Z" fill="#078449"/>
<path d="M69.1617 6.98977V7.79129C69.1617 8.0432 69.0491 8.2035 68.8015 8.2035C68.5539 8.2035 68.4414 8.0432 68.4414 7.79129V6.98977C68.4414 6.73786 68.5539 6.57756 68.8015 6.57756C69.0266 6.57756 69.1617 6.73786 69.1617 6.98977ZM68.6215 6.96687V7.81419C68.6215 7.95159 68.6665 8.0432 68.8015 8.0432C68.9366 8.0432 68.9816 7.95159 68.9816 7.81419V6.96687C68.9816 6.82947 68.9366 6.73786 68.8015 6.73786C68.6665 6.73786 68.6215 6.82947 68.6215 6.96687ZM69.9945 6.57756L69.0041 9.14242H68.824L69.8144 6.57756H69.9945ZM70.3996 7.95159V8.75311C70.3996 9.00502 70.2871 9.16532 70.0395 9.16532C69.7919 9.16532 69.6794 9.00502 69.6794 8.75311V7.95159C69.6794 7.69969 69.7919 7.53938 70.0395 7.53938C70.2871 7.53938 70.3996 7.69969 70.3996 7.95159ZM69.8594 7.92869V8.75311C69.8594 8.89052 69.9044 8.98212 70.0395 8.98212C70.1745 8.98212 70.2195 8.89052 70.2195 8.75311V7.92869C70.2195 7.79129 70.1745 7.69969 70.0395 7.69969C69.9044 7.69969 69.8594 7.79129 69.8594 7.92869Z" fill="#078449"/>
<path d="M66.7543 18.3713C66.7543 19.15 65.899 19.4248 65.899 20.0202V20.066H66.7318V20.3179H65.6289V20.0889C65.6289 19.2645 66.4842 19.1042 66.4842 18.3713C66.4842 18.0965 66.3942 17.9591 66.1916 17.9591C65.989 17.9591 65.899 18.1194 65.899 18.3255V18.5545H65.6289V18.3484C65.6289 17.9591 65.809 17.6843 66.1916 17.6843C66.5742 17.7301 66.7543 17.982 66.7543 18.3713Z" fill="#078449"/>
<path d="M66.9795 18.3713C66.9795 17.982 67.1596 17.7301 67.5647 17.7301C67.9473 17.7301 68.1499 17.982 68.1499 18.3713V19.6996C68.1499 20.0889 67.9699 20.3408 67.5647 20.3408C67.1821 20.3408 66.9795 20.0889 66.9795 19.6996V18.3713ZM67.2496 19.7225C67.2496 19.9515 67.3396 20.0889 67.5422 20.0889C67.7448 20.0889 67.8348 19.9515 67.8348 19.7225V18.3713C67.8348 18.1423 67.7448 18.0049 67.5422 18.0049C67.3396 18.0049 67.2496 18.1423 67.2496 18.3713V19.7225Z" fill="#078449"/>
<path d="M69.1177 18.1423V18.9439C69.1177 19.1958 69.0052 19.3561 68.7576 19.3561C68.51 19.3561 68.3975 19.1958 68.3975 18.9439V18.1423C68.3975 17.8904 68.51 17.7301 68.7576 17.7301C69.0052 17.7301 69.1177 17.9133 69.1177 18.1423ZM68.5775 18.1423V18.9897C68.5775 19.1271 68.6225 19.2187 68.7576 19.2187C68.8926 19.2187 68.9377 19.1271 68.9377 18.9897V18.1423C68.9377 18.0049 68.8926 17.9133 68.7576 17.9133C68.6225 17.9133 68.5775 18.0049 68.5775 18.1423ZM69.9505 17.753L68.9602 20.3179H68.7801L69.7705 17.753H69.9505ZM70.3557 19.1042V19.9057C70.3557 20.1576 70.2431 20.3179 69.9955 20.3179C69.748 20.3179 69.6354 20.1576 69.6354 19.9057V19.1042C69.6354 18.8523 69.748 18.692 69.9955 18.692C70.2431 18.692 70.3557 18.8523 70.3557 19.1042ZM69.8155 19.1042V19.9286C69.8155 20.066 69.8605 20.1576 69.9955 20.1576C70.1306 20.1576 70.1756 20.066 70.1756 19.9286V19.1042C70.1756 18.9668 70.1306 18.8752 69.9955 18.8752C69.8605 18.8752 69.8155 18.9668 69.8155 19.1042Z" fill="#078449"/>
<path d="M26.3979 28.8369H24.7773V30.4857H26.3979V28.8369Z" fill="#078449"/>
<path d="M27.4111 29.6613H34.051" stroke="#078449" stroke-miterlimit="10" stroke-linejoin="round"/>
<path d="M26.3979 31.8369H24.7773V33.4857H26.3979V31.8369Z" fill="#92E3A9"/>
<path d="M27.4111 32.6613H34.051" stroke="#078449" stroke-miterlimit="10" stroke-linejoin="round"/>
<path d="M26.3979 34.8369H24.7773V36.4857H26.3979V34.8369Z" fill="#7D7D7D"/>
<path d="M27.4111 35.6613H34.051" stroke="#078449" stroke-miterlimit="10" stroke-linejoin="round"/>
<path d="M17.9355 37.5849C20.0288 36.6918 21.4918 34.5849 21.4918 32.1346C21.4918 30.7148 20.9967 29.4323 20.1864 28.4247" stroke="#92E3A9" stroke-width="7" stroke-miterlimit="10" stroke-linejoin="round"/>
<path d="M10.7998 35.3865C11.8352 36.9895 13.6358 38.0658 15.6616 38.0658C16.4719 38.0658 17.2371 37.9055 17.9124 37.6078" stroke="#7D7D7D" stroke-width="7" stroke-miterlimit="10" stroke-linejoin="round"/>
<path d="M20.1857 28.4247C19.1278 27.0965 17.4848 26.2262 15.6616 26.2262C12.4429 26.2262 9.85449 28.8827 9.85449 32.1346C9.85449 33.3254 10.1921 34.4475 10.7998 35.3636" stroke="#078449" stroke-width="7" stroke-miterlimit="10" stroke-linejoin="round"/>
<path d="M13.208 31.4934H18.2948" stroke="#078449" stroke-miterlimit="10" stroke-linejoin="round"/>
<path d="M13.208 33.0277H18.2948" stroke="#078449" stroke-miterlimit="10" stroke-linejoin="round"/>
<path d="M64.0752 30.9896H70.7601" stroke="#078449" stroke-miterlimit="10" stroke-linecap="round" stroke-linejoin="round"/>
<path d="M64.0752 31.7682H70.7601" stroke="#078449" stroke-miterlimit="10" stroke-linecap="round" stroke-linejoin="round"/>
<path d="M70.2207 27.3484C69.748 26.6843 69.1853 26.272 68.4201 26.0201C67.6548 25.7682 66.957 25.7682 66.1918 26.0201C65.4265 26.272 64.8638 26.7072 64.3911 27.3484C63.9184 28.0125 63.6934 28.6995 63.6934 29.501H67.2947H70.896C70.9185 28.6995 70.6934 28.0125 70.2207 27.3484Z" fill="#92E3A9"/>
<path d="M67.3164 29.501L70.22 27.3484C70.6926 28.0125 70.9177 28.6995 70.9177 29.501H67.3164Z" stroke="white" stroke-width="0.5" stroke-miterlimit="10" stroke-linecap="round" stroke-linejoin="round"/>
<path d="M67.3164 29.501L68.4193 26.0201C69.1846 26.272 69.7473 26.7072 70.22 27.3484L67.3164 29.501Z" stroke="white" stroke-width="0.5" stroke-miterlimit="10" stroke-linecap="round" stroke-linejoin="round"/>
<path d="M67.3168 29.501L66.2139 26.0201C66.9791 25.7682 67.6769 25.7682 68.4422 26.0201L67.3168 29.501Z" stroke="white" stroke-width="0.5" stroke-miterlimit="10" stroke-linecap="round" stroke-linejoin="round"/>
<path d="M67.3176 29.501L64.4141 27.3484C64.8867 26.6843 65.4494 26.272 66.2147 26.0201L67.3176 29.501Z" stroke="white" stroke-width="0.5" stroke-miterlimit="10" stroke-linecap="round" stroke-linejoin="round"/>
<path d="M67.3171 29.501H63.7158C63.7158 28.6995 63.9409 28.0125 64.4136 27.3484L67.3171 29.501Z" stroke="white" stroke-width="0.5" stroke-miterlimit="10" stroke-linecap="round" stroke-linejoin="round"/>
<path d="M67.745 29.501C67.745 29.2491 67.5424 29.0659 67.3173 29.0659C67.0697 29.0659 66.8896 29.272 66.8896 29.501C66.8896 29.7529 67.0922 29.9361 67.3173 29.9361C67.5649 29.9361 67.745 29.7529 67.745 29.501Z" fill="#078449"/>
<path d="M67.3174 29.501L68.8029 27.3026" stroke="#078449" stroke-miterlimit="10" stroke-linecap="round" stroke-linejoin="round"/>
<path d="M64.0752 38.3177H70.7601" stroke="#078449" stroke-miterlimit="10" stroke-linecap="round" stroke-linejoin="round"/>
<path d="M64.0752 39.0964H70.7601" stroke="#078449" stroke-miterlimit="10" stroke-linecap="round" stroke-linejoin="round"/>
<path d="M70.2207 34.6766C69.748 34.0124 69.1853 33.6002 68.4201 33.3483C67.6548 33.0964 66.957 33.0964 66.1918 33.3483C65.4265 33.6002 64.8638 34.0124 64.3911 34.6766C63.9184 35.3407 63.6934 36.0277 63.6934 36.8292H67.2947H70.896C70.9185 36.0277 70.6934 35.3407 70.2207 34.6766Z" fill="#92E3A9"/>
<path d="M67.3164 36.8292L70.22 34.6766C70.6926 35.3407 70.9177 36.0277 70.9177 36.8292H67.3164Z" stroke="white" stroke-width="0.5" stroke-miterlimit="10" stroke-linecap="round" stroke-linejoin="round"/>
<path d="M67.3164 36.8292L68.4193 33.3483C69.1846 33.6002 69.7473 34.0124 70.22 34.6766L67.3164 36.8292Z" stroke="white" stroke-width="0.5" stroke-miterlimit="10" stroke-linecap="round" stroke-linejoin="round"/>
<path d="M67.3168 36.8292L66.2139 33.3483C66.9791 33.0964 67.6769 33.0964 68.4422 33.3483L67.3168 36.8292Z" stroke="white" stroke-width="0.5" stroke-miterlimit="10" stroke-linecap="round" stroke-linejoin="round"/>
<path d="M67.3176 36.8292L64.4141 34.6766C64.8867 34.0124 65.4494 33.6002 66.2147 33.3483L67.3176 36.8292Z" stroke="white" stroke-width="0.5" stroke-miterlimit="10" stroke-linecap="round" stroke-linejoin="round"/>
<path d="M67.3171 36.8292H63.7158C63.7158 36.0277 63.9409 35.3407 64.4136 34.6765L67.3171 36.8292Z" stroke="white" stroke-width="0.5" stroke-miterlimit="10" stroke-linecap="round" stroke-linejoin="round"/>
<path d="M67.745 36.8292C67.745 36.5773 67.5424 36.3941 67.3173 36.3941C67.0697 36.3941 66.8896 36.6002 66.8896 36.8292C66.8896 37.0811 67.0922 37.2643 67.3173 37.2643C67.5649 37.2643 67.745 37.0811 67.745 36.8292Z" fill="#078449"/>
<path d="M67.3175 36.8292L65.877 34.7453" stroke="#078449" stroke-miterlimit="10" stroke-linecap="round" stroke-linejoin="round"/>
<path d="M70.558 45.6459H63.873" stroke="#078449" stroke-miterlimit="10" stroke-linecap="round" stroke-linejoin="round"/>
<path d="M70.558 46.4245H63.873" stroke="#078449" stroke-miterlimit="10" stroke-linecap="round" stroke-linejoin="round"/>
<path d="M64.4141 42.0047C64.8868 41.3406 65.4495 40.9284 66.2147 40.6765C66.98 40.4246 67.6778 40.4246 68.443 40.6765C69.2083 40.9284 69.771 41.3635 70.2437 42.0047C70.7164 42.6689 70.9414 43.3559 70.9414 44.1574H67.3401H63.7388C63.7163 43.3559 63.9414 42.6689 64.4141 42.0047Z" fill="#92E3A9"/>
<path d="M67.3171 44.1574L64.4136 42.0047C63.9409 42.6689 63.7158 43.3559 63.7158 44.1574H67.3171Z" stroke="white" stroke-width="0.5" stroke-miterlimit="10" stroke-linecap="round" stroke-linejoin="round"/>
<path d="M67.3176 44.1574L66.2147 40.6765C65.4494 40.9284 64.8867 41.3635 64.4141 42.0047L67.3176 44.1574Z" stroke="white" stroke-width="0.5" stroke-miterlimit="10" stroke-linecap="round" stroke-linejoin="round"/>
<path d="M67.3168 44.1574L68.4197 40.6765C67.6544 40.4246 66.9567 40.4246 66.1914 40.6765L67.3168 44.1574Z" stroke="white" stroke-width="0.5" stroke-miterlimit="10" stroke-linecap="round" stroke-linejoin="round"/>
<path d="M67.3164 44.1574L70.22 42.0047C69.7473 41.3406 69.1846 40.9284 68.4193 40.6765L67.3164 44.1574Z" stroke="white" stroke-width="0.5" stroke-miterlimit="10" stroke-linecap="round" stroke-linejoin="round"/>
<path d="M67.3164 44.1574H70.9177C70.9177 43.3559 70.6926 42.6689 70.22 42.0047L67.3164 44.1574Z" stroke="white" stroke-width="0.5" stroke-miterlimit="10" stroke-linecap="round" stroke-linejoin="round"/>
<path d="M66.8896 44.1574C66.8896 43.9055 67.0922 43.7223 67.3173 43.7223C67.5649 43.7223 67.745 43.9284 67.745 44.1574C67.745 44.4093 67.5424 44.5925 67.3173 44.5925C67.0697 44.5925 66.8896 44.4093 66.8896 44.1574Z" fill="#078449"/>
<path d="M67.3171 44.1574L64.6611 43.0811" stroke="#078449" stroke-miterlimit="10" stroke-linecap="round" stroke-linejoin="round"/>
<path d="M64.0752 52.9741H70.7601" stroke="#078449" stroke-miterlimit="10" stroke-linecap="round" stroke-linejoin="round"/>
<path d="M64.0752 53.7527H70.7601" stroke="#078449" stroke-miterlimit="10" stroke-linecap="round" stroke-linejoin="round"/>
<path d="M70.2207 49.3329C69.748 48.6688 69.1853 48.2566 68.4201 48.0047C67.6548 47.7528 66.957 47.7528 66.1918 48.0047C65.4265 48.2566 64.8638 48.6917 64.3911 49.3329C63.9184 49.997 63.6934 50.684 63.6934 51.4856H67.2947H70.896C70.9185 50.684 70.6934 49.997 70.2207 49.3329Z" fill="#92E3A9"/>
<path d="M67.3164 51.4856L70.22 49.3329C70.6926 49.997 70.9177 50.6841 70.9177 51.4856H67.3164Z" stroke="white" stroke-width="0.5" stroke-miterlimit="10" stroke-linecap="round" stroke-linejoin="round"/>
<path d="M67.3164 51.4856L68.4193 48.0047C69.1846 48.2566 69.7473 48.6917 70.22 49.3329L67.3164 51.4856Z" stroke="white" stroke-width="0.5" stroke-miterlimit="10" stroke-linecap="round" stroke-linejoin="round"/>
<path d="M67.3168 51.4856L66.2139 48.0047C66.9791 47.7528 67.6769 47.7528 68.4422 48.0047L67.3168 51.4856Z" stroke="white" stroke-width="0.5" stroke-miterlimit="10" stroke-linecap="round" stroke-linejoin="round"/>
<path d="M67.3176 51.4856L64.4141 49.3329C64.8867 48.6688 65.4494 48.2566 66.2147 48.0047L67.3176 51.4856Z" stroke="white" stroke-width="0.5" stroke-miterlimit="10" stroke-linecap="round" stroke-linejoin="round"/>
<path d="M67.3171 51.4856H63.7158C63.7158 50.6841 63.9409 49.997 64.4136 49.3329L67.3171 51.4856Z" stroke="white" stroke-width="0.5" stroke-miterlimit="10" stroke-linecap="round" stroke-linejoin="round"/>
<path d="M67.745 51.4856C67.745 51.2337 67.5424 51.0504 67.3173 51.0504C67.0697 51.0504 66.8896 51.2566 66.8896 51.4856C66.8896 51.7375 67.0922 51.9207 67.3173 51.9207C67.5649 51.9207 67.745 51.7375 67.745 51.4856Z" fill="#078449"/>
<path d="M67.3174 51.4856H64.0537" stroke="#078449" stroke-miterlimit="10" stroke-linecap="round" stroke-linejoin="round"/>
<path d="M55.5677 0.783726C55.8603 0.829528 55.9954 1.05853 55.9954 1.37914V1.44784H55.7478V1.35624C55.7478 1.15014 55.6578 1.01273 55.4777 1.01273C55.2976 1.01273 55.2076 1.15014 55.2076 1.35624C55.2076 1.90585 56.0179 1.90585 56.0179 2.59287C56.0179 2.91348 55.8828 3.16538 55.5902 3.18828V3.37149H55.3652V3.21119C55.0725 3.16538 54.9375 2.93638 54.9375 2.61577V2.45547H55.1851V2.61577C55.1851 2.84478 55.2751 2.95928 55.4777 2.95928C55.6803 2.95928 55.7703 2.82188 55.7703 2.61577C55.7703 2.06616 54.96 2.06616 54.96 1.37914C54.96 1.03563 55.0951 0.829528 55.3877 0.783726V0.577621H55.6127V0.783726H55.5677Z" fill="white"/>
<path d="M57.3226 1.35625V1.42495C57.3226 1.67685 57.2325 1.86006 57.03 1.92876C57.2325 1.99746 57.3226 2.18067 57.3226 2.43257V2.61578C57.3226 2.98219 57.1425 3.23409 56.7824 3.23409C56.4223 3.23409 56.2422 2.98219 56.2422 2.61578V2.45547H56.4898V2.63868C56.4898 2.86768 56.5798 2.98219 56.7824 2.98219C56.985 2.98219 57.075 2.84478 57.075 2.59288V2.40967C57.075 2.15777 56.985 2.04326 56.7824 2.04326H56.6473V1.81426H56.8049C56.985 1.81426 57.0975 1.69975 57.0975 1.47075V1.35625C57.0975 1.10434 57.0075 0.966936 56.8049 0.966936C56.6023 0.966936 56.5123 1.10434 56.5123 1.33334V1.47075H56.2647V1.35625C56.2647 0.989837 56.4448 0.73793 56.8049 0.73793C57.165 0.73793 57.3226 0.989837 57.3226 1.35625Z" fill="white"/>
<path d="M58.6742 1.35625C58.6742 2.08906 57.8639 2.36387 57.8639 2.91348V2.95928H58.6517V3.21119H57.5938V3.00509C57.5938 2.20357 58.4041 2.06616 58.4041 1.37915C58.4041 1.12724 58.3141 0.989837 58.1115 0.989837C57.9089 0.989837 57.8189 1.12724 57.8189 1.35625V1.56235H57.5713V1.35625C57.5713 0.989837 57.7288 0.73793 58.1115 0.73793C58.5166 0.73793 58.6742 0.989837 58.6742 1.35625Z" fill="white"/>
<path d="M59.0344 3.21118H58.9443V2.86768H59.1919V3.18828L59.0569 3.53179H58.9443L59.0344 3.21118Z" fill="white"/>
<path d="M59.7545 1.76844C59.822 1.63104 59.957 1.56234 60.1146 1.56234C60.4297 1.56234 60.5648 1.79134 60.5648 2.13485V2.61576C60.5648 2.98217 60.3847 3.23408 60.0246 3.23408C59.6644 3.23408 59.4844 2.98217 59.4844 2.61576V2.45546H59.732V2.63866C59.732 2.86767 59.822 2.98217 60.0246 2.98217C60.2271 2.98217 60.3172 2.84477 60.3172 2.63866V2.15775C60.3172 1.92875 60.2271 1.81424 60.0246 1.81424C59.867 1.81424 59.777 1.90585 59.7545 2.06615V2.11195H59.5069L59.5744 0.760818H60.5197V1.01272H59.822L59.7545 1.76844Z" fill="white"/>
<path d="M61.8929 1.35625V1.40205H61.6453V1.33334C61.6453 1.10434 61.5553 0.989837 61.3527 0.989837C61.1502 0.989837 61.0601 1.12724 61.0601 1.37915V1.92876C61.1277 1.76846 61.2627 1.67685 61.4428 1.67685C61.7579 1.67685 61.8929 1.90586 61.8929 2.24937V2.61578C61.8929 2.98219 61.7129 3.23409 61.3527 3.23409C60.9701 3.23409 60.79 2.98219 60.79 2.61578V1.37915C60.79 0.989836 60.9701 0.73793 61.3527 0.73793C61.7129 0.73793 61.8929 0.966936 61.8929 1.35625ZM61.0601 2.27227V2.63868C61.0601 2.86768 61.1502 2.98219 61.3527 2.98219C61.5553 2.98219 61.6453 2.84478 61.6453 2.63868V2.27227C61.6453 2.04326 61.5553 1.92876 61.3527 1.92876C61.1502 1.90586 61.0601 2.04326 61.0601 2.27227Z" fill="white"/>
<path d="M63.2201 1.35625V2.61578C63.2201 3.00509 63.04 3.25699 62.6574 3.25699C62.2973 3.25699 62.1172 3.00509 62.1172 2.63868V2.59288H62.3648V2.66158C62.3648 2.89058 62.4548 3.00509 62.6574 3.00509C62.86 3.00509 62.95 2.86768 62.95 2.61578V2.06616C62.8825 2.22647 62.7474 2.31807 62.5674 2.31807C62.2522 2.31807 62.1172 2.08906 62.1172 1.74556V1.35625C62.1172 0.989837 62.2973 0.73793 62.6574 0.73793C63.04 0.73793 63.2201 0.989837 63.2201 1.35625ZM62.3873 1.33334V1.69975C62.3873 1.92876 62.4773 2.04326 62.6799 2.04326C62.8825 2.04326 62.9725 1.90586 62.9725 1.69975V1.33334C62.9725 1.10434 62.8825 0.989837 62.6799 0.989837C62.4773 0.989837 62.3873 1.12724 62.3873 1.33334Z" fill="white"/>
<path d="M63.6027 3.21118H63.5127V2.86768H63.7603V3.18828L63.6252 3.53179H63.5127L63.6027 3.21118Z" fill="white"/>
<path d="M65.1332 1.33334V1.40205C65.1332 1.65395 65.0432 1.83716 64.8631 1.90586C65.0657 1.99746 65.1332 2.18067 65.1332 2.43257V2.61578C65.1332 3.00509 64.9306 3.23409 64.5705 3.23409C64.1879 3.23409 64.0078 3.00509 64.0078 2.61578V2.43257C64.0078 2.18067 64.0753 1.99746 64.2779 1.90586C64.0753 1.83716 64.0078 1.65395 64.0078 1.40205V1.33334C64.0078 0.944035 64.2104 0.73793 64.5705 0.73793C64.9532 0.73793 65.1332 0.966936 65.1332 1.33334ZM64.2779 1.35625V1.47075C64.2779 1.69975 64.3905 1.81426 64.5705 1.81426C64.7506 1.81426 64.8631 1.69975 64.8631 1.47075V1.35625C64.8631 1.10434 64.7506 0.989837 64.5705 0.989837C64.3905 0.989837 64.2779 1.10434 64.2779 1.35625ZM64.2779 2.40967V2.61578C64.2779 2.86768 64.3905 2.98219 64.5705 2.98219C64.7731 2.98219 64.8631 2.86768 64.8631 2.61578V2.40967C64.8631 2.18067 64.7506 2.06616 64.5705 2.06616C64.3679 2.06616 64.2779 2.18067 64.2779 2.40967Z" fill="white"/>
<path d="M66.4623 1.35625V2.61578C66.4623 3.00509 66.2822 3.25699 65.8996 3.25699C65.5394 3.25699 65.3594 3.00509 65.3594 2.63868V2.59288H65.607V2.66158C65.607 2.89058 65.697 3.00509 65.8996 3.00509C66.1021 3.00509 66.1922 2.86768 66.1922 2.61578V2.06616C66.1247 2.22647 65.9896 2.31807 65.8095 2.31807C65.4944 2.31807 65.3594 2.08906 65.3594 1.74556V1.35625C65.3594 0.989837 65.5394 0.73793 65.8996 0.73793C66.2822 0.73793 66.4623 0.989837 66.4623 1.35625ZM65.6295 1.33334V1.69975C65.6295 1.92876 65.7195 2.04326 65.9221 2.04326C66.1247 2.04326 66.2147 1.90586 66.2147 1.69975V1.33334C66.2147 1.10434 66.1247 0.989837 65.9221 0.989837C65.7195 0.989837 65.6295 1.12724 65.6295 1.33334Z" fill="white"/>
<path d="M67.7904 1.35625V1.42495C67.7904 1.67685 67.7003 1.86006 67.4977 1.92876C67.7003 1.99746 67.7904 2.18067 67.7904 2.43257V2.61578C67.7904 2.98219 67.6103 3.23409 67.2502 3.23409C66.89 3.23409 66.71 2.98219 66.71 2.61578V2.45547H66.9576V2.63868C66.9576 2.86768 67.0476 2.98219 67.2502 2.98219C67.4527 2.98219 67.5428 2.84478 67.5428 2.59288V2.40967C67.5428 2.15777 67.4527 2.04326 67.2502 2.04326H67.1151V1.81426H67.2727C67.4527 1.81426 67.5653 1.69975 67.5653 1.47075V1.35625C67.5653 1.10434 67.4752 0.966936 67.2727 0.966936C67.0701 0.966936 66.9801 1.10434 66.9801 1.33334V1.47075H66.7325V1.35625C66.7325 0.989837 66.9125 0.73793 67.2727 0.73793C67.6328 0.73793 67.7904 0.989837 67.7904 1.35625Z" fill="white"/>
<path d="M68.3072 2.86768V3.21118H68.0596V2.86768H68.3072Z" fill="white"/>
<path d="M68.5771 1.35625C68.5771 0.989837 68.7572 0.73793 69.1173 0.73793C69.5 0.73793 69.68 0.989837 69.68 1.35625V2.61578C69.68 2.98219 69.5 3.23409 69.1173 3.23409C68.7572 3.23409 68.5771 2.98219 68.5771 2.61578V1.35625ZM68.8247 2.63868C68.8247 2.86768 68.9148 2.98219 69.1173 2.98219C69.3199 2.98219 69.4099 2.84478 69.4099 2.63868V1.33334C69.4099 1.10434 69.3199 0.966936 69.1173 0.966936C68.9148 0.966936 68.8247 1.10434 68.8247 1.33334V2.63868Z" fill="white"/>
<path d="M71.0091 1.35625V1.42495C71.0091 1.67685 70.9191 1.86006 70.7165 1.92876C70.9191 1.99746 71.0091 2.18067 71.0091 2.43257V2.61578C71.0091 2.98219 70.829 3.23409 70.4689 3.23409C70.1088 3.23409 69.9287 2.98219 69.9287 2.61578V2.45547H70.1763V2.63868C70.1763 2.86768 70.2663 2.98219 70.4689 2.98219C70.6715 2.98219 70.7615 2.84478 70.7615 2.59288V2.40967C70.7615 2.15777 70.6715 2.04326 70.4689 2.04326H70.3339V1.81426H70.4914C70.6715 1.81426 70.784 1.69975 70.784 1.47075V1.35625C70.784 1.10434 70.694 0.966936 70.4914 0.966936C70.2888 0.966936 70.1988 1.10434 70.1988 1.33334V1.47075H69.9512V1.35625C69.9512 0.989837 70.1313 0.73793 70.4914 0.73793C70.829 0.73793 71.0091 0.989837 71.0091 1.35625Z" fill="white"/>
</g>
</g>
<defs>
<filter id="filter0_d_619_1053" x="-6.6875" y="0.577621" width="84.8975" height="66.9422" filterUnits="userSpaceOnUse" color-interpolation-filters="sRGB">
<feFlood flood-opacity="0" result="BackgroundImageFix"/>
<feColorMatrix in="SourceAlpha" type="matrix" values="0 0 0 0 0 0 0 0 0 0 0 0 0 0 0 0 0 0 127 0" result="hardAlpha"/>
<feOffset dy="4"/>
<feGaussianBlur stdDeviation="2"/>
<feComposite in2="hardAlpha" operator="out"/>
<feColorMatrix type="matrix" values="0 0 0 0 0 0 0 0 0 0 0 0 0 0 0 0 0 0 0.1 0"/>
<feBlend mode="normal" in2="BackgroundImageFix" result="effect1_dropShadow_619_1053"/>
<feBlend mode="normal" in="SourceGraphic" in2="effect1_dropShadow_619_1053" result="shape"/>
</filter>
<clipPath id="clip0_619_1053">
<rect width="75" height="63" fill="white" transform="translate(0.894531)"/>
</clipPath>
</defs>
</svg>
