<svg width="273" height="222" viewBox="0 0 273 222" fill="none" xmlns="http://www.w3.org/2000/svg">
<path d="M174.884 14.5C174.786 14.5005 174.688 14.4812 174.597 14.4435C174.506 14.4057 174.424 14.3501 174.354 14.28L170.884 10.78C170.793 10.639 170.752 10.4715 170.767 10.3042C170.782 10.1369 170.853 9.97952 170.968 9.85732C171.083 9.73513 171.236 9.65517 171.403 9.63027C171.569 9.60537 171.738 9.63697 171.884 9.72L174.884 12.72L177.884 9.72C178.03 9.63697 178.2 9.60537 178.366 9.63027C178.532 9.65517 178.685 9.73513 178.801 9.85732C178.916 9.97952 178.987 10.1369 179.002 10.3042C179.017 10.4715 178.976 10.639 178.884 10.78L175.384 14.28C175.252 14.4144 175.073 14.4931 174.884 14.5Z" fill="#868686"/>
<path d="M93.5218 16.5H92.2198V8.73L89.1958 13.392H88.5098L85.4858 8.73V16.5H84.1978V6.602H85.6118L88.9018 11.754L92.1918 6.602H93.5218V16.5ZM99.831 15.352C100.102 15.212 100.326 15.0253 100.503 14.792C100.68 14.5493 100.811 14.2647 100.895 13.938C100.979 13.6113 101.021 13.2567 101.021 12.874C101.021 12.5007 100.979 12.1507 100.895 11.824C100.811 11.4973 100.68 11.2173 100.503 10.984C100.326 10.7413 100.102 10.55 99.831 10.41C99.5603 10.27 99.2383 10.2 98.865 10.2C98.4823 10.2 98.1557 10.27 97.885 10.41C97.6143 10.55 97.3857 10.7413 97.199 10.984C97.0217 11.2173 96.891 11.4973 96.807 11.824C96.723 12.1507 96.681 12.5007 96.681 12.874C96.681 13.2567 96.723 13.6113 96.807 13.938C96.891 14.2647 97.0217 14.5493 97.199 14.792C97.3857 15.0253 97.6143 15.212 97.885 15.352C98.1557 15.492 98.4823 15.562 98.865 15.562C99.2383 15.562 99.5603 15.492 99.831 15.352ZM101.399 15.604C101.119 15.9307 100.764 16.1873 100.335 16.374C99.915 16.5513 99.425 16.64 98.865 16.64C98.305 16.64 97.8103 16.5513 97.381 16.374C96.961 16.1873 96.6017 15.9307 96.303 15.604C96.0137 15.268 95.7943 14.8713 95.645 14.414C95.4957 13.9473 95.421 13.434 95.421 12.874C95.421 12.3233 95.4957 11.8193 95.645 11.362C95.7943 10.8953 96.0137 10.4987 96.303 10.172C96.6017 9.836 96.961 9.57933 97.381 9.402C97.8103 9.21533 98.305 9.122 98.865 9.122C99.4157 9.122 99.901 9.21533 100.321 9.402C100.75 9.57933 101.11 9.836 101.399 10.172C101.688 10.4987 101.908 10.8953 102.057 11.362C102.206 11.8193 102.281 12.3233 102.281 12.874C102.281 13.434 102.206 13.9473 102.057 14.414C101.908 14.8713 101.688 15.268 101.399 15.604ZM105.264 16.5H104.018V9.29L105.138 9.178L105.264 10.284C105.563 9.92 105.871 9.63533 106.188 9.43C106.515 9.22467 106.86 9.122 107.224 9.122C107.476 9.122 107.756 9.17333 108.064 9.276L107.77 10.48C107.63 10.4333 107.495 10.4053 107.364 10.396C107.243 10.3773 107.131 10.368 107.028 10.368C106.664 10.368 106.347 10.438 106.076 10.578C105.805 10.718 105.535 10.9093 105.264 11.152V16.5ZM114.509 15.954C114.164 16.1873 113.767 16.36 113.319 16.472C112.871 16.584 112.437 16.64 112.017 16.64C111.448 16.64 110.949 16.5467 110.519 16.36C110.09 16.1733 109.731 15.912 109.441 15.576C109.152 15.2307 108.933 14.8247 108.783 14.358C108.643 13.882 108.573 13.364 108.573 12.804C108.573 12.3093 108.629 11.838 108.741 11.39C108.863 10.942 109.049 10.55 109.301 10.214C109.553 9.878 109.871 9.612 110.253 9.416C110.645 9.22 111.112 9.122 111.653 9.122C112.139 9.122 112.568 9.206 112.941 9.374C113.315 9.53267 113.627 9.75667 113.879 10.046C114.131 10.3353 114.323 10.6853 114.453 11.096C114.584 11.4973 114.649 11.936 114.649 12.412C114.649 12.7573 114.621 13.0607 114.565 13.322H109.833C109.908 14.0127 110.127 14.5587 110.491 14.96C110.855 15.3613 111.383 15.562 112.073 15.562C112.428 15.562 112.773 15.5107 113.109 15.408C113.455 15.296 113.781 15.1513 114.089 14.974L114.509 15.954ZM113.417 12.328C113.408 12.02 113.366 11.7353 113.291 11.474C113.217 11.2033 113.109 10.9747 112.969 10.788C112.829 10.592 112.652 10.4427 112.437 10.34C112.223 10.228 111.966 10.172 111.667 10.172C111.359 10.172 111.093 10.228 110.869 10.34C110.655 10.452 110.473 10.606 110.323 10.802C110.183 10.998 110.071 11.2267 109.987 11.488C109.903 11.7493 109.847 12.0293 109.819 12.328H113.417ZM125.337 15.142C125.729 14.9367 126.056 14.6567 126.317 14.302C126.578 13.9473 126.774 13.5367 126.905 13.07C127.036 12.594 127.101 12.09 127.101 11.558C127.101 11.026 127.036 10.522 126.905 10.046C126.774 9.57 126.578 9.15467 126.317 8.8C126.056 8.44533 125.729 8.16533 125.337 7.96C124.954 7.75467 124.506 7.652 123.993 7.652C123.48 7.652 123.027 7.75467 122.635 7.96C122.252 8.16533 121.93 8.44533 121.669 8.8C121.408 9.15467 121.212 9.57 121.081 10.046C120.95 10.522 120.885 11.026 120.885 11.558C120.885 12.09 120.95 12.594 121.081 13.07C121.212 13.5367 121.408 13.9473 121.669 14.302C121.93 14.6567 122.252 14.9367 122.635 15.142C123.027 15.3473 123.48 15.45 123.993 15.45C124.506 15.45 124.954 15.3473 125.337 15.142ZM127.255 15.184C126.872 15.6413 126.406 16.0007 125.855 16.262C125.304 16.514 124.684 16.64 123.993 16.64C123.302 16.64 122.682 16.514 122.131 16.262C121.58 16.0007 121.114 15.6413 120.731 15.184C120.348 14.7267 120.054 14.19 119.849 13.574C119.644 12.9487 119.541 12.2767 119.541 11.558C119.541 10.83 119.644 10.158 119.849 9.542C120.054 8.91667 120.348 8.38 120.731 7.932C121.114 7.47467 121.58 7.11533 122.131 6.854C122.682 6.59267 123.302 6.462 123.993 6.462C124.684 6.462 125.304 6.59267 125.855 6.854C126.406 7.11533 126.872 7.47467 127.255 7.932C127.638 8.38 127.932 8.91667 128.137 9.542C128.342 10.158 128.445 10.83 128.445 11.558C128.445 12.2767 128.342 12.9487 128.137 13.574C127.932 14.19 127.638 14.7267 127.255 15.184ZM131.555 19.748H130.309V9.29L131.429 9.178L131.527 10.046C131.891 9.75667 132.264 9.53267 132.647 9.374C133.039 9.206 133.445 9.122 133.865 9.122C134.332 9.122 134.742 9.22467 135.097 9.43C135.461 9.63533 135.764 9.91067 136.007 10.256C136.25 10.592 136.432 10.9793 136.553 11.418C136.684 11.8567 136.749 12.3093 136.749 12.776C136.749 13.2987 136.674 13.7933 136.525 14.26C136.376 14.7267 136.161 15.1373 135.881 15.492C135.601 15.8467 135.256 16.1267 134.845 16.332C134.444 16.5373 133.986 16.64 133.473 16.64C132.764 16.64 132.124 16.4347 131.555 16.024V19.748ZM131.555 15.002C131.807 15.17 132.082 15.3053 132.381 15.408C132.689 15.5107 133.002 15.562 133.319 15.562C133.692 15.562 134.014 15.4873 134.285 15.338C134.565 15.1887 134.794 14.9833 134.971 14.722C135.148 14.4607 135.279 14.162 135.363 13.826C135.447 13.49 135.489 13.1307 135.489 12.748C135.489 12.4027 135.452 12.076 135.377 11.768C135.302 11.4507 135.186 11.18 135.027 10.956C134.878 10.7227 134.682 10.5407 134.439 10.41C134.196 10.27 133.912 10.2 133.585 10.2C133.23 10.2 132.866 10.2747 132.493 10.424C132.129 10.5733 131.816 10.7413 131.555 10.928V15.002ZM142.573 16.374C142.33 16.4767 142.12 16.5467 141.943 16.584C141.766 16.6213 141.574 16.64 141.369 16.64C140.949 16.64 140.594 16.5747 140.305 16.444C140.025 16.304 139.796 16.1127 139.619 15.87C139.451 15.618 139.33 15.3193 139.255 14.974C139.18 14.6193 139.143 14.232 139.143 13.812V10.284H137.561V9.262H139.143V7.47L140.389 7.358V9.262H142.279V10.284H140.389V13.658C140.389 13.882 140.398 14.1107 140.417 14.344C140.436 14.568 140.478 14.7733 140.543 14.96C140.618 15.1373 140.725 15.282 140.865 15.394C141.005 15.506 141.196 15.562 141.439 15.562C141.728 15.562 142.027 15.5107 142.335 15.408L142.573 16.374ZM145.2 16.5H143.954V9.29L145.2 9.178V16.5ZM145.382 6.756C145.382 6.98 145.308 7.16667 145.158 7.316C145.009 7.46533 144.813 7.54 144.57 7.54C144.328 7.54 144.132 7.46533 143.982 7.316C143.833 7.16667 143.758 6.98 143.758 6.756C143.758 6.52267 143.833 6.336 143.982 6.196C144.132 6.056 144.328 5.986 144.57 5.986C144.813 5.986 145.009 6.056 145.158 6.196C145.308 6.336 145.382 6.52267 145.382 6.756ZM151.374 15.352C151.645 15.212 151.869 15.0253 152.046 14.792C152.223 14.5493 152.354 14.2647 152.438 13.938C152.522 13.6113 152.564 13.2567 152.564 12.874C152.564 12.5007 152.522 12.1507 152.438 11.824C152.354 11.4973 152.223 11.2173 152.046 10.984C151.869 10.7413 151.645 10.55 151.374 10.41C151.103 10.27 150.781 10.2 150.408 10.2C150.025 10.2 149.699 10.27 149.428 10.41C149.157 10.55 148.929 10.7413 148.742 10.984C148.565 11.2173 148.434 11.4973 148.35 11.824C148.266 12.1507 148.224 12.5007 148.224 12.874C148.224 13.2567 148.266 13.6113 148.35 13.938C148.434 14.2647 148.565 14.5493 148.742 14.792C148.929 15.0253 149.157 15.212 149.428 15.352C149.699 15.492 150.025 15.562 150.408 15.562C150.781 15.562 151.103 15.492 151.374 15.352ZM152.942 15.604C152.662 15.9307 152.307 16.1873 151.878 16.374C151.458 16.5513 150.968 16.64 150.408 16.64C149.848 16.64 149.353 16.5513 148.924 16.374C148.504 16.1873 148.145 15.9307 147.846 15.604C147.557 15.268 147.337 14.8713 147.188 14.414C147.039 13.9473 146.964 13.434 146.964 12.874C146.964 12.3233 147.039 11.8193 147.188 11.362C147.337 10.8953 147.557 10.4987 147.846 10.172C148.145 9.836 148.504 9.57933 148.924 9.402C149.353 9.21533 149.848 9.122 150.408 9.122C150.959 9.122 151.444 9.21533 151.864 9.402C152.293 9.57933 152.653 9.836 152.942 10.172C153.231 10.4987 153.451 10.8953 153.6 11.362C153.749 11.8193 153.824 12.3233 153.824 12.874C153.824 13.434 153.749 13.9473 153.6 14.414C153.451 14.8713 153.231 15.268 152.942 15.604ZM160.391 16.5C160.326 16.2293 160.284 15.9447 160.265 15.646C160.256 15.338 160.251 15.0487 160.251 14.778V12.02C160.251 11.768 160.228 11.53 160.181 11.306C160.144 11.082 160.074 10.8907 159.971 10.732C159.878 10.564 159.742 10.4333 159.565 10.34C159.397 10.2467 159.187 10.2 158.935 10.2C158.608 10.2 158.258 10.2793 157.885 10.438C157.512 10.5967 157.152 10.8067 156.807 11.068V16.5H155.561V9.29L156.681 9.178L156.793 10.144C157.596 9.46267 158.417 9.122 159.257 9.122C159.658 9.122 159.999 9.19667 160.279 9.346C160.559 9.49533 160.788 9.70067 160.965 9.962C161.152 10.214 161.287 10.5127 161.371 10.858C161.455 11.2033 161.497 11.572 161.497 11.964V14.778C161.497 15.0487 161.502 15.338 161.511 15.646C161.53 15.9447 161.572 16.2293 161.637 16.5H160.391Z" fill="#868686"/>
</svg>
