<svg width="307" height="138" viewBox="0 0 307 138" fill="none" xmlns="http://www.w3.org/2000/svg">
<g clip-path="url(#clip0_619_1029)">
<path d="M251.845 66.2318L251.829 66.812L252.405 66.7413C269.388 64.6557 282.13 68.0774 290.954 74.3233C299.779 80.5703 304.729 89.6721 306.082 99.032C307.436 108.397 305.186 118.003 299.632 125.251C294.087 132.489 285.226 137.406 273.28 137.375H273.279H273.158H273.034H272.907H272.778H272.645H272.51H272.372H272.231H272.087H271.941H271.792H271.64H271.485H271.328H271.168H271.005H270.84H270.672H270.501H270.327H270.151H269.972H269.791H269.607H269.42H269.231H269.039H268.844H268.647H268.447H268.245H268.04H267.833H267.623H267.411H267.196H266.979H266.759H266.536H266.312H266.084H265.854H265.622H265.388H265.151H264.911H264.669H264.425H264.178H263.929H263.678H263.424H263.168H262.909H262.648H262.385H262.12H261.852H261.582H261.31H261.035H260.758H260.479H260.198H259.914H259.628H259.34H259.05H258.758H258.463H258.166H257.867H257.566H257.263H256.957H256.65H256.34H256.029H255.715H255.399H255.081H254.761H254.438H254.114H253.788H253.46H253.129H252.797H252.463H252.126H251.788H251.448H251.106H250.762H250.415H250.067H249.717H249.365H249.012H248.656H248.298H247.939H247.578H247.214H246.849H246.482H246.114H245.743H245.371H244.997H244.621H244.243H243.864H243.482H243.099H242.715H242.328H241.94H241.55H241.159H240.765H240.37H239.974H239.575H239.175H238.774H238.371H237.966H237.559H237.151H236.741H236.33H235.917H235.503H235.087H234.669H234.25H233.83H233.408H232.984H232.559H232.132H231.704H231.274H230.843H230.411H229.977H229.542H229.105H228.667H228.227H227.786H227.344H226.9H226.455H226.008H225.561H225.111H224.661H224.209H223.756H223.302H222.846H222.389H221.931H221.471H221.01H220.549H220.085H219.621H219.155H218.688H218.22H217.751H217.281H216.809H216.336H215.863H215.388H214.912H214.434H213.956H213.477H212.996H212.514H212.032H211.548H211.063H210.578H210.091H209.603H209.114H208.624H208.133H207.642H207.149H206.655H206.161H205.665H205.168H204.671H204.172H203.673H203.173H202.672H202.17H201.667H201.164H200.659H200.154H199.648H199.141H198.633H198.124H197.615H197.105H196.594H196.082H195.57H195.057H194.543H194.028H193.513H192.997H192.48H191.963H191.445H190.926H190.407H189.887H189.366H188.845H188.323H187.801H187.278H186.754H186.23H185.705H185.18H184.654H184.128H183.601H183.073H182.545H182.017H181.488H180.959H180.429H179.899H179.368H178.837H178.305H177.773H177.24H176.708H176.174H175.641H175.107H174.572H174.038H173.503H172.967H172.431H171.895H171.359H170.822H170.286H169.748H169.211H168.673H168.135H167.597H167.059H166.52H165.981H165.442H164.903H164.364H163.824H163.284H162.745H162.205H161.664H161.124H160.584H160.043H159.503H158.962H158.422H157.881H157.34H156.799H156.258H155.717H155.176H154.635H154.095H153.554H153.013H152.472H151.931H151.39H150.85H150.309H149.769H149.228H148.688H148.148H147.608H147.068H146.528H145.988H145.449H144.909H144.37H143.831H143.292H142.754H142.215H141.677H141.139H140.602H140.064H139.527H138.99H138.454H137.918H137.382H136.846H136.311H135.776H135.241H134.707H134.173H133.64H133.106H132.574H132.041H131.509H130.978H130.447H129.916H129.386H128.856H128.327H127.798H127.27H126.742H126.215H125.688H125.162H124.636H124.111H123.586H123.062H122.539H122.016H121.493H120.972H120.451H119.93H119.41H118.891H118.373H117.855H117.338H116.821H116.305H115.79H115.276H114.762H114.249H113.737H113.226H112.715H112.205H111.696H111.187H110.68H110.173H109.667H109.162H108.658H108.154H107.652H107.15H106.649H106.149H105.65H105.152H104.655H104.158H103.663H103.169H102.675H102.183H101.691H101.2H100.711H100.222H99.7347H99.2482H98.7627H98.2782H97.7948H97.3124H96.8311H96.3508H95.8717H95.3937H94.9167H94.4409H93.9662H93.4926H93.0202H92.549H92.0789H91.61H91.1422H90.6757H90.2103H89.7462H89.2833H88.8216H88.3612H87.902H87.4441H86.9875H86.5321H86.078H85.6253H85.1738H84.7237H84.2748H83.8274H83.3812H82.9365H82.4931H82.051H81.6104H81.1711H80.7333H80.2969H79.8619H79.4283H78.9962H78.5655H78.1363H77.7086H77.2824H76.8576H76.4344H76.0126H75.5924H75.1738H74.7566H74.341H73.927H73.5145H73.1037H72.6944H72.2867H71.8806H71.4762H71.0733H70.6721H70.2726H69.8747H69.4785H69.0839H68.6911H68.2999H67.9104H67.5227H67.1367H66.7524H66.3698H65.9891H65.61H65.2328H64.8573H64.4836H64.1118H63.7417H63.3735H63.007H62.6425H62.2798H61.9189H61.5599H61.2028H60.8476H60.4943H60.1428H59.7933H59.4458H59.1001H58.7564H58.4147H58.075H57.7372H57.4014H57.0676H56.7358H56.406H56.0782H55.7525H55.4288H55.1072H54.7876H54.4701H54.1547C34.2889 137.375 20.4426 131.551 11.8124 123.011C3.18221 114.471 -0.281016 103.167 0.702063 92.1016C2.66802 69.9728 22.418 48.808 54.2171 52.8408L54.5936 52.8886L54.7408 52.5389C61.3167 36.922 76.0778 25.2785 94.1812 23.916C107.702 22.925 120.352 27.7573 129.53 36.306L130.021 36.764L130.319 36.1614C145.931 4.53385 176.728 -4.41027 203.435 2.78383C230.154 9.98146 252.715 33.3146 251.845 66.2318Z" fill="white" stroke="#1DBF73"/>
<rect x="136" y="134.376" width="4.2793" height="76.7788" fill="#D9D9D9"/>
</g>
<defs>
<clipPath id="clip0_619_1029">
<rect width="307" height="138" fill="white"/>
</clipPath>
</defs>
</svg>
