<svg width="36" height="36" viewBox="0 0 36 36" fill="none" xmlns="http://www.w3.org/2000/svg">
<rect x="0.264648" y="0.851501" width="35" height="35" rx="17.5" fill="#014927"/>
<g clip-path="url(#clip0_296_1677)">
<path d="M22.4662 22.1776H21.2662V20.9776H22.4662V22.1776ZM18.8662 22.1776H20.0662V20.9776H18.8662V22.1776ZM24.8662 22.1776H23.6662V20.9776H24.8662V22.1776Z" fill="white"/>
<path fill-rule="evenodd" clip-rule="evenodd" d="M12.8666 16.1776V13.1776C12.8666 12.626 12.9752 12.0799 13.1863 11.5703C13.3974 11.0607 13.7067 10.5977 14.0968 10.2077C14.4868 9.81772 14.9498 9.50835 15.4593 9.29728C15.9689 9.08621 16.515 8.97757 17.0666 8.97757C17.6182 8.97757 18.1643 9.08621 18.6739 9.29728C19.1834 9.50835 19.6464 9.81772 20.0364 10.2077C20.4265 10.5977 20.7358 11.0607 20.9469 11.5703C21.158 12.0799 21.2666 12.626 21.2666 13.1776V16.1776H23.0666C23.544 16.1776 24.0018 16.3672 24.3394 16.7048C24.677 17.0423 24.8666 17.5002 24.8666 17.9776V18.6376C25.5448 18.7753 26.1545 19.1432 26.5924 19.679C27.0304 20.2148 27.2696 20.8856 27.2696 21.5776C27.2696 22.2696 27.0304 22.9403 26.5924 23.4761C26.1545 24.0119 25.5448 24.3799 24.8666 24.5176V25.1776C24.8666 25.655 24.677 26.1128 24.3394 26.4504C24.0018 26.7879 23.544 26.9776 23.0666 26.9776H11.0666C10.5892 26.9776 10.1314 26.7879 9.79381 26.4504C9.45624 26.1128 9.2666 25.655 9.2666 25.1776V17.9776C9.2666 17.5002 9.45624 17.0423 9.79381 16.7048C10.1314 16.3672 10.5892 16.1776 11.0666 16.1776H12.8666ZM14.0666 13.1776C14.0666 12.3819 14.3827 11.6189 14.9453 11.0562C15.5079 10.4936 16.271 10.1776 17.0666 10.1776C17.8622 10.1776 18.6253 10.4936 19.1879 11.0562C19.7505 11.6189 20.0666 12.3819 20.0666 13.1776V16.1776H14.0666V13.1776ZM19.4666 19.7776C18.9892 19.7776 18.5314 19.9672 18.1938 20.3048C17.8562 20.6423 17.6666 21.1002 17.6666 21.5776C17.6666 22.055 17.8562 22.5128 18.1938 22.8504C18.5314 23.1879 18.9892 23.3776 19.4666 23.3776H24.2666C24.744 23.3776 25.2018 23.1879 25.5394 22.8504C25.877 22.5128 26.0666 22.055 26.0666 21.5776C26.0666 21.1002 25.877 20.6423 25.5394 20.3048C25.2018 19.9672 24.744 19.7776 24.2666 19.7776H19.4666Z" fill="white"/>
</g>
<defs>
<clipPath id="clip0_296_1677">
<rect width="18" height="18" fill="white" transform="translate(9.2666 8.97757)"/>
</clipPath>
</defs>
</svg>
