<svg width="172" height="172" viewBox="0 0 172 172" fill="none" xmlns="http://www.w3.org/2000/svg">
<g filter="url(#filter0_d_222_1601)">
<circle cx="86" cy="83" r="79" stroke="#21CE99" stroke-width="2" shape-rendering="crispEdges"/>
</g>
<g clip-path="url(#clip0_222_1601)">
<g filter="url(#filter1_d_222_1601)">
<path d="M63.7206 57.5029L63.0675 57.6123C61.0194 57.8598 59.0716 58.6387 57.4175 59.8717C57.0519 60.0904 56.7238 60.3842 56.3613 60.6779C56.3198 60.6117 56.2942 60.5369 56.2863 60.4592C56.2113 60.0529 56.1769 59.6217 56.105 59.2186C55.9956 58.5623 55.63 58.2279 54.9738 58.2279H53.2581C52.2019 58.2279 52.0206 58.4529 52.0206 59.4748V91.1154C52.0581 91.5904 52.3456 91.8404 52.7456 91.8779H55.9206C56.3581 91.8779 56.6113 91.5904 56.6456 91.1154C56.6831 90.9686 56.6831 90.8217 56.6831 90.6779V79.6842C56.83 79.8311 56.9425 79.9029 57.0144 79.9748C59.6769 82.1998 62.7394 82.9279 66.0956 82.2717C69.1581 81.6529 71.2706 79.7936 72.6206 77.0592C73.6769 74.9811 74.1081 72.8686 74.1456 70.5717C74.2175 68.0561 73.9987 65.6342 72.9425 63.2654C71.7019 60.3498 69.5894 58.4154 66.4175 57.7592C65.9425 57.6498 65.4363 57.6123 64.9613 57.5404C64.5238 57.5029 64.1206 57.5029 63.7175 57.5029H63.7206ZM88.0081 57.5029C87.8659 57.5453 87.7189 57.5695 87.5706 57.5748C86.1201 57.6355 84.6794 57.8428 83.2706 58.1936C82.3581 58.4123 81.4831 58.7373 80.6081 59.0279C80.0612 59.2092 79.805 59.6123 79.805 60.1936C79.8425 60.6686 79.805 61.1779 79.805 61.6529C79.8425 62.3811 80.1362 62.5686 80.83 62.3873C81.9956 62.0936 83.1613 61.7686 84.3269 61.5498C86.1488 61.2217 88.0081 61.0748 89.8675 61.3311C90.8519 61.5123 91.7644 61.7686 92.3831 62.6061C92.93 63.2998 93.1519 64.1717 93.1894 65.0467C93.2269 66.2873 93.2269 67.2686 93.2269 68.5061C93.2269 68.5779 93.2269 68.6498 93.1894 68.6842H93.005C91.4396 68.2985 89.8424 68.0558 88.2331 67.9592C86.555 67.8873 84.88 67.9592 83.2769 68.5436C81.3456 69.1998 79.7738 70.3654 78.8644 72.2623C78.1706 73.7217 78.0581 75.2561 78.2769 76.8217C78.605 78.9373 79.63 80.5404 81.4894 81.5561C83.2769 82.5404 85.1706 82.6498 87.1394 82.3561C89.3606 82.0274 91.4443 81.0798 93.1519 79.6217C93.2237 79.5498 93.2987 79.5154 93.3706 79.4436C93.48 80.0279 93.5581 80.5779 93.6644 81.0873C93.7362 81.5623 94.0331 81.8498 94.4706 81.8873H96.9113C97.0992 81.88 97.2769 81.8 97.4069 81.6641C97.5369 81.5283 97.6091 81.3472 97.6081 81.1592C97.6456 81.0498 97.6456 80.8998 97.6456 80.7561V65.1998C97.6425 64.5633 97.5892 63.928 97.4863 63.2998C97.1956 61.3686 96.3925 59.7623 94.6425 58.7404C93.6581 58.1561 92.5675 57.8654 91.4019 57.6873C90.855 57.6123 90.3394 57.5748 89.7956 57.5029H88.0081ZM100.646 57.5092C100.28 57.5092 100.099 57.8342 100.171 58.1967C100.242 58.4936 100.355 58.8217 100.464 59.1154C103.38 66.3342 106.33 73.5467 109.283 80.8029C109.539 81.4186 109.574 81.9342 109.283 82.5529C108.814 83.6436 108.408 84.7717 107.899 85.8654C107.461 86.8498 106.733 87.5842 105.639 87.8748C104.911 88.0592 104.108 88.1311 103.346 88.0217C102.98 87.9842 102.611 87.9123 102.246 87.8748C101.733 87.8373 101.483 88.0529 101.446 88.5998V90.0654C101.483 90.9061 101.739 91.2686 102.577 91.4154C103.38 91.5592 104.214 91.6654 105.089 91.6998C107.639 91.7342 109.652 90.7217 110.964 88.4967C111.498 87.6236 111.961 86.7092 112.349 85.7623C115.88 76.8311 119.38 67.9373 122.88 58.9686C122.991 58.7114 123.064 58.44 123.099 58.1623C123.167 57.7248 122.949 57.5061 122.552 57.5154H119.605C119.355 57.5021 119.107 57.5689 118.897 57.706C118.688 57.8431 118.527 58.0434 118.439 58.2779C118.368 58.4967 118.293 58.6748 118.221 58.8936L113.008 73.8061C112.642 74.8623 112.236 75.9529 111.871 77.1186C111.796 76.9342 111.761 76.8623 111.724 76.7529C109.793 71.4311 107.902 66.1154 105.971 60.7936C105.68 59.9186 105.352 59.0748 105.024 58.2342C104.96 58.0321 104.833 57.8559 104.661 57.732C104.49 57.608 104.282 57.543 104.071 57.5467C102.939 57.5092 101.811 57.5092 100.646 57.5092ZM63.6863 61.2904C65.9113 61.4748 67.7331 62.5717 68.68 65.1561C69.2644 66.7592 69.4113 68.3061 69.4113 69.9842C69.4113 71.5529 69.305 72.9404 68.8331 74.4342C67.8113 77.6061 65.4769 78.8436 62.4863 78.6998C60.3706 78.5904 58.5831 77.7842 56.905 76.6186C56.7238 76.5092 56.6144 76.3342 56.6488 76.1498V63.7717C56.6175 63.5529 56.7238 63.3748 56.905 63.2654C58.9456 61.8436 61.205 61.1092 63.6863 61.2936V61.2904ZM87.3394 71.1373C87.9644 71.0842 88.5894 71.0967 89.2144 71.1686C90.4519 71.2779 91.6956 71.4936 92.9331 71.6748C93.1925 71.7123 93.2581 71.8217 93.2581 72.0404C93.2206 72.7717 93.2581 73.4654 93.2581 74.1967C93.2581 74.9248 93.2238 75.5842 93.2238 76.3154C93.2612 76.4967 93.1488 76.6373 93.005 76.7467C91.3237 77.9498 89.505 78.7561 87.4237 78.9748C86.5863 79.0467 85.7456 79.0467 84.9456 78.7186C84.4991 78.5548 84.0979 78.2871 83.7751 77.9378C83.4524 77.5884 83.2173 77.1673 83.0894 76.7092C82.8068 75.7722 82.7949 74.7745 83.055 73.8311C83.455 72.5904 84.3269 71.9029 85.4925 71.4998C86.0929 71.3154 86.7108 71.1939 87.3363 71.1373H87.3394ZM126.755 95.0092C123.839 95.0498 120.396 95.7029 117.783 97.5373C116.977 98.0967 117.118 98.8717 118.014 98.7686C120.952 98.4154 127.489 97.6217 128.658 99.1154C129.83 100.609 127.364 106.772 126.274 109.528C125.936 110.35 126.649 110.69 127.402 110.065C132.289 105.972 133.558 97.3904 132.558 96.1592C132.058 95.5404 129.671 94.9686 126.755 95.0092ZM39.805 98.1342C39.1238 98.2279 38.83 99.0904 39.5425 99.7748C51.78 111.256 67.955 116.878 85.9144 116.878C98.7238 116.878 113.592 112.7 123.858 104.825C125.555 103.512 124.108 101.553 122.371 102.325C110.861 107.406 98.3581 109.853 86.98 109.853C70.1175 109.853 53.7925 106.331 40.5894 98.3342C40.3575 98.1794 40.0795 98.1088 39.8019 98.1342H39.805Z" fill="#21CE99"/>
</g>
</g>
<defs>
<filter id="filter0_d_222_1601" x="0" y="0" width="172" height="172" filterUnits="userSpaceOnUse" color-interpolation-filters="sRGB">
<feFlood flood-opacity="0" result="BackgroundImageFix"/>
<feColorMatrix in="SourceAlpha" type="matrix" values="0 0 0 0 0 0 0 0 0 0 0 0 0 0 0 0 0 0 127 0" result="hardAlpha"/>
<feMorphology radius="2" operator="dilate" in="SourceAlpha" result="effect1_dropShadow_222_1601"/>
<feOffset dy="3"/>
<feGaussianBlur stdDeviation="2"/>
<feComposite in2="hardAlpha" operator="out"/>
<feColorMatrix type="matrix" values="0 0 0 0 0 0 0 0 0 0 0 0 0 0 0 0 0 0 0.14 0"/>
<feBlend mode="normal" in2="BackgroundImageFix" result="effect1_dropShadow_222_1601"/>
<feBlend mode="normal" in="SourceGraphic" in2="effect1_dropShadow_222_1601" result="shape"/>
</filter>
<filter id="filter1_d_222_1601" x="35.1309" y="57.5029" width="101.745" height="67.375" filterUnits="userSpaceOnUse" color-interpolation-filters="sRGB">
<feFlood flood-opacity="0" result="BackgroundImageFix"/>
<feColorMatrix in="SourceAlpha" type="matrix" values="0 0 0 0 0 0 0 0 0 0 0 0 0 0 0 0 0 0 127 0" result="hardAlpha"/>
<feOffset dy="4"/>
<feGaussianBlur stdDeviation="2"/>
<feComposite in2="hardAlpha" operator="out"/>
<feColorMatrix type="matrix" values="0 0 0 0 0 0 0 0 0 0 0 0 0 0 0 0 0 0 0.18 0"/>
<feBlend mode="normal" in2="BackgroundImageFix" result="effect1_dropShadow_222_1601"/>
<feBlend mode="normal" in="SourceGraphic" in2="effect1_dropShadow_222_1601" result="shape"/>
</filter>
<clipPath id="clip0_222_1601">
<rect width="100" height="100" fill="white" transform="translate(36 32.5029)"/>
</clipPath>
</defs>
</svg>
