<svg width="91" height="92" viewBox="0 0 91 92" fill="none" xmlns="http://www.w3.org/2000/svg">
<g filter="url(#filter0_d_262_4)">
<circle cx="45.5328" cy="42.3834" r="41.4196" fill="white"/>
<circle cx="45.5328" cy="42.3834" r="40.4196" stroke="#21CE99" stroke-width="2"/>
</g>
<path d="M34.0745 59.0501C30.9148 59.0501 28.2148 57.9563 25.9745 55.7688C23.7343 53.5813 22.6148 50.9077 22.6162 47.748C22.6162 45.0397 23.4322 42.6265 25.0641 40.5084C26.6961 38.3903 28.8315 37.0362 31.4704 36.4459C32.3384 33.2515 34.0745 30.6647 36.6787 28.6855C39.2829 26.7063 42.2343 25.7167 45.5329 25.7167C49.5954 25.7167 53.0419 27.132 55.8725 29.9626C58.703 32.7931 60.1176 36.239 60.1162 40.3001C62.5121 40.5778 64.5002 41.6112 66.0808 43.4001C67.6614 45.189 68.4509 47.2806 68.4496 49.6751C68.4496 52.2792 67.5377 54.4931 65.7141 56.3167C63.8905 58.1403 61.6773 59.0515 59.0746 59.0501H34.0745Z" fill="#21CE99"/>
<path d="M47.7832 44.9252H46.6582V39.6752H47.0332C47.7294 39.6752 48.3971 39.9517 48.8894 40.444C49.3816 40.9363 49.6582 41.604 49.6582 42.3002C49.6582 42.5985 49.7767 42.8847 49.9877 43.0957C50.1987 43.3066 50.4848 43.4252 50.7832 43.4252C51.0816 43.4252 51.3677 43.3066 51.5787 43.0957C51.7897 42.8847 51.9082 42.5985 51.9082 42.3002C51.9067 41.0077 51.3926 39.7686 50.4787 38.8547C49.5648 37.9408 48.3257 37.4267 47.0332 37.4252H46.6582V36.3002C46.6582 36.0018 46.5397 35.7157 46.3287 35.5047C46.1177 35.2937 45.8316 35.1752 45.5332 35.1752C45.2348 35.1752 44.9487 35.2937 44.7377 35.5047C44.5267 35.7157 44.4082 36.0018 44.4082 36.3002V37.4252H44.0332C42.7403 37.4252 41.5003 37.9388 40.5861 38.853C39.6718 39.7673 39.1582 41.0072 39.1582 42.3002C39.1582 43.5931 39.6718 44.8331 40.5861 45.7473C41.5003 46.6616 42.7403 47.1752 44.0332 47.1752H44.4082V52.4252H43.2832C42.587 52.4252 41.9193 52.1486 41.427 51.6563C40.9348 51.164 40.6582 50.4964 40.6582 49.8002C40.6582 49.5018 40.5397 49.2157 40.3287 49.0047C40.1177 48.7937 39.8316 48.6752 39.5332 48.6752C39.2348 48.6752 38.9487 48.7937 38.7377 49.0047C38.5267 49.2157 38.4082 49.5018 38.4082 49.8002C38.4097 51.0926 38.9238 52.3318 39.8377 53.2457C40.7516 54.1596 41.9907 54.6737 43.2832 54.6752H44.4082V55.8002C44.4082 56.0985 44.5267 56.3847 44.7377 56.5957C44.9487 56.8066 45.2348 56.9252 45.5332 56.9252C45.8316 56.9252 46.1177 56.8066 46.3287 56.5957C46.5397 56.3847 46.6582 56.0985 46.6582 55.8002V54.6752H47.7832C49.0761 54.6752 50.3161 54.1616 51.2303 53.2473C52.1446 52.3331 52.6582 51.0931 52.6582 49.8002C52.6582 48.5072 52.1446 47.2673 51.2303 46.353C50.3161 45.4388 49.0761 44.9252 47.7832 44.9252ZM44.0332 44.9252C43.337 44.9252 42.6693 44.6486 42.177 44.1563C41.6848 43.664 41.4082 42.9964 41.4082 42.3002C41.4082 41.604 41.6848 40.9363 42.177 40.444C42.6693 39.9517 43.337 39.6752 44.0332 39.6752H44.4082V44.9252H44.0332ZM47.7832 52.4252H46.6582V47.1752H47.7832C48.4794 47.1752 49.1471 47.4517 49.6394 47.944C50.1316 48.4363 50.4082 49.104 50.4082 49.8002C50.4082 50.4964 50.1316 51.164 49.6394 51.6563C49.1471 52.1486 48.4794 52.4252 47.7832 52.4252Z" fill="#263238"/>
<path fill-rule="evenodd" clip-rule="evenodd" d="M64.1675 54.6318C63.9425 54.4068 63.8162 54.1016 63.8162 53.7834C63.8162 53.4652 63.9425 53.1601 64.1675 52.935L67.7675 49.335C67.8782 49.2204 68.0106 49.129 68.157 49.0661C68.3034 49.0032 68.4609 48.9701 68.6202 48.9687C68.7796 48.9673 68.9376 48.9977 69.0851 49.058C69.2325 49.1184 69.3665 49.2075 69.4792 49.3202C69.5919 49.4328 69.681 49.5668 69.7413 49.7143C69.8016 49.8618 69.832 50.0198 69.8306 50.1791C69.8292 50.3385 69.7961 50.4959 69.7332 50.6423C69.6703 50.7887 69.5789 50.9211 69.4643 51.0318L65.8643 54.6318C65.6393 54.8568 65.3341 54.9832 65.0159 54.9832C64.6977 54.9832 64.3925 54.8568 64.1675 54.6318Z" fill="#263238"/>
<path fill-rule="evenodd" clip-rule="evenodd" d="M73.0651 54.6318C72.84 54.8568 72.5348 54.9832 72.2167 54.9832C71.8985 54.9832 71.5933 54.8568 71.3682 54.6318L67.7683 51.0318C67.5497 50.8055 67.4287 50.5024 67.4314 50.1877C67.4342 49.8731 67.5604 49.5721 67.7829 49.3496C68.0054 49.1272 68.3063 49.0009 68.621 48.9982C68.9356 48.9955 69.2387 49.1164 69.4651 49.335L73.0651 52.935C73.29 53.1601 73.4164 53.4652 73.4164 53.7834C73.4164 54.1016 73.29 54.4068 73.0651 54.6318Z" fill="#263238"/>
<path fill-rule="evenodd" clip-rule="evenodd" d="M68.6163 51.3834C68.9346 51.3834 69.2398 51.5099 69.4648 51.7349C69.6899 51.9599 69.8163 52.2652 69.8163 52.5834V62.1834C69.8163 62.5017 69.6899 62.8069 69.4648 63.032C69.2398 63.257 68.9346 63.3834 68.6163 63.3834C68.298 63.3834 67.9928 63.257 67.7678 63.032C67.5427 62.8069 67.4163 62.5017 67.4163 62.1834V52.5834C67.4163 52.2652 67.5427 51.9599 67.7678 51.7349C67.9928 51.5099 68.298 51.3834 68.6163 51.3834ZM63.4647 60.135C63.6897 60.3601 63.8161 60.6652 63.8161 60.9834C63.8161 61.3016 63.6897 61.6068 63.4647 61.8318L59.8647 65.4318C59.6384 65.6504 59.3353 65.7714 59.0206 65.7686C58.706 65.7659 58.405 65.6397 58.1825 65.4172C57.96 65.1947 57.8338 64.8937 57.8311 64.5791C57.8284 64.2645 57.9493 63.9613 58.1679 63.735L61.7679 60.135C61.9929 59.9101 62.2981 59.7837 62.6163 59.7837C62.9345 59.7837 63.2397 59.9101 63.4647 60.135Z" fill="#263238"/>
<path fill-rule="evenodd" clip-rule="evenodd" d="M54.5679 60.135C54.7929 59.9101 55.0981 59.7837 55.4163 59.7837C55.7345 59.7837 56.0397 59.9101 56.2647 60.135L59.8647 63.735C59.9793 63.8457 60.0707 63.9781 60.1336 64.1245C60.1965 64.271 60.2296 64.4284 60.231 64.5878C60.2324 64.7471 60.202 64.9051 60.1417 65.0526C60.0813 65.2001 59.9922 65.334 59.8796 65.4467C59.7669 65.5594 59.6329 65.6485 59.4854 65.7088C59.338 65.7692 59.18 65.7995 59.0206 65.7981C58.8613 65.7968 58.7038 65.7636 58.5574 65.7008C58.411 65.6379 58.2786 65.5464 58.1679 65.4318L54.5679 61.8318C54.3429 61.6068 54.2166 61.3016 54.2166 60.9834C54.2166 60.6652 54.3429 60.3601 54.5679 60.135Z" fill="#263238"/>
<path fill-rule="evenodd" clip-rule="evenodd" d="M59.0164 63.3834C58.6981 63.3834 58.3929 63.257 58.1679 63.032C57.9428 62.8069 57.8164 62.5017 57.8164 62.1834V52.5834C57.8164 52.2652 57.9428 51.9599 58.1679 51.7349C58.3929 51.5099 58.6981 51.3834 59.0164 51.3834C59.3347 51.3834 59.6399 51.5099 59.8649 51.7349C60.09 51.9599 60.2164 52.2652 60.2164 52.5834V62.1834C60.2164 62.5017 60.09 62.8069 59.8649 63.032C59.6399 63.257 59.3347 63.3834 59.0164 63.3834Z" fill="#263238"/>
<defs>
<filter id="filter0_d_262_4" x="0.113281" y="0.963867" width="90.8391" height="90.8391" filterUnits="userSpaceOnUse" color-interpolation-filters="sRGB">
<feFlood flood-opacity="0" result="BackgroundImageFix"/>
<feColorMatrix in="SourceAlpha" type="matrix" values="0 0 0 0 0 0 0 0 0 0 0 0 0 0 0 0 0 0 127 0" result="hardAlpha"/>
<feOffset dy="4"/>
<feGaussianBlur stdDeviation="2"/>
<feComposite in2="hardAlpha" operator="out"/>
<feColorMatrix type="matrix" values="0 0 0 0 0 0 0 0 0 0 0 0 0 0 0 0 0 0 0.25 0"/>
<feBlend mode="normal" in2="BackgroundImageFix" result="effect1_dropShadow_262_4"/>
<feBlend mode="normal" in="SourceGraphic" in2="effect1_dropShadow_262_4" result="shape"/>
</filter>
</defs>
</svg>
