<svg width="91" height="92" viewBox="0 0 91 92" fill="none" xmlns="http://www.w3.org/2000/svg">
<g filter="url(#filter0_d_262_5)">
<circle cx="45.5328" cy="42.3834" r="41.4196" fill="white"/>
<circle cx="45.5328" cy="42.3834" r="40.4196" stroke="#21CE99" stroke-width="2"/>
</g>
<g clip-path="url(#clip0_262_5)">
<path d="M26.7822 55.5084C26.7822 58.6959 29.2197 61.1334 32.4072 61.1334H58.6572C61.8447 61.1334 64.2822 58.6959 64.2822 55.5084V40.5084H26.7822V55.5084ZM58.6572 27.3834H54.9072V25.5084C54.9072 24.3834 54.1572 23.6334 53.0322 23.6334C51.9072 23.6334 51.1572 24.3834 51.1572 25.5084V27.3834H39.9072V25.5084C39.9072 24.3834 39.1572 23.6334 38.0322 23.6334C36.9072 23.6334 36.1572 24.3834 36.1572 25.5084V27.3834H32.4072C29.2197 27.3834 26.7822 29.8209 26.7822 33.0084V36.7584H64.2822V33.0084C64.2822 29.8209 61.8447 27.3834 58.6572 27.3834Z" fill="#21CE99"/>
<path fill-rule="evenodd" clip-rule="evenodd" d="M56.9075 48.1022C57.8255 46.4702 60.1739 46.4702 61.0907 48.1022L67.7867 60.0062C68.6867 61.607 67.5311 63.5822 65.6963 63.5822H52.3031C50.4671 63.5822 49.3115 61.607 50.2115 60.0062L56.9075 48.1022ZM60.1991 59.9834C60.1991 60.3017 60.0727 60.6069 59.8476 60.832C59.6226 61.057 59.3173 61.1834 58.9991 61.1834C58.6808 61.1834 58.3756 61.057 58.1506 60.832C57.9255 60.6069 57.7991 60.3017 57.7991 59.9834C57.7991 59.6652 57.9255 59.36 58.1506 59.1349C58.3756 58.9099 58.6808 58.7834 58.9991 58.7834C59.3173 58.7834 59.6226 58.9099 59.8476 59.1349C60.0727 59.36 60.1991 59.6652 60.1991 59.9834ZM58.9991 50.3834C58.6808 50.3834 58.3756 50.5099 58.1506 50.7349C57.9255 50.96 57.7991 51.2652 57.7991 51.5834V55.1834C57.7991 55.5017 57.9255 55.8069 58.1506 56.032C58.3756 56.257 58.6808 56.3834 58.9991 56.3834C59.3173 56.3834 59.6226 56.257 59.8476 56.032C60.0727 55.8069 60.1991 55.5017 60.1991 55.1834V51.5834C60.1991 51.2652 60.0727 50.96 59.8476 50.7349C59.6226 50.5099 59.3173 50.3834 58.9991 50.3834Z" fill="#263238"/>
</g>
<defs>
<filter id="filter0_d_262_5" x="0.113281" y="0.963867" width="90.8391" height="90.8391" filterUnits="userSpaceOnUse" color-interpolation-filters="sRGB">
<feFlood flood-opacity="0" result="BackgroundImageFix"/>
<feColorMatrix in="SourceAlpha" type="matrix" values="0 0 0 0 0 0 0 0 0 0 0 0 0 0 0 0 0 0 127 0" result="hardAlpha"/>
<feOffset dy="4"/>
<feGaussianBlur stdDeviation="2"/>
<feComposite in2="hardAlpha" operator="out"/>
<feColorMatrix type="matrix" values="0 0 0 0 0 0 0 0 0 0 0 0 0 0 0 0 0 0 0.25 0"/>
<feBlend mode="normal" in2="BackgroundImageFix" result="effect1_dropShadow_262_5"/>
<feBlend mode="normal" in="SourceGraphic" in2="effect1_dropShadow_262_5" result="shape"/>
</filter>
<clipPath id="clip0_262_5">
<rect width="45" height="45" fill="white" transform="translate(23.0322 19.8834)"/>
</clipPath>
</defs>
</svg>
