<svg width="172" height="172" viewBox="0 0 172 172" fill="none" xmlns="http://www.w3.org/2000/svg">
<g filter="url(#filter0_d_222_1597)">
<circle cx="86" cy="83" r="79" stroke="#21CE99" stroke-width="2" shape-rendering="crispEdges"/>
</g>
<g clip-path="url(#clip0_222_1597)">
<g filter="url(#filter1_d_222_1597)">
<path d="M119.75 79.25C119.75 100.062 105.35 119.525 86 124.25C66.65 119.525 52.25 100.062 52.25 79.25V56.75L86 41.75L119.75 56.75V79.25ZM86 116.75C100.062 113 112.25 96.275 112.25 80.075V61.625L86 49.925L59.75 61.625V80.075C59.75 96.275 71.9375 113 86 116.75ZM96.5 79.25V73.625C96.5 68.375 91.25 64.25 86 64.25C80.75 64.25 75.5 68.375 75.5 73.625V79.25C73.25 79.25 71 81.5 71 83.75V96.875C71 99.5 73.25 101.75 75.5 101.75H96.125C98.75 101.75 101 99.5 101 97.25V84.125C101 81.5 98.75 79.25 96.5 79.25ZM91.625 79.25H80.375V73.625C80.375 70.625 83 68.75 86 68.75C89 68.75 91.625 70.625 91.625 73.625V79.25Z" fill="#21CE99"/>
</g>
</g>
<defs>
<filter id="filter0_d_222_1597" x="0" y="0" width="172" height="172" filterUnits="userSpaceOnUse" color-interpolation-filters="sRGB">
<feFlood flood-opacity="0" result="BackgroundImageFix"/>
<feColorMatrix in="SourceAlpha" type="matrix" values="0 0 0 0 0 0 0 0 0 0 0 0 0 0 0 0 0 0 127 0" result="hardAlpha"/>
<feMorphology radius="2" operator="dilate" in="SourceAlpha" result="effect1_dropShadow_222_1597"/>
<feOffset dy="3"/>
<feGaussianBlur stdDeviation="2"/>
<feComposite in2="hardAlpha" operator="out"/>
<feColorMatrix type="matrix" values="0 0 0 0 0 0 0 0 0 0 0 0 0 0 0 0 0 0 0.14 0"/>
<feBlend mode="normal" in2="BackgroundImageFix" result="effect1_dropShadow_222_1597"/>
<feBlend mode="normal" in="SourceGraphic" in2="effect1_dropShadow_222_1597" result="shape"/>
</filter>
<filter id="filter1_d_222_1597" x="48.25" y="41.75" width="75.5" height="90.5" filterUnits="userSpaceOnUse" color-interpolation-filters="sRGB">
<feFlood flood-opacity="0" result="BackgroundImageFix"/>
<feColorMatrix in="SourceAlpha" type="matrix" values="0 0 0 0 0 0 0 0 0 0 0 0 0 0 0 0 0 0 127 0" result="hardAlpha"/>
<feOffset dy="4"/>
<feGaussianBlur stdDeviation="2"/>
<feComposite in2="hardAlpha" operator="out"/>
<feColorMatrix type="matrix" values="0 0 0 0 0 0 0 0 0 0 0 0 0 0 0 0 0 0 0.15 0"/>
<feBlend mode="normal" in2="BackgroundImageFix" result="effect1_dropShadow_222_1597"/>
<feBlend mode="normal" in="SourceGraphic" in2="effect1_dropShadow_222_1597" result="shape"/>
</filter>
<clipPath id="clip0_222_1597">
<rect width="90" height="90" fill="white" transform="translate(41 38)"/>
</clipPath>
</defs>
</svg>
