<svg width="88" height="15" viewBox="0 0 88 15" fill="none" xmlns="http://www.w3.org/2000/svg">
<path d="M10.0405 10.9387H7.88453L7.04453 8.51669H3.46053L2.62053 10.9387H0.534531L4.24453 1.04069H6.33053L10.0405 10.9387ZM6.52653 6.92069L5.25253 3.23869L3.97853 6.92069H6.52653ZM19.9662 10.9387H18.0062L15.9202 4.79269L13.9742 10.9387H12.0142L9.4382 1.04069H11.5242L13.1202 7.85869L15.0102 1.89469H16.8862L18.9022 7.91469L20.4842 1.04069H22.5422L19.9662 10.9387ZM29.5784 3.26669C29.1864 3.07069 28.7571 2.90736 28.2904 2.77669C27.8331 2.63669 27.3991 2.56669 26.9884 2.56669C26.7924 2.56669 26.5964 2.58536 26.4004 2.62269C26.2137 2.66002 26.0457 2.72069 25.8964 2.80469C25.7564 2.87936 25.6397 2.98202 25.5464 3.11269C25.4624 3.23402 25.4204 3.37869 25.4204 3.54669C25.4204 3.72402 25.4671 3.88269 25.5604 4.02269C25.6631 4.15336 25.7984 4.27469 25.9664 4.38669C26.1344 4.48936 26.3304 4.58736 26.5544 4.68069C26.7784 4.76469 27.0211 4.84869 27.2824 4.93269C27.6557 5.06336 28.0431 5.20802 28.4444 5.36669C28.8551 5.52536 29.2284 5.72602 29.5644 5.96869C29.9004 6.21136 30.1757 6.51002 30.3904 6.86469C30.6144 7.21002 30.7264 7.63936 30.7264 8.15269C30.7264 8.61936 30.6331 9.03469 30.4464 9.39869C30.2597 9.75336 29.9984 10.0567 29.6624 10.3087C29.3264 10.5607 28.9251 10.752 28.4584 10.8827C27.9917 11.0134 27.4831 11.0787 26.9324 11.0787C26.2604 11.0787 25.5931 10.99 24.9304 10.8127C24.2771 10.626 23.6844 10.3834 23.1524 10.0847L23.8664 8.58669C24.0624 8.69869 24.2864 8.80602 24.5384 8.90869C24.7904 9.00202 25.0517 9.08602 25.3224 9.16069C25.6024 9.23536 25.8824 9.29602 26.1624 9.34269C26.4424 9.38936 26.7131 9.41269 26.9744 9.41269C27.5251 9.41269 27.9404 9.31469 28.2204 9.11869C28.5097 8.91336 28.6544 8.64269 28.6544 8.30669C28.6544 8.08269 28.5937 7.89136 28.4724 7.73269C28.3604 7.57402 28.2064 7.43402 28.0104 7.31269C27.8144 7.18202 27.5857 7.07002 27.3244 6.97669C27.0724 6.87402 26.8064 6.77136 26.5264 6.66869C26.1624 6.53802 25.7891 6.39802 25.4064 6.24869C25.0331 6.09936 24.6924 5.91269 24.3844 5.68869C24.0764 5.46469 23.8244 5.19402 23.6284 4.87669C23.4417 4.55936 23.3484 4.16269 23.3484 3.68669C23.3484 3.23869 23.4371 2.84202 23.6144 2.49669C23.8011 2.14202 24.0531 1.84802 24.3704 1.61469C24.6971 1.38136 25.0797 1.20402 25.5184 1.08269C25.9571 0.961357 26.4377 0.90069 26.9604 0.90069C27.5204 0.90069 28.0804 0.97069 28.6404 1.11069C29.2097 1.25069 29.7604 1.47002 30.2924 1.76869L29.5784 3.26669ZM41.0081 3.26669C40.6161 3.07069 40.1868 2.90736 39.7201 2.77669C39.2628 2.63669 38.8288 2.56669 38.4181 2.56669C38.2221 2.56669 38.0261 2.58536 37.8301 2.62269C37.6434 2.66002 37.4754 2.72069 37.3261 2.80469C37.1861 2.87936 37.0694 2.98202 36.9761 3.11269C36.8921 3.23402 36.8501 3.37869 36.8501 3.54669C36.8501 3.72402 36.8968 3.88269 36.9901 4.02269C37.0928 4.15336 37.2281 4.27469 37.3961 4.38669C37.5641 4.48936 37.7601 4.58736 37.9841 4.68069C38.2081 4.76469 38.4508 4.84869 38.7121 4.93269C39.0854 5.06336 39.4728 5.20802 39.8741 5.36669C40.2848 5.52536 40.6581 5.72602 40.9941 5.96869C41.3301 6.21136 41.6054 6.51002 41.8201 6.86469C42.0441 7.21002 42.1561 7.63936 42.1561 8.15269C42.1561 8.61936 42.0628 9.03469 41.8761 9.39869C41.6894 9.75336 41.4281 10.0567 41.0921 10.3087C40.7561 10.5607 40.3548 10.752 39.8881 10.8827C39.4214 11.0134 38.9128 11.0787 38.3621 11.0787C37.6901 11.0787 37.0228 10.99 36.3601 10.8127C35.7068 10.626 35.1141 10.3834 34.5821 10.0847L35.2961 8.58669C35.4921 8.69869 35.7161 8.80602 35.9681 8.90869C36.2201 9.00202 36.4814 9.08602 36.7521 9.16069C37.0321 9.23536 37.3121 9.29602 37.5921 9.34269C37.8721 9.38936 38.1428 9.41269 38.4041 9.41269C38.9548 9.41269 39.3701 9.31469 39.6501 9.11869C39.9394 8.91336 40.0841 8.64269 40.0841 8.30669C40.0841 8.08269 40.0234 7.89136 39.9021 7.73269C39.7901 7.57402 39.6361 7.43402 39.4401 7.31269C39.2441 7.18202 39.0154 7.07002 38.7541 6.97669C38.5021 6.87402 38.2361 6.77136 37.9561 6.66869C37.5921 6.53802 37.2188 6.39802 36.8361 6.24869C36.4628 6.09936 36.1221 5.91269 35.8141 5.68869C35.5061 5.46469 35.2541 5.19402 35.0581 4.87669C34.8714 4.55936 34.7781 4.16269 34.7781 3.68669C34.7781 3.23869 34.8668 2.84202 35.0441 2.49669C35.2308 2.14202 35.4828 1.84802 35.8001 1.61469C36.1268 1.38136 36.5094 1.20402 36.9481 1.08269C37.3868 0.961357 37.8674 0.90069 38.3901 0.90069C38.9501 0.90069 39.5101 0.97069 40.0701 1.11069C40.6394 1.25069 41.1901 1.47002 41.7221 1.76869L41.0081 3.26669ZM49.4876 10.3087C49.0209 10.6074 48.5449 10.8127 48.0596 10.9247C47.5743 11.0274 47.1356 11.0787 46.7436 11.0787C46.2209 11.0787 45.7356 10.9947 45.2876 10.8267C44.8489 10.6587 44.4663 10.4114 44.1396 10.0847C43.8129 9.75802 43.5563 9.35669 43.3696 8.88069C43.1923 8.39536 43.1036 7.83536 43.1036 7.20069C43.1036 6.65936 43.1736 6.16002 43.3136 5.70269C43.4536 5.24536 43.6589 4.85336 43.9296 4.52669C44.2096 4.20002 44.5549 3.94336 44.9656 3.75669C45.3763 3.57002 45.8476 3.47669 46.3796 3.47669C46.8929 3.47669 47.3503 3.56069 47.7516 3.72869C48.1623 3.89669 48.5029 4.13002 48.7736 4.42869C49.0443 4.72736 49.2496 5.07736 49.3896 5.47869C49.5389 5.88002 49.6136 6.30936 49.6136 6.76669C49.6136 6.95336 49.6043 7.15402 49.5856 7.36869C49.5669 7.57402 49.5389 7.75602 49.5016 7.91469H45.0636C45.1756 8.45602 45.3903 8.86202 45.7076 9.13269C46.0343 9.39402 46.4496 9.52469 46.9536 9.52469C47.2709 9.52469 47.5883 9.47802 47.9056 9.38469C48.2323 9.28202 48.5589 9.13736 48.8856 8.95069L49.4876 10.3087ZM47.7376 6.62669C47.7189 6.13202 47.6023 5.74002 47.3876 5.45069C47.1729 5.16136 46.8463 5.01669 46.4076 5.01669C45.9503 5.01669 45.6143 5.17069 45.3996 5.47869C45.1849 5.77736 45.0543 6.16002 45.0076 6.62669H47.7376ZM56.8671 10.3507C56.5031 10.5934 56.1018 10.7754 55.6631 10.8967C55.2245 11.018 54.7718 11.0787 54.3051 11.0787C53.7731 11.0787 53.2831 10.9947 52.8351 10.8267C52.3871 10.6587 51.9951 10.416 51.6591 10.0987C51.3325 9.77202 51.0758 9.37536 50.8891 8.90869C50.7118 8.44202 50.6231 7.90536 50.6231 7.29869C50.6231 6.71069 50.7118 6.17869 50.8891 5.70269C51.0665 5.22669 51.3138 4.82536 51.6311 4.49869C51.9578 4.17202 52.3451 3.92002 52.7931 3.74269C53.2411 3.56536 53.7405 3.47669 54.2911 3.47669C54.7951 3.47669 55.2478 3.54669 55.6491 3.68669C56.0598 3.81736 56.4285 3.98536 56.7551 4.19069L56.1951 5.57669C55.8685 5.39002 55.5651 5.25469 55.2851 5.17069C55.0051 5.07736 54.7298 5.03069 54.4591 5.03069C53.8711 5.03069 53.4138 5.23136 53.0871 5.63269C52.7698 6.02469 52.6111 6.57536 52.6111 7.28469C52.6111 7.96602 52.7651 8.51202 53.0731 8.92269C53.3905 9.32402 53.8618 9.52469 54.4871 9.52469C54.7858 9.52469 55.0845 9.47802 55.3831 9.38469C55.6911 9.29136 55.9945 9.15602 56.2931 8.97869L56.8671 10.3507ZM62.6345 10.9387C62.6065 10.8454 62.5832 10.724 62.5645 10.5747C62.5458 10.4254 62.5272 10.2854 62.5085 10.1547C62.1818 10.416 61.8272 10.6354 61.4445 10.8127C61.0618 10.99 60.6465 11.0787 60.1985 11.0787C59.8065 11.0787 59.4658 11.0087 59.1765 10.8687C58.8965 10.7194 58.6632 10.5187 58.4765 10.2667C58.2992 10.0054 58.1685 9.70202 58.0845 9.35669C58.0005 9.01136 57.9585 8.63802 57.9585 8.23669V3.70069L59.9325 3.53269V8.11069C59.9325 8.55869 60.0072 8.90869 60.1565 9.16069C60.3058 9.40336 60.5672 9.52469 60.9405 9.52469C61.1552 9.52469 61.3838 9.48269 61.6265 9.39869C61.8692 9.31469 62.0978 9.20269 62.3125 9.06269V3.70069L64.2865 3.53269V8.93669C64.2865 9.20736 64.2958 9.52936 64.3145 9.90269C64.3332 10.276 64.3798 10.6214 64.4545 10.9387H62.6345ZM68.0002 10.9387H66.0262V3.70069L67.6082 3.53269L67.8042 4.65269C68.0749 4.29802 68.3595 4.01336 68.6582 3.79869C68.9569 3.58402 69.3022 3.47669 69.6942 3.47669C69.9462 3.47669 70.2262 3.52802 70.5342 3.63069L70.1702 5.35269C70.0115 5.29669 69.8669 5.26402 69.7362 5.25469C69.6055 5.23602 69.4889 5.22669 69.3862 5.22669C69.1062 5.22669 68.8589 5.26869 68.6442 5.35269C68.4389 5.43669 68.2242 5.56269 68.0002 5.73069V10.9387ZM73.5106 10.9387H71.5366V3.70069L73.5106 3.53269V10.9387ZM73.6786 1.23669C73.6786 1.55402 73.576 1.81069 73.3706 2.00669C73.1746 2.20269 72.89 2.30069 72.5166 2.30069C72.1433 2.30069 71.854 2.20269 71.6486 2.00669C71.4526 1.81069 71.3546 1.55402 71.3546 1.23669C71.3546 0.92869 71.4526 0.681357 71.6486 0.494689C71.854 0.29869 72.1433 0.20069 72.5166 0.20069C72.89 0.20069 73.1746 0.29869 73.3706 0.494689C73.576 0.681357 73.6786 0.92869 73.6786 1.23669ZM79.9864 10.7287C79.4544 10.962 78.9131 11.0787 78.3624 11.0787C77.5131 11.0787 76.8877 10.836 76.4864 10.3507C76.0944 9.85602 75.8984 9.14202 75.8984 8.20869V5.10069H74.5544V3.61669H75.8984V1.88069L77.8864 1.71269V3.61669H79.6924V5.10069H77.8864V7.92869C77.8864 8.41402 77.9471 8.80136 78.0684 9.09069C78.1991 9.38002 78.4557 9.52469 78.8384 9.52469C79.0811 9.52469 79.3471 9.47336 79.6364 9.37069L79.9864 10.7287ZM85.1956 10.0707C84.8876 10.948 84.4909 11.774 84.0056 12.5487C83.5296 13.3327 82.9789 13.9907 82.3536 14.5227L81.1496 13.2767C81.5789 12.8287 81.9383 12.4134 82.2276 12.0307C82.5263 11.648 82.7783 11.27 82.9836 10.8967L80.2816 3.61669H82.3816L83.9496 8.76869L85.4896 3.61669H87.4496L85.1956 10.0707Z" fill="#ACACAC"/>
</svg>
