<svg width="25" height="25" viewBox="0 0 25 25" fill="none" xmlns="http://www.w3.org/2000/svg">
<path d="M12.1445 22.2466C9.82786 21.6632 7.9152 20.3339 6.40653 18.2586C4.89787 16.1832 4.14387 13.8792 4.14453 11.3466V5.24658L12.1445 2.24658L20.1445 5.24658V11.3466C20.1445 13.8799 19.3902 16.1842 17.8815 18.2596C16.3729 20.3349 14.4605 21.6639 12.1445 22.2466ZM12.1445 20.1466C13.7612 19.6466 15.1112 18.6589 16.1945 17.1836C17.2779 15.7082 17.9112 14.0626 18.0945 12.2466H12.1445V4.37158L6.14453 6.62158V11.7966C6.14453 11.9132 6.1612 12.0632 6.19453 12.2466H12.1445V20.1466Z" fill="#2E2E2E"/>
</svg>
