<svg width="113" height="38" viewBox="0 0 113 38" fill="none" xmlns="http://www.w3.org/2000/svg">
<path d="M20.167 9.87567V18.3757H11.667V9.87567H20.167ZM20.167 27.8757H11.667V19.3757H20.167V27.8757ZM21.167 9.87567H29.667V18.3757H21.167V9.87567ZM29.667 19.3757V27.8757H21.167V19.3757H29.667Z" fill="#21CE99"/>
<path d="M49.3882 23.8757H47.9932V15.5507L44.7532 20.5457H44.0182L40.7782 15.5507V23.8757H39.3982V13.2707H40.9132L44.4382 18.7907L47.9632 13.2707H49.3882V23.8757ZM53.298 23.8757H51.963V16.1507L53.298 16.0307V23.8757ZM53.493 13.4357C53.493 13.6757 53.413 13.8757 53.253 14.0357C53.093 14.1957 52.883 14.2757 52.623 14.2757C52.363 14.2757 52.153 14.1957 51.993 14.0357C51.833 13.8757 51.753 13.6757 51.753 13.4357C51.753 13.1857 51.833 12.9857 51.993 12.8357C52.153 12.6857 52.363 12.6107 52.623 12.6107C52.883 12.6107 53.093 12.6857 53.253 12.8357C53.413 12.9857 53.493 13.1857 53.493 13.4357ZM61.5477 23.2907C61.1777 23.5407 60.7527 23.7257 60.2727 23.8457C59.8027 23.9657 59.3277 24.0257 58.8477 24.0257C58.2577 24.0257 57.7327 23.9307 57.2727 23.7407C56.8227 23.5407 56.4427 23.2657 56.1327 22.9157C55.8227 22.5557 55.5877 22.1307 55.4277 21.6407C55.2677 21.1407 55.1877 20.5907 55.1877 19.9907C55.1877 19.4107 55.2627 18.8757 55.4127 18.3857C55.5727 17.8957 55.8077 17.4707 56.1177 17.1107C56.4277 16.7507 56.8127 16.4707 57.2727 16.2707C57.7327 16.0707 58.2677 15.9707 58.8777 15.9707C59.3977 15.9707 59.8727 16.0407 60.3027 16.1807C60.7327 16.3207 61.1127 16.4957 61.4427 16.7057L60.9927 17.7557C60.5927 17.5457 60.2227 17.3907 59.8827 17.2907C59.5427 17.1807 59.2127 17.1257 58.8927 17.1257C58.1527 17.1257 57.5727 17.3757 57.1527 17.8757C56.7427 18.3657 56.5377 19.0707 56.5377 19.9907C56.5377 20.4007 56.5827 20.7857 56.6727 21.1457C56.7727 21.4957 56.9227 21.8007 57.1227 22.0607C57.3227 22.3107 57.5727 22.5107 57.8727 22.6607C58.1827 22.8007 58.5427 22.8707 58.9527 22.8707C59.3327 22.8707 59.7027 22.8157 60.0627 22.7057C60.4227 22.5857 60.7677 22.4307 61.0977 22.2407L61.5477 23.2907ZM64.4448 23.8757H63.1098V16.1507L64.3098 16.0307L64.4448 17.2157C64.7648 16.8257 65.0948 16.5207 65.4348 16.3007C65.7848 16.0807 66.1548 15.9707 66.5448 15.9707C66.8148 15.9707 67.1148 16.0257 67.4448 16.1357L67.1298 17.4257C66.9798 17.3757 66.8348 17.3457 66.6948 17.3357C66.5648 17.3157 66.4448 17.3057 66.3348 17.3057C65.9448 17.3057 65.6048 17.3807 65.3148 17.5307C65.0248 17.6807 64.7348 17.8857 64.4448 18.1457V23.8757ZM72.7154 22.6457C73.0054 22.4957 73.2454 22.2957 73.4354 22.0457C73.6254 21.7857 73.7654 21.4807 73.8554 21.1307C73.9454 20.7807 73.9904 20.4007 73.9904 19.9907C73.9904 19.5907 73.9454 19.2157 73.8554 18.8657C73.7654 18.5157 73.6254 18.2157 73.4354 17.9657C73.2454 17.7057 73.0054 17.5007 72.7154 17.3507C72.4254 17.2007 72.0804 17.1257 71.6804 17.1257C71.2704 17.1257 70.9204 17.2007 70.6304 17.3507C70.3404 17.5007 70.0954 17.7057 69.8954 17.9657C69.7054 18.2157 69.5654 18.5157 69.4754 18.8657C69.3854 19.2157 69.3404 19.5907 69.3404 19.9907C69.3404 20.4007 69.3854 20.7807 69.4754 21.1307C69.5654 21.4807 69.7054 21.7857 69.8954 22.0457C70.0954 22.2957 70.3404 22.4957 70.6304 22.6457C70.9204 22.7957 71.2704 22.8707 71.6804 22.8707C72.0804 22.8707 72.4254 22.7957 72.7154 22.6457ZM74.3954 22.9157C74.0954 23.2657 73.7154 23.5407 73.2554 23.7407C72.8054 23.9307 72.2804 24.0257 71.6804 24.0257C71.0804 24.0257 70.5504 23.9307 70.0904 23.7407C69.6404 23.5407 69.2554 23.2657 68.9354 22.9157C68.6254 22.5557 68.3904 22.1307 68.2304 21.6407C68.0704 21.1407 67.9904 20.5907 67.9904 19.9907C67.9904 19.4007 68.0704 18.8607 68.2304 18.3707C68.3904 17.8707 68.6254 17.4457 68.9354 17.0957C69.2554 16.7357 69.6404 16.4607 70.0904 16.2707C70.5504 16.0707 71.0804 15.9707 71.6804 15.9707C72.2704 15.9707 72.7904 16.0707 73.2404 16.2707C73.7004 16.4607 74.0854 16.7357 74.3954 17.0957C74.7054 17.4457 74.9404 17.8707 75.1004 18.3707C75.2604 18.8607 75.3404 19.4007 75.3404 19.9907C75.3404 20.5907 75.2604 21.1407 75.1004 21.6407C74.9404 22.1307 74.7054 22.5557 74.3954 22.9157ZM81.7466 17.7557C81.3466 17.5557 80.9616 17.3957 80.5916 17.2757C80.2216 17.1557 79.8566 17.0957 79.4966 17.0957C79.3066 17.0957 79.1216 17.1157 78.9416 17.1557C78.7716 17.1957 78.6166 17.2557 78.4766 17.3357C78.3466 17.4157 78.2416 17.5157 78.1616 17.6357C78.0816 17.7457 78.0416 17.8807 78.0416 18.0407C78.0416 18.2107 78.0866 18.3657 78.1766 18.5057C78.2766 18.6357 78.4066 18.7557 78.5666 18.8657C78.7266 18.9657 78.9166 19.0607 79.1366 19.1507C79.3566 19.2307 79.5866 19.3107 79.8266 19.3907C80.1266 19.4907 80.4266 19.6007 80.7266 19.7207C81.0266 19.8407 81.3016 19.9957 81.5516 20.1857C81.8016 20.3657 82.0016 20.5907 82.1516 20.8607C82.3116 21.1307 82.3916 21.4607 82.3916 21.8507C82.3916 22.2607 82.3066 22.6057 82.1366 22.8857C81.9766 23.1557 81.7566 23.3757 81.4766 23.5457C81.2066 23.7157 80.8916 23.8357 80.5316 23.9057C80.1716 23.9857 79.7966 24.0257 79.4066 24.0257C78.9166 24.0257 78.4316 23.9707 77.9516 23.8607C77.4716 23.7407 77.0266 23.5507 76.6166 23.2907L77.0816 22.2407C77.4716 22.4407 77.8766 22.6007 78.2966 22.7207C78.7266 22.8407 79.1366 22.9007 79.5266 22.9007C79.7166 22.9007 79.9016 22.8857 80.0816 22.8557C80.2716 22.8157 80.4366 22.7607 80.5766 22.6907C80.7266 22.6107 80.8416 22.5057 80.9216 22.3757C81.0116 22.2457 81.0566 22.0907 81.0566 21.9107C81.0566 21.7307 81.0066 21.5707 80.9066 21.4307C80.8066 21.2907 80.6716 21.1707 80.5016 21.0707C80.3316 20.9607 80.1266 20.8607 79.8866 20.7707C79.6466 20.6707 79.3916 20.5757 79.1216 20.4857C78.8316 20.3857 78.5416 20.2757 78.2516 20.1557C77.9616 20.0257 77.7016 19.8707 77.4716 19.6907C77.2416 19.5107 77.0566 19.2957 76.9166 19.0457C76.7766 18.7857 76.7066 18.4807 76.7066 18.1307C76.7066 17.7707 76.7816 17.4557 76.9316 17.1857C77.0816 16.9157 77.2816 16.6907 77.5316 16.5107C77.7916 16.3307 78.0916 16.1957 78.4316 16.1057C78.7716 16.0157 79.1366 15.9707 79.5266 15.9707C79.9666 15.9707 80.4216 16.0307 80.8916 16.1507C81.3616 16.2607 81.7966 16.4457 82.1966 16.7057L81.7466 17.7557ZM88.3893 22.6457C88.6793 22.4957 88.9193 22.2957 89.1093 22.0457C89.2993 21.7857 89.4393 21.4807 89.5293 21.1307C89.6193 20.7807 89.6643 20.4007 89.6643 19.9907C89.6643 19.5907 89.6193 19.2157 89.5293 18.8657C89.4393 18.5157 89.2993 18.2157 89.1093 17.9657C88.9193 17.7057 88.6793 17.5007 88.3893 17.3507C88.0993 17.2007 87.7543 17.1257 87.3543 17.1257C86.9443 17.1257 86.5943 17.2007 86.3043 17.3507C86.0143 17.5007 85.7693 17.7057 85.5693 17.9657C85.3793 18.2157 85.2393 18.5157 85.1493 18.8657C85.0593 19.2157 85.0143 19.5907 85.0143 19.9907C85.0143 20.4007 85.0593 20.7807 85.1493 21.1307C85.2393 21.4807 85.3793 21.7857 85.5693 22.0457C85.7693 22.2957 86.0143 22.4957 86.3043 22.6457C86.5943 22.7957 86.9443 22.8707 87.3543 22.8707C87.7543 22.8707 88.0993 22.7957 88.3893 22.6457ZM90.0693 22.9157C89.7693 23.2657 89.3893 23.5407 88.9293 23.7407C88.4793 23.9307 87.9543 24.0257 87.3543 24.0257C86.7543 24.0257 86.2243 23.9307 85.7643 23.7407C85.3143 23.5407 84.9293 23.2657 84.6093 22.9157C84.2993 22.5557 84.0643 22.1307 83.9043 21.6407C83.7443 21.1407 83.6643 20.5907 83.6643 19.9907C83.6643 19.4007 83.7443 18.8607 83.9043 18.3707C84.0643 17.8707 84.2993 17.4457 84.6093 17.0957C84.9293 16.7357 85.3143 16.4607 85.7643 16.2707C86.2243 16.0707 86.7543 15.9707 87.3543 15.9707C87.9443 15.9707 88.4643 16.0707 88.9143 16.2707C89.3743 16.4607 89.7593 16.7357 90.0693 17.0957C90.3793 17.4457 90.6143 17.8707 90.7743 18.3707C90.9343 18.8607 91.0143 19.4007 91.0143 19.9907C91.0143 20.5907 90.9343 21.1407 90.7743 21.6407C90.6143 22.1307 90.3793 22.5557 90.0693 22.9157ZM94.9154 23.8757H93.5804V17.2157H91.8854V16.1207H93.5804V15.5657C93.5804 14.5757 93.7954 13.8207 94.2254 13.3007C94.6554 12.7807 95.3604 12.5207 96.3404 12.5207C96.6004 12.5207 96.8354 12.5407 97.0454 12.5807C97.2654 12.6107 97.5054 12.6607 97.7654 12.7307L97.5404 13.8407C97.3104 13.7807 97.1054 13.7407 96.9254 13.7207C96.7554 13.6907 96.5854 13.6757 96.4154 13.6757C96.0754 13.6757 95.8054 13.7257 95.6054 13.8257C95.4054 13.9157 95.2554 14.0557 95.1554 14.2457C95.0554 14.4257 94.9904 14.6507 94.9604 14.9207C94.9304 15.1907 94.9154 15.5007 94.9154 15.8507V16.1207H96.9854V17.2157H94.9154V23.8757ZM103.349 23.7407C103.089 23.8507 102.864 23.9257 102.674 23.9657C102.484 24.0057 102.279 24.0257 102.059 24.0257C101.609 24.0257 101.229 23.9557 100.919 23.8157C100.619 23.6657 100.374 23.4607 100.184 23.2007C100.004 22.9307 99.8742 22.6107 99.7942 22.2407C99.7142 21.8607 99.6742 21.4457 99.6742 20.9957V17.2157H97.9792V16.1207H99.6742V14.2007L101.009 14.0807V16.1207H103.034V17.2157H101.009V20.8307C101.009 21.0707 101.019 21.3157 101.039 21.5657C101.059 21.8057 101.104 22.0257 101.174 22.2257C101.254 22.4157 101.369 22.5707 101.519 22.6907C101.669 22.8107 101.874 22.8707 102.134 22.8707C102.444 22.8707 102.764 22.8157 103.094 22.7057L103.349 23.7407Z" fill="#1DBF73"/>
<rect x="0.533203" y="0.875671" width="111" height="36" stroke="#1DBF73"/>
</svg>
