<svg width="113" height="38" viewBox="0 0 113 38" fill="none" xmlns="http://www.w3.org/2000/svg">
<path d="M55.3782 23.2457C55.1682 23.3557 54.9232 23.4607 54.6432 23.5607C54.3732 23.6507 54.0832 23.7307 53.7732 23.8007C53.4632 23.8707 53.1432 23.9257 52.8132 23.9657C52.4832 24.0057 52.1582 24.0257 51.8382 24.0257C50.9682 24.0257 50.2182 23.8807 49.5882 23.5907C48.9582 23.2907 48.4382 22.8957 48.0282 22.4057C47.6282 21.9057 47.3282 21.3257 47.1282 20.6657C46.9382 20.0057 46.8432 19.3157 46.8432 18.5957C46.8432 17.8657 46.9382 17.1707 47.1282 16.5107C47.3282 15.8507 47.6282 15.2707 48.0282 14.7707C48.4382 14.2707 48.9482 13.8707 49.5582 13.5707C50.1782 13.2707 50.9082 13.1207 51.7482 13.1207C52.4282 13.1207 53.0682 13.2107 53.6682 13.3907C54.2782 13.5607 54.8132 13.7807 55.2732 14.0507L54.7632 15.1907C54.1332 14.8807 53.5582 14.6707 53.0382 14.5607C52.5182 14.4507 52.0782 14.3957 51.7182 14.3957C51.1082 14.3957 50.5832 14.5107 50.1432 14.7407C49.7132 14.9707 49.3582 15.2807 49.0782 15.6707C48.8082 16.0607 48.6082 16.5107 48.4782 17.0207C48.3482 17.5307 48.2832 18.0657 48.2832 18.6257C48.2832 19.1557 48.3432 19.6707 48.4632 20.1707C48.5832 20.6607 48.7832 21.1007 49.0632 21.4907C49.3532 21.8707 49.7282 22.1757 50.1882 22.4057C50.6582 22.6357 51.2382 22.7507 51.9282 22.7507C52.1482 22.7507 52.4332 22.7307 52.7832 22.6907C53.1432 22.6507 53.5482 22.5607 53.9982 22.4207V19.4507H51.5832V18.2507H55.3782V23.2457ZM61.8775 22.6457C62.1675 22.4957 62.4075 22.2957 62.5975 22.0457C62.7875 21.7857 62.9275 21.4807 63.0175 21.1307C63.1075 20.7807 63.1525 20.4007 63.1525 19.9907C63.1525 19.5907 63.1075 19.2157 63.0175 18.8657C62.9275 18.5157 62.7875 18.2157 62.5975 17.9657C62.4075 17.7057 62.1675 17.5007 61.8775 17.3507C61.5875 17.2007 61.2425 17.1257 60.8425 17.1257C60.4325 17.1257 60.0825 17.2007 59.7925 17.3507C59.5025 17.5007 59.2575 17.7057 59.0575 17.9657C58.8675 18.2157 58.7275 18.5157 58.6375 18.8657C58.5475 19.2157 58.5025 19.5907 58.5025 19.9907C58.5025 20.4007 58.5475 20.7807 58.6375 21.1307C58.7275 21.4807 58.8675 21.7857 59.0575 22.0457C59.2575 22.2957 59.5025 22.4957 59.7925 22.6457C60.0825 22.7957 60.4325 22.8707 60.8425 22.8707C61.2425 22.8707 61.5875 22.7957 61.8775 22.6457ZM63.5575 22.9157C63.2575 23.2657 62.8775 23.5407 62.4175 23.7407C61.9675 23.9307 61.4425 24.0257 60.8425 24.0257C60.2425 24.0257 59.7125 23.9307 59.2525 23.7407C58.8025 23.5407 58.4175 23.2657 58.0975 22.9157C57.7875 22.5557 57.5525 22.1307 57.3925 21.6407C57.2325 21.1407 57.1525 20.5907 57.1525 19.9907C57.1525 19.4007 57.2325 18.8607 57.3925 18.3707C57.5525 17.8707 57.7875 17.4457 58.0975 17.0957C58.4175 16.7357 58.8025 16.4607 59.2525 16.2707C59.7125 16.0707 60.2425 15.9707 60.8425 15.9707C61.4325 15.9707 61.9525 16.0707 62.4025 16.2707C62.8625 16.4607 63.2475 16.7357 63.5575 17.0957C63.8675 17.4457 64.1025 17.8707 64.2625 18.3707C64.4225 18.8607 64.5025 19.4007 64.5025 19.9907C64.5025 20.5907 64.4225 21.1407 64.2625 21.6407C64.1025 22.1307 63.8675 22.5557 63.5575 22.9157ZM70.5787 22.6457C70.8687 22.4957 71.1087 22.2957 71.2987 22.0457C71.4887 21.7857 71.6287 21.4807 71.7187 21.1307C71.8087 20.7807 71.8537 20.4007 71.8537 19.9907C71.8537 19.5907 71.8087 19.2157 71.7187 18.8657C71.6287 18.5157 71.4887 18.2157 71.2987 17.9657C71.1087 17.7057 70.8687 17.5007 70.5787 17.3507C70.2887 17.2007 69.9437 17.1257 69.5437 17.1257C69.1337 17.1257 68.7837 17.2007 68.4937 17.3507C68.2037 17.5007 67.9587 17.7057 67.7587 17.9657C67.5687 18.2157 67.4287 18.5157 67.3387 18.8657C67.2487 19.2157 67.2037 19.5907 67.2037 19.9907C67.2037 20.4007 67.2487 20.7807 67.3387 21.1307C67.4287 21.4807 67.5687 21.7857 67.7587 22.0457C67.9587 22.2957 68.2037 22.4957 68.4937 22.6457C68.7837 22.7957 69.1337 22.8707 69.5437 22.8707C69.9437 22.8707 70.2887 22.7957 70.5787 22.6457ZM72.2587 22.9157C71.9587 23.2657 71.5787 23.5407 71.1187 23.7407C70.6687 23.9307 70.1437 24.0257 69.5437 24.0257C68.9437 24.0257 68.4137 23.9307 67.9537 23.7407C67.5037 23.5407 67.1187 23.2657 66.7987 22.9157C66.4887 22.5557 66.2537 22.1307 66.0937 21.6407C65.9337 21.1407 65.8537 20.5907 65.8537 19.9907C65.8537 19.4007 65.9337 18.8607 66.0937 18.3707C66.2537 17.8707 66.4887 17.4457 66.7987 17.0957C67.1187 16.7357 67.5037 16.4607 67.9537 16.2707C68.4137 16.0707 68.9437 15.9707 69.5437 15.9707C70.1337 15.9707 70.6537 16.0707 71.1037 16.2707C71.5637 16.4607 71.9487 16.7357 72.2587 17.0957C72.5687 17.4457 72.8037 17.8707 72.9637 18.3707C73.1237 18.8607 73.2037 19.4007 73.2037 19.9907C73.2037 20.5907 73.1237 21.1407 72.9637 21.6407C72.8037 22.1307 72.5687 22.5557 72.2587 22.9157ZM81.3949 23.5307C81.3949 24.1507 81.3299 24.7057 81.1999 25.1957C81.0699 25.6857 80.8649 26.1007 80.5849 26.4407C80.3049 26.7907 79.9399 27.0557 79.4899 27.2357C79.0499 27.4157 78.5199 27.5057 77.8999 27.5057C77.3799 27.5057 76.8999 27.4457 76.4599 27.3257C76.0299 27.2057 75.5899 27.0207 75.1399 26.7707L75.5899 25.7207C75.9799 25.9207 76.3549 26.0757 76.7149 26.1857C77.0749 26.3057 77.4399 26.3657 77.8099 26.3657C78.2399 26.3657 78.5949 26.3007 78.8749 26.1707C79.1649 26.0407 79.3949 25.8507 79.5649 25.6007C79.7449 25.3607 79.8699 25.0657 79.9399 24.7157C80.0199 24.3757 80.0599 23.9907 80.0599 23.5607V23.1407C79.7399 23.3707 79.3699 23.5657 78.9499 23.7257C78.5399 23.8757 78.1099 23.9507 77.6599 23.9507C77.1599 23.9507 76.7149 23.8457 76.3249 23.6357C75.9449 23.4157 75.6199 23.1257 75.3499 22.7657C75.0899 22.4057 74.8899 21.9907 74.7499 21.5207C74.6199 21.0507 74.5549 20.5657 74.5549 20.0657C74.5549 19.5157 74.6299 18.9907 74.7799 18.4907C74.9399 17.9907 75.1699 17.5557 75.4699 17.1857C75.7699 16.8157 76.1349 16.5207 76.5649 16.3007C77.0049 16.0807 77.5049 15.9707 78.0649 15.9707C78.3949 15.9707 78.7299 16.0207 79.0699 16.1207C79.4199 16.2107 79.7599 16.3707 80.0899 16.6007L80.1649 16.1507L81.3949 16.0307V23.5307ZM80.0599 17.6807C79.7699 17.4907 79.4599 17.3507 79.1299 17.2607C78.8099 17.1707 78.5049 17.1257 78.2149 17.1257C77.8049 17.1257 77.4549 17.2057 77.1649 17.3657C76.8749 17.5257 76.6349 17.7457 76.4449 18.0257C76.2549 18.2957 76.1149 18.6157 76.0249 18.9857C75.9449 19.3457 75.9049 19.7307 75.9049 20.1407C75.9049 20.4907 75.9449 20.8257 76.0249 21.1457C76.1049 21.4657 76.2299 21.7507 76.3999 22.0007C76.5799 22.2407 76.7999 22.4357 77.0599 22.5857C77.3299 22.7257 77.6449 22.7957 78.0049 22.7957C78.2949 22.7957 78.6249 22.7507 78.9949 22.6607C79.3649 22.5607 79.7199 22.4007 80.0599 22.1807V17.6807ZM85.1311 23.8757H83.7961V12.7007L85.1311 12.5807V23.8757ZM93.3807 23.2907C93.0107 23.5407 92.5857 23.7257 92.1057 23.8457C91.6257 23.9657 91.1607 24.0257 90.7107 24.0257C90.1007 24.0257 89.5657 23.9257 89.1057 23.7257C88.6457 23.5257 88.2607 23.2457 87.9507 22.8857C87.6407 22.5157 87.4057 22.0807 87.2457 21.5807C87.0957 21.0707 87.0207 20.5157 87.0207 19.9157C87.0207 19.3857 87.0807 18.8807 87.2007 18.4007C87.3307 17.9207 87.5307 17.5007 87.8007 17.1407C88.0707 16.7807 88.4107 16.4957 88.8207 16.2857C89.2407 16.0757 89.7407 15.9707 90.3207 15.9707C90.8407 15.9707 91.3007 16.0607 91.7007 16.2407C92.1007 16.4107 92.4357 16.6507 92.7057 16.9607C92.9757 17.2707 93.1807 17.6457 93.3207 18.0857C93.4607 18.5157 93.5307 18.9857 93.5307 19.4957C93.5307 19.8657 93.5007 20.1907 93.4407 20.4707H88.3707C88.4507 21.2107 88.6857 21.7957 89.0757 22.2257C89.4657 22.6557 90.0307 22.8707 90.7707 22.8707C91.1507 22.8707 91.5207 22.8157 91.8807 22.7057C92.2507 22.5857 92.6007 22.4307 92.9307 22.2407L93.3807 23.2907ZM92.2107 19.4057C92.2007 19.0757 92.1557 18.7707 92.0757 18.4907C91.9957 18.2007 91.8807 17.9557 91.7307 17.7557C91.5807 17.5457 91.3907 17.3857 91.1607 17.2757C90.9307 17.1557 90.6557 17.0957 90.3357 17.0957C90.0057 17.0957 89.7207 17.1557 89.4807 17.2757C89.2507 17.3957 89.0557 17.5607 88.8957 17.7707C88.7457 17.9807 88.6257 18.2257 88.5357 18.5057C88.4457 18.7857 88.3857 19.0857 88.3557 19.4057H92.2107Z" fill="#1DBF73"/>
<path d="M21.4744 14.7598C22.237 13.2412 23.407 11.9645 24.8536 11.0725C26.3001 10.1806 27.9662 9.70848 29.6657 9.70902C32.1361 9.70902 34.2114 10.6174 35.7982 12.0969L33.1701 14.7259C32.2195 13.8175 31.0114 13.3546 29.6657 13.3546C27.2778 13.3546 25.2565 14.9679 24.5369 17.134C24.3536 17.684 24.2491 18.2707 24.2491 18.8757C24.2491 19.4807 24.3536 20.0673 24.5369 20.6173C25.2574 22.7843 27.2778 24.3968 29.6657 24.3968C30.8986 24.3968 31.9482 24.0713 32.7695 23.5213C33.2457 23.2079 33.6533 22.8011 33.9678 22.3256C34.2823 21.85 34.4971 21.3157 34.5992 20.7548H29.6657V17.2092H38.2989C38.407 17.8087 38.4657 18.4338 38.4657 19.0838C38.4657 21.8759 37.4665 24.2263 35.7322 25.8213C34.216 27.2219 32.1407 28.0423 29.6657 28.0423C28.4618 28.0428 27.2696 27.8061 26.1572 27.3456C25.0448 26.8851 24.0341 26.2099 23.1828 25.3586C22.3315 24.5073 21.6563 23.4966 21.1958 22.3842C20.7353 21.2718 20.4985 20.0796 20.499 18.8757C20.499 17.3962 20.8529 15.9973 21.4744 14.7598Z" fill="#21CE99"/>
<rect x="0.533203" y="0.875671" width="111" height="36" stroke="#1DBF73"/>
</svg>
