<svg width="92" height="92" viewBox="0 0 92 92" fill="none" xmlns="http://www.w3.org/2000/svg">
<g filter="url(#filter0_d_266_9)">
<circle cx="45.8883" cy="42.3834" r="41.4196" fill="white"/>
<circle cx="45.8883" cy="42.3834" r="40.4196" stroke="#21CE99" stroke-width="2"/>
</g>
<path fill-rule="evenodd" clip-rule="evenodd" d="M25.6341 39.7168C25.6341 40.424 25.9151 41.1023 26.4152 41.6024C26.9153 42.1025 27.5935 42.3834 28.3008 42.3834C29.008 42.3834 29.6863 42.1025 30.1864 41.6024C30.6865 41.1023 30.9674 40.424 30.9674 39.7168V33.0501C30.9674 32.3428 30.6865 31.6646 30.1864 31.1645C29.6863 30.6644 29.008 30.3834 28.3008 30.3834C27.5935 30.3834 26.9153 30.6644 26.4152 31.1645C25.9151 31.6646 25.6341 32.3428 25.6341 33.0501V39.7168ZM14.9674 37.0501C14.2602 37.0501 13.5819 37.331 13.0818 37.8311C12.5817 38.3312 12.3008 39.0095 12.3008 39.7168C12.3008 40.424 12.5817 41.1023 13.0818 41.6024C13.5819 42.1025 14.2602 42.3834 14.9674 42.3834H21.6341C22.3414 42.3834 23.0196 42.1025 23.5197 41.6024C24.0198 41.1023 24.3008 40.424 24.3008 39.7168C24.3008 39.0095 24.0198 38.3312 23.5197 37.8311C23.0196 37.331 22.3414 37.0501 21.6341 37.0501H14.9674ZM28.3008 43.7168C27.5935 43.7168 26.9153 43.9977 26.4152 44.4978C25.9151 44.9979 25.6341 45.6762 25.6341 46.3834C25.6341 47.0907 25.9151 47.7689 26.4152 48.269C26.9153 48.7691 27.5935 49.0501 28.3008 49.0501H34.9674C35.6747 49.0501 36.353 48.7691 36.8531 48.269C37.3532 47.7689 37.6341 47.0907 37.6341 46.3834C37.6341 45.6762 37.3532 44.9979 36.8531 44.4978C36.353 43.9977 35.6747 43.7168 34.9674 43.7168H28.3008ZM21.6341 55.7168C20.9269 55.7168 20.2486 55.4358 19.7485 54.9357C19.2484 54.4356 18.9674 53.7573 18.9674 53.0501V46.3834C18.9674 45.6762 19.2484 44.9979 19.7485 44.4978C20.2486 43.9977 20.9269 43.7168 21.6341 43.7168C22.3414 43.7168 23.0196 43.9977 23.5197 44.4978C24.0198 44.9979 24.3008 45.6762 24.3008 46.3834V53.0501C24.3008 53.7573 24.0198 54.4356 23.5197 54.9357C23.0196 55.4358 22.3414 55.7168 21.6341 55.7168ZM18.9674 33.0501C18.9674 32.3428 19.2484 31.6646 19.7485 31.1645C20.2486 30.6644 20.9269 30.3834 21.6341 30.3834C22.3414 30.3834 23.0196 30.6644 23.5197 31.1645C24.0198 31.6646 24.3008 32.3428 24.3008 33.0501V35.7168H21.6341C20.9269 35.7168 20.2486 35.4358 19.7485 34.9357C19.2484 34.4356 18.9674 33.7573 18.9674 33.0501ZM12.3008 46.3834C12.3008 47.0907 12.5817 47.7689 13.0818 48.269C13.5819 48.7691 14.2602 49.0501 14.9674 49.0501C15.6747 49.0501 16.353 48.7691 16.8531 48.269C17.3532 47.7689 17.6341 47.0907 17.6341 46.3834V43.7168H14.9674C14.2602 43.7168 13.5819 43.9977 13.0818 44.4978C12.5817 44.9979 12.3008 45.6762 12.3008 46.3834ZM30.9674 53.0501C30.9674 53.7573 30.6865 54.4356 30.1864 54.9357C29.6863 55.4358 29.008 55.7168 28.3008 55.7168C27.5935 55.7168 26.9153 55.4358 26.4152 54.9357C25.9151 54.4356 25.6341 53.7573 25.6341 53.0501V50.3834H28.3008C29.008 50.3834 29.6863 50.6644 30.1864 51.1645C30.6865 51.6646 30.9674 52.3428 30.9674 53.0501ZM37.6341 39.7168C37.6341 39.0095 37.3532 38.3312 36.8531 37.8311C36.353 37.331 35.6747 37.0501 34.9674 37.0501C34.2602 37.0501 33.5819 37.331 33.0818 37.8311C32.5817 38.3312 32.3008 39.0095 32.3008 39.7168V42.3834H34.9674C35.6747 42.3834 36.353 42.1025 36.8531 41.6024C37.3532 41.1023 37.6341 40.424 37.6341 39.7168Z" fill="#2DC57D"/>
<path d="M62.8906 47.8353H66.309V54.0501H62.8906V47.8353ZM75.7636 31.8566C73.9273 30.879 72.6556 30.7168 69.6526 30.7168H62.8906V44.8615H69.6223C72.301 44.8615 74.2983 44.6981 76.0588 43.5303C76.9988 42.885 77.7594 42.0116 78.2694 40.9919C78.7793 39.9721 79.0219 38.8396 78.9743 37.7005C79.0279 36.5252 78.7566 35.358 78.1902 34.3269C77.6238 33.2957 76.7842 32.4418 75.7636 31.8566ZM70.4075 41.9016H66.309V33.7501L70.1706 33.7198C73.6916 33.6755 75.4521 34.9191 75.4521 37.7296C75.4521 40.749 73.2775 41.9028 70.4075 41.9028V41.9016Z" fill="#263238"/>
<path d="M41.8914 43.5835C41.5731 43.5835 41.2679 43.457 41.0429 43.232C40.8178 43.007 40.6914 42.7017 40.6914 42.3835C40.6914 42.0652 40.8178 41.76 41.0429 41.5349C41.2679 41.3099 41.5731 41.1835 41.8914 41.1835H53.8914C54.2097 41.1835 54.5149 41.3099 54.7399 41.5349C54.965 41.76 55.0914 42.0652 55.0914 42.3835C55.0914 42.7017 54.965 43.007 54.7399 43.232C54.5149 43.457 54.2097 43.5835 53.8914 43.5835H41.8914Z" fill="#92E3A9"/>
<path d="M46.6914 36.3835C46.6914 36.0652 46.8178 35.76 47.0429 35.5349C47.2679 35.3099 47.5731 35.1835 47.8914 35.1835C48.2097 35.1835 48.5149 35.3099 48.7399 35.5349C48.965 35.76 49.0914 36.0652 49.0914 36.3835V48.3835C49.0914 48.7017 48.965 49.007 48.7399 49.232C48.5149 49.457 48.2097 49.5835 47.8914 49.5835C47.5731 49.5835 47.2679 49.457 47.0429 49.232C46.8178 49.007 46.6914 48.7017 46.6914 48.3835V36.3835Z" fill="#92E3A9"/>
<defs>
<filter id="filter0_d_266_9" x="0.46875" y="0.963867" width="90.8391" height="90.8391" filterUnits="userSpaceOnUse" color-interpolation-filters="sRGB">
<feFlood flood-opacity="0" result="BackgroundImageFix"/>
<feColorMatrix in="SourceAlpha" type="matrix" values="0 0 0 0 0 0 0 0 0 0 0 0 0 0 0 0 0 0 127 0" result="hardAlpha"/>
<feOffset dy="4"/>
<feGaussianBlur stdDeviation="2"/>
<feComposite in2="hardAlpha" operator="out"/>
<feColorMatrix type="matrix" values="0 0 0 0 0 0 0 0 0 0 0 0 0 0 0 0 0 0 0.25 0"/>
<feBlend mode="normal" in2="BackgroundImageFix" result="effect1_dropShadow_266_9"/>
<feBlend mode="normal" in="SourceGraphic" in2="effect1_dropShadow_266_9" result="shape"/>
</filter>
</defs>
</svg>
