<svg width="101" height="68" viewBox="0 0 101 68" fill="none" xmlns="http://www.w3.org/2000/svg">
<path d="M80.9352 26.0168L81.0093 26.3924L81.3913 26.4188C91.9676 27.151 100.301 35.8545 100.301 46.5867C100.301 57.8105 91.1913 66.92 79.9674 66.92H25.8008C12.2853 66.92 1.30078 55.9355 1.30078 42.42C1.30008 36.3836 3.53012 30.5599 7.5624 26.0679C11.5947 21.5758 17.1447 18.7323 23.1462 18.0838L23.4123 18.055L23.5359 17.8177C28.6617 7.97619 38.9531 1.25336 50.8008 1.25336L50.8009 1.25336C57.9147 1.25175 64.8083 3.72 70.3044 8.23651C75.8005 12.753 79.5581 19.0376 80.9352 26.0168Z" stroke="#1DBF73"/>
</svg>
