<svg width="367" height="305" viewBox="0 0 367 305" fill="none" xmlns="http://www.w3.org/2000/svg">
<g filter="url(#filter0_d_619_603)">
<rect x="14" y="14.8354" width="338.479" height="275.291" rx="10" fill="white"/>
<rect x="14.5" y="15.3354" width="337.479" height="274.291" rx="9.5" stroke="#E7E7E7"/>
</g>
<mask id="mask0_619_603" style="mask-type:alpha" maskUnits="userSpaceOnUse" x="14" y="14" width="339" height="277">
<rect x="14.5" y="15.3354" width="337.479" height="274.291" rx="9.5" fill="white" stroke="#E7E7E7"/>
</mask>
<g mask="url(#mask0_619_603)">
<path d="M252.597 187.007C319.379 264.527 407.569 183.045 372.351 81.3169C357.751 39.0505 337.716 10.4472 356.402 -34.1856C361.006 -45.2841 364.664 -56.8049 368.717 -68.094C376.255 -89.0147 367.734 -121.478 342.849 -139.924C306.726 -166.819 265.019 -185.711 222.96 -201.493C167.788 -222.048 110.697 -217.457 92.7295 -159.267C82.3317 -125.694 87.2981 -95.3156 56.1281 -77.2447C37.8784 -66.5879 25.5092 -58.9831 16.5235 -37.8501C0.335916 -0.243092 -0.990949 -12.2995 -18.7621 5.27218C-61.7056 47.2194 -27.2932 112.783 31.5047 128.698C70.7171 139.361 104.717 121.888 125.024 115.888C198.126 94.02 198.346 124.136 252.597 187.007Z" fill="#E7E7E7"/>
</g>
<rect x="111.49" y="234.746" width="150" height="35.38" rx="17.69" fill="#E7E7E7"/>
<path d="M133.498 255.696C134.149 256.08 134.778 256.352 135.386 256.512C136.005 256.661 136.56 256.736 137.05 256.736C137.786 256.736 138.384 256.592 138.842 256.304C139.312 256.005 139.546 255.573 139.546 255.008C139.546 254.688 139.466 254.416 139.306 254.192C139.146 253.968 138.933 253.771 138.666 253.6C138.41 253.429 138.106 253.285 137.754 253.168C137.413 253.04 137.061 252.912 136.698 252.784C136.282 252.645 135.866 252.496 135.45 252.336C135.045 252.176 134.677 251.979 134.346 251.744C134.016 251.499 133.749 251.2 133.546 250.848C133.344 250.496 133.242 250.053 133.242 249.52C133.242 248.976 133.349 248.512 133.562 248.128C133.786 247.744 134.074 247.429 134.426 247.184C134.789 246.928 135.2 246.747 135.658 246.64C136.128 246.523 136.602 246.464 137.082 246.464C137.744 246.464 138.384 246.555 139.002 246.736C139.632 246.917 140.192 247.163 140.682 247.472L140.122 248.704C139.589 248.427 139.072 248.213 138.57 248.064C138.069 247.904 137.578 247.824 137.098 247.824C136.81 247.824 136.528 247.856 136.25 247.92C135.973 247.973 135.722 248.064 135.498 248.192C135.285 248.32 135.109 248.485 134.97 248.688C134.842 248.891 134.778 249.136 134.778 249.424C134.778 249.701 134.842 249.941 134.97 250.144C135.109 250.336 135.29 250.507 135.514 250.656C135.738 250.805 136 250.939 136.298 251.056C136.608 251.173 136.933 251.291 137.274 251.408C137.701 251.557 138.138 251.717 138.586 251.888C139.034 252.059 139.44 252.277 139.802 252.544C140.176 252.811 140.48 253.136 140.714 253.52C140.96 253.904 141.082 254.379 141.082 254.944C141.082 255.456 140.976 255.909 140.762 256.304C140.56 256.699 140.277 257.029 139.914 257.296C139.552 257.552 139.12 257.749 138.618 257.888C138.117 258.027 137.573 258.096 136.986 258.096C136.336 258.096 135.664 258.011 134.97 257.84C134.277 257.659 133.594 257.355 132.922 256.928L133.498 255.696ZM148.059 257.936C147.995 257.669 147.953 257.403 147.931 257.136C147.067 257.776 146.203 258.096 145.339 258.096C144.891 258.096 144.502 258.011 144.171 257.84C143.851 257.669 143.59 257.44 143.387 257.152C143.185 256.853 143.035 256.507 142.939 256.112C142.843 255.717 142.795 255.296 142.795 254.848V249.696L144.219 249.568V254.784C144.219 255.072 144.241 255.344 144.283 255.6C144.337 255.856 144.417 256.08 144.523 256.272C144.641 256.453 144.795 256.597 144.987 256.704C145.19 256.811 145.435 256.864 145.723 256.864C146.043 256.864 146.39 256.795 146.763 256.656C147.147 256.507 147.526 256.309 147.899 256.064V249.696L149.323 249.568V255.968C149.323 256.277 149.329 256.608 149.339 256.96C149.361 257.301 149.409 257.627 149.483 257.936H148.059ZM153.096 257.936H151.88V246.016L153.304 245.888V250.544C153.709 250.224 154.131 249.973 154.568 249.792C155.005 249.6 155.464 249.504 155.944 249.504C156.477 249.504 156.947 249.621 157.352 249.856C157.768 250.091 158.115 250.405 158.392 250.8C158.669 251.184 158.877 251.627 159.016 252.128C159.165 252.629 159.24 253.147 159.24 253.68C159.24 254.277 159.155 254.843 158.984 255.376C158.824 255.909 158.584 256.379 158.264 256.784C157.944 257.189 157.549 257.509 157.08 257.744C156.621 257.979 156.093 258.096 155.496 258.096C155.091 258.096 154.691 258.037 154.296 257.92C153.901 257.792 153.555 257.605 153.256 257.36L153.096 257.936ZM153.304 256.224C153.592 256.416 153.907 256.571 154.248 256.688C154.6 256.805 154.957 256.864 155.32 256.864C155.747 256.864 156.115 256.779 156.424 256.608C156.744 256.437 157.005 256.203 157.208 255.904C157.411 255.605 157.56 255.264 157.656 254.88C157.752 254.496 157.8 254.085 157.8 253.648C157.8 253.253 157.757 252.88 157.672 252.528C157.587 252.165 157.453 251.856 157.272 251.6C157.101 251.333 156.877 251.125 156.6 250.976C156.323 250.816 155.997 250.736 155.624 250.736C155.219 250.736 154.803 250.821 154.376 250.992C153.96 251.163 153.603 251.355 153.304 251.568V256.224ZM166.071 251.408C165.644 251.195 165.234 251.024 164.839 250.896C164.444 250.768 164.055 250.704 163.671 250.704C163.468 250.704 163.271 250.725 163.079 250.768C162.898 250.811 162.732 250.875 162.583 250.96C162.444 251.045 162.332 251.152 162.247 251.28C162.162 251.397 162.119 251.541 162.119 251.712C162.119 251.893 162.167 252.059 162.263 252.208C162.37 252.347 162.508 252.475 162.679 252.592C162.85 252.699 163.052 252.8 163.287 252.896C163.522 252.981 163.767 253.067 164.023 253.152C164.343 253.259 164.663 253.376 164.983 253.504C165.303 253.632 165.596 253.797 165.863 254C166.13 254.192 166.343 254.432 166.503 254.72C166.674 255.008 166.759 255.36 166.759 255.776C166.759 256.213 166.668 256.581 166.487 256.88C166.316 257.168 166.082 257.403 165.783 257.584C165.495 257.765 165.159 257.893 164.775 257.968C164.391 258.053 163.991 258.096 163.575 258.096C163.052 258.096 162.535 258.037 162.023 257.92C161.511 257.792 161.036 257.589 160.599 257.312L161.095 256.192C161.511 256.405 161.943 256.576 162.391 256.704C162.85 256.832 163.287 256.896 163.703 256.896C163.906 256.896 164.103 256.88 164.295 256.848C164.498 256.805 164.674 256.747 164.823 256.672C164.983 256.587 165.106 256.475 165.191 256.336C165.287 256.197 165.335 256.032 165.335 255.84C165.335 255.648 165.282 255.477 165.175 255.328C165.068 255.179 164.924 255.051 164.743 254.944C164.562 254.827 164.343 254.72 164.087 254.624C163.831 254.517 163.559 254.416 163.271 254.32C162.962 254.213 162.652 254.096 162.343 253.968C162.034 253.829 161.756 253.664 161.511 253.472C161.266 253.28 161.068 253.051 160.919 252.784C160.77 252.507 160.695 252.181 160.695 251.808C160.695 251.424 160.775 251.088 160.935 250.8C161.095 250.512 161.308 250.272 161.575 250.08C161.852 249.888 162.172 249.744 162.535 249.648C162.898 249.552 163.287 249.504 163.703 249.504C164.172 249.504 164.658 249.568 165.159 249.696C165.66 249.813 166.124 250.011 166.551 250.288L166.071 251.408ZM174.9 257.312C174.506 257.579 174.052 257.776 173.54 257.904C173.039 258.032 172.532 258.096 172.02 258.096C171.391 258.096 170.831 257.995 170.34 257.792C169.86 257.579 169.455 257.285 169.124 256.912C168.794 256.528 168.543 256.075 168.372 255.552C168.202 255.019 168.116 254.432 168.116 253.792C168.116 253.173 168.196 252.603 168.356 252.08C168.527 251.557 168.778 251.104 169.108 250.72C169.439 250.336 169.85 250.037 170.34 249.824C170.831 249.611 171.402 249.504 172.052 249.504C172.607 249.504 173.114 249.579 173.572 249.728C174.031 249.877 174.436 250.064 174.788 250.288L174.308 251.408C173.882 251.184 173.487 251.019 173.124 250.912C172.762 250.795 172.41 250.736 172.068 250.736C171.279 250.736 170.66 251.003 170.212 251.536C169.775 252.059 169.556 252.811 169.556 253.792C169.556 254.229 169.604 254.64 169.7 255.024C169.807 255.397 169.967 255.723 170.18 256C170.394 256.267 170.66 256.48 170.98 256.64C171.311 256.789 171.695 256.864 172.132 256.864C172.538 256.864 172.932 256.805 173.316 256.688C173.7 256.56 174.068 256.395 174.42 256.192L174.9 257.312ZM177.991 257.936H176.567V249.696L177.847 249.568L177.991 250.832C178.332 250.416 178.684 250.091 179.047 249.856C179.42 249.621 179.815 249.504 180.231 249.504C180.519 249.504 180.839 249.563 181.191 249.68L180.855 251.056C180.695 251.003 180.54 250.971 180.391 250.96C180.252 250.939 180.124 250.928 180.007 250.928C179.591 250.928 179.228 251.008 178.919 251.168C178.609 251.328 178.3 251.547 177.991 251.824V257.936ZM184.085 257.936H182.661V249.696L184.085 249.568V257.936ZM184.293 246.8C184.293 247.056 184.208 247.269 184.037 247.44C183.867 247.611 183.643 247.696 183.365 247.696C183.088 247.696 182.864 247.611 182.693 247.44C182.523 247.269 182.437 247.056 182.437 246.8C182.437 246.533 182.523 246.32 182.693 246.16C182.864 246 183.088 245.92 183.365 245.92C183.643 245.92 183.867 246 184.037 246.16C184.208 246.32 184.293 246.533 184.293 246.8ZM187.893 257.936H186.677V246.016L188.101 245.888V250.544C188.506 250.224 188.928 249.973 189.365 249.792C189.802 249.6 190.261 249.504 190.741 249.504C191.274 249.504 191.744 249.621 192.149 249.856C192.565 250.091 192.912 250.405 193.189 250.8C193.466 251.184 193.674 251.627 193.813 252.128C193.962 252.629 194.037 253.147 194.037 253.68C194.037 254.277 193.952 254.843 193.781 255.376C193.621 255.909 193.381 256.379 193.061 256.784C192.741 257.189 192.346 257.509 191.877 257.744C191.418 257.979 190.89 258.096 190.293 258.096C189.888 258.096 189.488 258.037 189.093 257.92C188.698 257.792 188.352 257.605 188.053 257.36L187.893 257.936ZM188.101 256.224C188.389 256.416 188.704 256.571 189.045 256.688C189.397 256.805 189.754 256.864 190.117 256.864C190.544 256.864 190.912 256.779 191.221 256.608C191.541 256.437 191.802 256.203 192.005 255.904C192.208 255.605 192.357 255.264 192.453 254.88C192.549 254.496 192.597 254.085 192.597 253.648C192.597 253.253 192.554 252.88 192.469 252.528C192.384 252.165 192.25 251.856 192.069 251.6C191.898 251.333 191.674 251.125 191.397 250.976C191.12 250.816 190.794 250.736 190.421 250.736C190.016 250.736 189.6 250.821 189.173 250.992C188.757 251.163 188.4 251.355 188.101 251.568V256.224ZM202.26 257.312C201.865 257.579 201.412 257.776 200.9 257.904C200.388 258.032 199.892 258.096 199.412 258.096C198.761 258.096 198.191 257.989 197.7 257.776C197.209 257.563 196.799 257.264 196.468 256.88C196.137 256.485 195.887 256.021 195.716 255.488C195.556 254.944 195.476 254.352 195.476 253.712C195.476 253.147 195.54 252.608 195.668 252.096C195.807 251.584 196.02 251.136 196.308 250.752C196.596 250.368 196.959 250.064 197.396 249.84C197.844 249.616 198.377 249.504 198.996 249.504C199.551 249.504 200.041 249.6 200.468 249.792C200.895 249.973 201.252 250.229 201.54 250.56C201.828 250.891 202.047 251.291 202.196 251.76C202.345 252.219 202.42 252.72 202.42 253.264C202.42 253.659 202.388 254.005 202.324 254.304H196.916C197.001 255.093 197.252 255.717 197.668 256.176C198.084 256.635 198.687 256.864 199.476 256.864C199.881 256.864 200.276 256.805 200.66 256.688C201.055 256.56 201.428 256.395 201.78 256.192L202.26 257.312ZM201.012 253.168C201.001 252.816 200.953 252.491 200.868 252.192C200.783 251.883 200.66 251.621 200.5 251.408C200.34 251.184 200.137 251.013 199.892 250.896C199.647 250.768 199.353 250.704 199.012 250.704C198.66 250.704 198.356 250.768 198.1 250.896C197.855 251.024 197.647 251.2 197.476 251.424C197.316 251.648 197.188 251.909 197.092 252.208C196.996 252.507 196.932 252.827 196.9 253.168H201.012ZM217.226 257.936H215.754L210.074 249.136V257.936H208.602V246.624H210.074L215.754 255.424V246.624H217.226V257.936ZM224.438 256.624C224.747 256.464 225.003 256.251 225.206 255.984C225.408 255.707 225.558 255.381 225.654 255.008C225.75 254.635 225.798 254.229 225.798 253.792C225.798 253.365 225.75 252.965 225.654 252.592C225.558 252.219 225.408 251.899 225.206 251.632C225.003 251.355 224.747 251.136 224.438 250.976C224.128 250.816 223.76 250.736 223.334 250.736C222.896 250.736 222.523 250.816 222.214 250.976C221.904 251.136 221.643 251.355 221.43 251.632C221.227 251.899 221.078 252.219 220.982 252.592C220.886 252.965 220.838 253.365 220.838 253.792C220.838 254.229 220.886 254.635 220.982 255.008C221.078 255.381 221.227 255.707 221.43 255.984C221.643 256.251 221.904 256.464 222.214 256.624C222.523 256.784 222.896 256.864 223.334 256.864C223.76 256.864 224.128 256.784 224.438 256.624ZM226.23 256.912C225.91 257.285 225.504 257.579 225.014 257.792C224.534 257.995 223.974 258.096 223.334 258.096C222.694 258.096 222.128 257.995 221.638 257.792C221.158 257.579 220.747 257.285 220.406 256.912C220.075 256.528 219.824 256.075 219.654 255.552C219.483 255.019 219.398 254.432 219.398 253.792C219.398 253.163 219.483 252.587 219.654 252.064C219.824 251.531 220.075 251.077 220.406 250.704C220.747 250.32 221.158 250.027 221.638 249.824C222.128 249.611 222.694 249.504 223.334 249.504C223.963 249.504 224.518 249.611 224.998 249.824C225.488 250.027 225.899 250.32 226.23 250.704C226.56 251.077 226.811 251.531 226.982 252.064C227.152 252.587 227.238 253.163 227.238 253.792C227.238 254.432 227.152 255.019 226.982 255.552C226.811 256.075 226.56 256.528 226.23 256.912ZM237.351 257.936H235.735L233.895 252.528L232.167 257.936H230.551L228.295 249.664H229.719L231.383 256.384L233.351 250.32H234.535L236.503 256.416L238.263 249.664H239.591L237.351 257.936Z" fill="#848484"/>
<path d="M46.7762 61.668H43.0802L41.6402 57.516H35.4962L34.0562 61.668H30.4802L36.8402 44.7H40.4162L46.7762 61.668ZM40.7522 54.78L38.5682 48.468L36.3842 54.78H40.7522ZM63.7917 61.668H60.4317L56.8557 51.132L53.5197 61.668H50.1597L45.7437 44.7H49.3197L52.0557 56.388L55.2957 46.164H58.5117L61.9677 56.484L64.6797 44.7H68.2077L63.7917 61.668ZM80.2697 48.516C79.5977 48.18 78.8617 47.9 78.0617 47.676C77.2777 47.436 76.5337 47.316 75.8297 47.316C75.4937 47.316 75.1577 47.348 74.8217 47.412C74.5017 47.476 74.2137 47.58 73.9577 47.724C73.7177 47.852 73.5177 48.028 73.3577 48.252C73.2137 48.46 73.1417 48.708 73.1417 48.996C73.1417 49.3 73.2217 49.572 73.3817 49.812C73.5577 50.036 73.7897 50.244 74.0777 50.436C74.3657 50.612 74.7017 50.78 75.0857 50.94C75.4697 51.084 75.8857 51.228 76.3337 51.372C76.9737 51.596 77.6377 51.844 78.3257 52.116C79.0297 52.388 79.6697 52.732 80.2457 53.148C80.8217 53.564 81.2937 54.076 81.6617 54.684C82.0457 55.276 82.2377 56.012 82.2377 56.892C82.2377 57.692 82.0777 58.404 81.7577 59.028C81.4377 59.636 80.9897 60.156 80.4137 60.588C79.8377 61.02 79.1497 61.348 78.3497 61.572C77.5497 61.796 76.6777 61.908 75.7337 61.908C74.5817 61.908 73.4377 61.756 72.3017 61.452C71.1817 61.132 70.1657 60.716 69.2537 60.204L70.4777 57.636C70.8137 57.828 71.1977 58.012 71.6297 58.188C72.0617 58.348 72.5097 58.492 72.9737 58.62C73.4537 58.748 73.9337 58.852 74.4137 58.932C74.8937 59.012 75.3577 59.052 75.8057 59.052C76.7497 59.052 77.4617 58.884 77.9417 58.548C78.4377 58.196 78.6857 57.732 78.6857 57.156C78.6857 56.772 78.5817 56.444 78.3737 56.172C78.1817 55.9 77.9177 55.66 77.5817 55.452C77.2457 55.228 76.8537 55.036 76.4057 54.876C75.9737 54.7 75.5177 54.524 75.0377 54.348C74.4137 54.124 73.7737 53.884 73.1177 53.628C72.4777 53.372 71.8937 53.052 71.3657 52.668C70.8377 52.284 70.4057 51.82 70.0697 51.276C69.7497 50.732 69.5897 50.052 69.5897 49.236C69.5897 48.468 69.7417 47.788 70.0457 47.196C70.3657 46.588 70.7977 46.084 71.3417 45.684C71.9017 45.284 72.5577 44.98 73.3097 44.772C74.0617 44.564 74.8857 44.46 75.7817 44.46C76.7417 44.46 77.7017 44.58 78.6617 44.82C79.6377 45.06 80.5817 45.436 81.4937 45.948L80.2697 48.516ZM99.8635 48.516C99.1915 48.18 98.4555 47.9 97.6555 47.676C96.8715 47.436 96.1275 47.316 95.4235 47.316C95.0875 47.316 94.7515 47.348 94.4155 47.412C94.0955 47.476 93.8075 47.58 93.5515 47.724C93.3115 47.852 93.1115 48.028 92.9515 48.252C92.8075 48.46 92.7355 48.708 92.7355 48.996C92.7355 49.3 92.8155 49.572 92.9755 49.812C93.1515 50.036 93.3835 50.244 93.6715 50.436C93.9595 50.612 94.2955 50.78 94.6795 50.94C95.0635 51.084 95.4795 51.228 95.9275 51.372C96.5675 51.596 97.2315 51.844 97.9195 52.116C98.6235 52.388 99.2635 52.732 99.8395 53.148C100.415 53.564 100.887 54.076 101.255 54.684C101.639 55.276 101.831 56.012 101.831 56.892C101.831 57.692 101.671 58.404 101.351 59.028C101.031 59.636 100.583 60.156 100.007 60.588C99.4315 61.02 98.7435 61.348 97.9435 61.572C97.1435 61.796 96.2715 61.908 95.3275 61.908C94.1755 61.908 93.0315 61.756 91.8955 61.452C90.7755 61.132 89.7595 60.716 88.8475 60.204L90.0715 57.636C90.4075 57.828 90.7915 58.012 91.2235 58.188C91.6555 58.348 92.1035 58.492 92.5675 58.62C93.0475 58.748 93.5275 58.852 94.0075 58.932C94.4875 59.012 94.9515 59.052 95.3995 59.052C96.3435 59.052 97.0555 58.884 97.5355 58.548C98.0315 58.196 98.2795 57.732 98.2795 57.156C98.2795 56.772 98.1755 56.444 97.9675 56.172C97.7755 55.9 97.5115 55.66 97.1755 55.452C96.8395 55.228 96.4475 55.036 95.9995 54.876C95.5675 54.7 95.1115 54.524 94.6315 54.348C94.0075 54.124 93.3675 53.884 92.7115 53.628C92.0715 53.372 91.4875 53.052 90.9595 52.668C90.4315 52.284 89.9995 51.82 89.6635 51.276C89.3435 50.732 89.1835 50.052 89.1835 49.236C89.1835 48.468 89.3355 47.788 89.6395 47.196C89.9595 46.588 90.3915 46.084 90.9355 45.684C91.4955 45.284 92.1515 44.98 92.9035 44.772C93.6555 44.564 94.4795 44.46 95.3755 44.46C96.3355 44.46 97.2955 44.58 98.2555 44.82C99.2315 45.06 100.175 45.436 101.087 45.948L99.8635 48.516ZM114.4 60.588C113.6 61.1 112.784 61.452 111.952 61.644C111.12 61.82 110.368 61.908 109.696 61.908C108.8 61.908 107.968 61.764 107.2 61.476C106.448 61.188 105.792 60.764 105.232 60.204C104.672 59.644 104.232 58.956 103.912 58.14C103.608 57.308 103.456 56.348 103.456 55.26C103.456 54.332 103.576 53.476 103.816 52.692C104.056 51.908 104.408 51.236 104.872 50.676C105.352 50.116 105.944 49.676 106.648 49.356C107.352 49.036 108.16 48.876 109.072 48.876C109.952 48.876 110.736 49.02 111.424 49.308C112.128 49.596 112.712 49.996 113.176 50.508C113.64 51.02 113.992 51.62 114.232 52.308C114.488 52.996 114.616 53.732 114.616 54.516C114.616 54.836 114.6 55.18 114.568 55.548C114.536 55.9 114.488 56.212 114.424 56.484H106.816C107.008 57.412 107.376 58.108 107.92 58.572C108.48 59.02 109.192 59.244 110.056 59.244C110.6 59.244 111.144 59.164 111.688 59.004C112.248 58.828 112.808 58.58 113.368 58.26L114.4 60.588ZM111.4 54.276C111.368 53.428 111.168 52.756 110.8 52.26C110.432 51.764 109.872 51.516 109.12 51.516C108.336 51.516 107.76 51.78 107.392 52.308C107.024 52.82 106.8 53.476 106.72 54.276H111.4ZM127.05 60.66C126.426 61.076 125.738 61.388 124.986 61.596C124.234 61.804 123.458 61.908 122.658 61.908C121.746 61.908 120.906 61.764 120.138 61.476C119.37 61.188 118.698 60.772 118.122 60.228C117.562 59.668 117.122 58.988 116.802 58.188C116.498 57.388 116.346 56.468 116.346 55.428C116.346 54.42 116.498 53.508 116.802 52.692C117.106 51.876 117.53 51.188 118.074 50.628C118.634 50.068 119.298 49.636 120.066 49.332C120.834 49.028 121.69 48.876 122.634 48.876C123.498 48.876 124.274 48.996 124.962 49.236C125.666 49.46 126.298 49.748 126.858 50.1L125.898 52.476C125.338 52.156 124.818 51.924 124.338 51.78C123.858 51.62 123.386 51.54 122.922 51.54C121.914 51.54 121.13 51.884 120.57 52.572C120.026 53.244 119.754 54.188 119.754 55.404C119.754 56.572 120.018 57.508 120.546 58.212C121.09 58.9 121.898 59.244 122.97 59.244C123.482 59.244 123.994 59.164 124.506 59.004C125.034 58.844 125.554 58.612 126.066 58.308L127.05 60.66ZM136.937 61.668C136.889 61.508 136.849 61.3 136.817 61.044C136.785 60.788 136.753 60.548 136.721 60.324C136.161 60.772 135.553 61.148 134.897 61.452C134.241 61.756 133.529 61.908 132.761 61.908C132.089 61.908 131.505 61.788 131.009 61.548C130.529 61.292 130.129 60.948 129.809 60.516C129.505 60.068 129.281 59.548 129.137 58.956C128.993 58.364 128.921 57.724 128.921 57.036V49.26L132.305 48.972V56.82C132.305 57.588 132.433 58.188 132.689 58.62C132.945 59.036 133.393 59.244 134.033 59.244C134.401 59.244 134.793 59.172 135.209 59.028C135.625 58.884 136.017 58.692 136.385 58.452V49.26L139.769 48.972V58.236C139.769 58.7 139.785 59.252 139.817 59.892C139.849 60.532 139.929 61.124 140.057 61.668H136.937ZM146.136 61.668H142.752V49.26L145.464 48.972L145.8 50.892C146.264 50.284 146.752 49.796 147.264 49.428C147.776 49.06 148.368 48.876 149.04 48.876C149.472 48.876 149.952 48.964 150.48 49.14L149.856 52.092C149.584 51.996 149.336 51.94 149.112 51.924C148.888 51.892 148.688 51.876 148.512 51.876C148.032 51.876 147.608 51.948 147.24 52.092C146.888 52.236 146.52 52.452 146.136 52.74V61.668ZM155.582 61.668H152.198V49.26L155.582 48.972V61.668ZM155.87 45.036C155.87 45.58 155.694 46.02 155.342 46.356C155.006 46.692 154.518 46.86 153.878 46.86C153.238 46.86 152.742 46.692 152.39 46.356C152.054 46.02 151.886 45.58 151.886 45.036C151.886 44.508 152.054 44.084 152.39 43.764C152.742 43.428 153.238 43.26 153.878 43.26C154.518 43.26 155.006 43.428 155.342 43.764C155.694 44.084 155.87 44.508 155.87 45.036ZM166.683 61.308C165.771 61.708 164.843 61.908 163.899 61.908C162.443 61.908 161.371 61.492 160.683 60.66C160.011 59.812 159.675 58.588 159.675 56.988V51.66H157.371V49.116H159.675V46.14L163.083 45.852V49.116H166.179V51.66H163.083V56.508C163.083 57.34 163.187 58.004 163.395 58.5C163.619 58.996 164.059 59.244 164.715 59.244C165.131 59.244 165.587 59.156 166.083 58.98L166.683 61.308ZM175.613 60.18C175.085 61.684 174.405 63.1 173.573 64.428C172.757 65.772 171.813 66.9 170.741 67.812L168.677 65.676C169.413 64.908 170.029 64.196 170.525 63.54C171.037 62.884 171.469 62.236 171.821 61.596L167.189 49.116H170.789L173.477 57.948L176.117 49.116H179.477L175.613 60.18Z" fill="#767676"/>
<g filter="url(#filter1_d_619_603)">
<rect x="108.238" y="85.9307" width="150.002" height="130.1" rx="10" fill="white"/>
</g>
<defs>
<filter id="filter0_d_619_603" x="0" y="0.835419" width="366.479" height="303.291" filterUnits="userSpaceOnUse" color-interpolation-filters="sRGB">
<feFlood flood-opacity="0" result="BackgroundImageFix"/>
<feColorMatrix in="SourceAlpha" type="matrix" values="0 0 0 0 0 0 0 0 0 0 0 0 0 0 0 0 0 0 127 0" result="hardAlpha"/>
<feMorphology radius="4" operator="dilate" in="SourceAlpha" result="effect1_dropShadow_619_603"/>
<feOffset/>
<feGaussianBlur stdDeviation="5"/>
<feComposite in2="hardAlpha" operator="out"/>
<feColorMatrix type="matrix" values="0 0 0 0 0 0 0 0 0 0 0 0 0 0 0 0 0 0 0.06 0"/>
<feBlend mode="normal" in2="BackgroundImageFix" result="effect1_dropShadow_619_603"/>
<feBlend mode="normal" in="SourceGraphic" in2="effect1_dropShadow_619_603" result="shape"/>
</filter>
<filter id="filter1_d_619_603" x="102.238" y="79.9307" width="162.002" height="142.1" filterUnits="userSpaceOnUse" color-interpolation-filters="sRGB">
<feFlood flood-opacity="0" result="BackgroundImageFix"/>
<feColorMatrix in="SourceAlpha" type="matrix" values="0 0 0 0 0 0 0 0 0 0 0 0 0 0 0 0 0 0 127 0" result="hardAlpha"/>
<feMorphology radius="2" operator="dilate" in="SourceAlpha" result="effect1_dropShadow_619_603"/>
<feOffset/>
<feGaussianBlur stdDeviation="2"/>
<feComposite in2="hardAlpha" operator="out"/>
<feColorMatrix type="matrix" values="0 0 0 0 0 0 0 0 0 0 0 0 0 0 0 0 0 0 0.11 0"/>
<feBlend mode="normal" in2="BackgroundImageFix" result="effect1_dropShadow_619_603"/>
<feBlend mode="normal" in="SourceGraphic" in2="effect1_dropShadow_619_603" result="shape"/>
</filter>
</defs>
</svg>
