<svg width="367" height="305" viewBox="0 0 367 305" fill="none" xmlns="http://www.w3.org/2000/svg">
<g filter="url(#filter0_d_619_513)">
<rect x="14" y="14.8354" width="338.479" height="275.291" rx="10" fill="white"/>
<rect x="14.5" y="15.3354" width="337.479" height="274.291" rx="9.5" stroke="#1DBF73"/>
</g>
<mask id="mask0_619_513" style="mask-type:alpha" maskUnits="userSpaceOnUse" x="14" y="14" width="339" height="277">
<rect x="14.5" y="15.3354" width="337.479" height="274.291" rx="9.5" fill="white" stroke="#1DBF73"/>
</mask>
<g mask="url(#mask0_619_513)">
<path d="M252.597 187.007C319.379 264.527 407.569 183.045 372.351 81.3169C357.751 39.0505 337.716 10.4472 356.402 -34.1856C361.006 -45.2841 364.664 -56.8049 368.717 -68.094C376.255 -89.0147 367.734 -121.478 342.849 -139.924C306.726 -166.819 265.019 -185.711 222.96 -201.493C167.788 -222.048 110.697 -217.457 92.7295 -159.267C82.3317 -125.694 87.2981 -95.3156 56.1281 -77.2447C37.8784 -66.5879 25.5092 -58.9831 16.5235 -37.8501C0.335916 -0.243092 -0.990949 -12.2995 -18.7621 5.27218C-61.7056 47.2194 -27.2932 112.783 31.5047 128.698C70.7171 139.361 104.717 121.888 125.024 115.888C198.126 94.02 198.346 124.136 252.597 187.007Z" fill="url(#paint0_linear_619_513)"/>
</g>
<rect x="108.24" y="234.746" width="150" height="35.38" rx="17.69" fill="#24BF6F"/>
<path d="M165.236 257.936H158.196V246.624H159.7V256.624H165.236V257.936ZM171.61 257.936C171.578 257.787 171.552 257.611 171.53 257.408C171.509 257.195 171.493 257.013 171.482 256.864C171.152 257.216 170.746 257.499 170.266 257.712C169.786 257.915 169.306 258.016 168.826 258.016C168.474 258.016 168.149 257.957 167.85 257.84C167.562 257.712 167.312 257.541 167.098 257.328C166.896 257.104 166.736 256.843 166.618 256.544C166.501 256.235 166.442 255.899 166.442 255.536C166.442 254.704 166.73 254.064 167.306 253.616C167.893 253.168 168.672 252.944 169.642 252.944C169.93 252.944 170.229 252.96 170.538 252.992C170.858 253.024 171.173 253.067 171.482 253.12V252.864C171.482 252.181 171.317 251.653 170.986 251.28C170.656 250.907 170.181 250.72 169.562 250.72C169.189 250.72 168.805 250.784 168.41 250.912C168.026 251.04 167.664 251.2 167.322 251.392L166.858 250.288C167.2 250.053 167.61 249.867 168.09 249.728C168.581 249.579 169.098 249.504 169.642 249.504C170.677 249.504 171.472 249.781 172.026 250.336C172.581 250.891 172.858 251.691 172.858 252.736V255.968C172.858 256.32 172.869 256.683 172.89 257.056C172.922 257.429 172.965 257.723 173.018 257.936H171.61ZM171.482 254.16C171.258 254.117 171.018 254.091 170.762 254.08C170.517 254.059 170.298 254.048 170.106 254.048C168.602 254.048 167.85 254.539 167.85 255.52C167.85 255.925 167.968 256.24 168.202 256.464C168.448 256.688 168.778 256.8 169.194 256.8C169.568 256.8 169.957 256.715 170.362 256.544C170.768 256.373 171.141 256.149 171.482 255.872V254.16ZM180.294 257.936C180.23 257.669 180.187 257.403 180.166 257.136C179.302 257.776 178.438 258.096 177.574 258.096C177.126 258.096 176.737 258.011 176.406 257.84C176.086 257.669 175.825 257.44 175.622 257.152C175.419 256.853 175.27 256.507 175.174 256.112C175.078 255.717 175.03 255.296 175.03 254.848V249.696L176.454 249.568V254.784C176.454 255.072 176.475 255.344 176.518 255.6C176.571 255.856 176.651 256.08 176.758 256.272C176.875 256.453 177.03 256.597 177.222 256.704C177.425 256.811 177.67 256.864 177.958 256.864C178.278 256.864 178.625 256.795 178.998 256.656C179.382 256.507 179.761 256.309 180.134 256.064V249.696L181.558 249.568V255.968C181.558 256.277 181.563 256.608 181.574 256.96C181.595 257.301 181.643 257.627 181.718 257.936H180.294ZM189.602 257.936C189.528 257.627 189.48 257.301 189.458 256.96C189.448 256.608 189.442 256.277 189.442 255.968V252.816C189.442 252.528 189.416 252.256 189.362 252C189.32 251.744 189.24 251.525 189.122 251.344C189.016 251.152 188.861 251.003 188.658 250.896C188.466 250.789 188.226 250.736 187.938 250.736C187.565 250.736 187.165 250.827 186.738 251.008C186.312 251.189 185.901 251.429 185.506 251.728V257.936H184.082V249.696L185.362 249.568L185.49 250.672C186.408 249.893 187.346 249.504 188.306 249.504C188.765 249.504 189.154 249.589 189.474 249.76C189.794 249.931 190.056 250.165 190.258 250.464C190.472 250.752 190.626 251.093 190.722 251.488C190.818 251.883 190.866 252.304 190.866 252.752V255.968C190.866 256.277 190.872 256.608 190.882 256.96C190.904 257.301 190.952 257.627 191.026 257.936H189.602ZM199.557 257.312C199.162 257.579 198.709 257.776 198.197 257.904C197.695 258.032 197.189 258.096 196.677 258.096C196.047 258.096 195.487 257.995 194.997 257.792C194.517 257.579 194.111 257.285 193.781 256.912C193.45 256.528 193.199 256.075 193.029 255.552C192.858 255.019 192.773 254.432 192.773 253.792C192.773 253.173 192.853 252.603 193.013 252.08C193.183 251.557 193.434 251.104 193.765 250.72C194.095 250.336 194.506 250.037 194.997 249.824C195.487 249.611 196.058 249.504 196.709 249.504C197.263 249.504 197.77 249.579 198.229 249.728C198.687 249.877 199.093 250.064 199.445 250.288L198.965 251.408C198.538 251.184 198.143 251.019 197.781 250.912C197.418 250.795 197.066 250.736 196.725 250.736C195.935 250.736 195.317 251.003 194.869 251.536C194.431 252.059 194.213 252.811 194.213 253.792C194.213 254.229 194.261 254.64 194.357 255.024C194.463 255.397 194.623 255.723 194.837 256C195.05 256.267 195.317 256.48 195.637 256.64C195.967 256.789 196.351 256.864 196.789 256.864C197.194 256.864 197.589 256.805 197.973 256.688C198.357 256.56 198.725 256.395 199.077 256.192L199.557 257.312ZM206.775 257.936C206.7 257.627 206.652 257.301 206.631 256.96C206.62 256.608 206.615 256.277 206.615 255.968V252.816C206.615 252.528 206.588 252.256 206.535 252C206.492 251.744 206.412 251.525 206.295 251.344C206.188 251.152 206.034 251.003 205.831 250.896C205.639 250.789 205.399 250.736 205.111 250.736C204.738 250.736 204.338 250.827 203.911 251.008C203.484 251.189 203.074 251.429 202.679 251.728V257.936H201.255V246.016L202.679 245.888V250.672C203.596 249.893 204.53 249.504 205.479 249.504C205.938 249.504 206.327 249.589 206.647 249.76C206.967 249.931 207.228 250.165 207.431 250.464C207.644 250.752 207.799 251.093 207.895 251.488C207.991 251.883 208.039 252.304 208.039 252.752V255.968C208.039 256.277 208.044 256.608 208.055 256.96C208.076 257.301 208.124 257.627 208.199 257.936H206.775Z" fill="white"/>
<path d="M45.3122 60.372C44.5922 60.82 43.7522 61.188 42.7922 61.476C41.8322 61.764 40.7682 61.908 39.6002 61.908C38.1922 61.908 36.9602 61.676 35.9042 61.212C34.8642 60.748 34.0002 60.124 33.3122 59.34C32.6242 58.54 32.1122 57.612 31.7762 56.556C31.4402 55.5 31.2722 54.38 31.2722 53.196C31.2722 52.012 31.4402 50.892 31.7762 49.836C32.1122 48.764 32.6242 47.836 33.3122 47.052C34.0002 46.252 34.8642 45.62 35.9042 45.156C36.9602 44.692 38.1922 44.46 39.6002 44.46C40.7682 44.46 41.8322 44.604 42.7922 44.892C43.7522 45.18 44.5922 45.548 45.3122 45.996L44.1122 48.54C43.3602 48.14 42.6002 47.852 41.8322 47.676C41.0642 47.5 40.3842 47.412 39.7922 47.412C38.9762 47.412 38.2562 47.564 37.6322 47.868C37.0082 48.156 36.4882 48.564 36.0722 49.092C35.6562 49.604 35.3442 50.212 35.1362 50.916C34.9282 51.62 34.8242 52.38 34.8242 53.196C34.8242 54.012 34.9282 54.772 35.1362 55.476C35.3442 56.164 35.6562 56.772 36.0722 57.3C36.4882 57.812 37.0082 58.22 37.6322 58.524C38.2562 58.812 38.9762 58.956 39.7922 58.956C40.3842 58.956 41.0642 58.868 41.8322 58.692C42.6002 58.516 43.3602 58.228 44.1122 57.828L45.3122 60.372ZM53.0022 59.244C54.0102 59.244 54.7382 58.892 55.1862 58.188C55.6502 57.484 55.8822 56.556 55.8822 55.404C55.8822 54.252 55.6502 53.324 55.1862 52.62C54.7382 51.9 54.0102 51.54 53.0022 51.54C51.9942 51.54 51.2582 51.9 50.7942 52.62C50.3302 53.324 50.0982 54.252 50.0982 55.404C50.0982 56.556 50.3302 57.484 50.7942 58.188C51.2582 58.892 51.9942 59.244 53.0022 59.244ZM57.6342 60.084C57.1062 60.66 56.4502 61.108 55.6662 61.428C54.8822 61.748 53.9942 61.908 53.0022 61.908C52.0102 61.908 51.1222 61.748 50.3382 61.428C49.5542 61.108 48.8902 60.66 48.3462 60.084C47.8022 59.508 47.3862 58.828 47.0982 58.044C46.8262 57.244 46.6902 56.364 46.6902 55.404C46.6902 54.444 46.8262 53.564 47.0982 52.764C47.3862 51.964 47.8022 51.276 48.3462 50.7C48.8902 50.124 49.5542 49.676 50.3382 49.356C51.1222 49.036 52.0102 48.876 53.0022 48.876C53.9942 48.876 54.8822 49.036 55.6662 49.356C56.4502 49.676 57.1062 50.124 57.6342 50.7C58.1782 51.276 58.5862 51.964 58.8582 52.764C59.1462 53.564 59.2902 54.444 59.2902 55.404C59.2902 56.364 59.1462 57.244 58.8582 58.044C58.5862 58.828 58.1782 59.508 57.6342 60.084ZM69.5545 52.524C68.8825 52.156 68.2665 51.892 67.7065 51.732C67.1465 51.572 66.6265 51.492 66.1465 51.492C65.6825 51.492 65.2825 51.58 64.9465 51.756C64.6105 51.916 64.4425 52.172 64.4425 52.524C64.4425 52.908 64.6585 53.22 65.0905 53.46C65.5385 53.684 66.0745 53.9 66.6985 54.108C67.1465 54.252 67.6185 54.42 68.1145 54.612C68.6105 54.804 69.0585 55.052 69.4585 55.356C69.8745 55.66 70.2105 56.036 70.4665 56.484C70.7385 56.932 70.8745 57.492 70.8745 58.164C70.8745 58.868 70.7305 59.46 70.4425 59.94C70.1705 60.404 69.7945 60.788 69.3145 61.092C68.8505 61.38 68.3065 61.588 67.6825 61.716C67.0745 61.844 66.4425 61.908 65.7865 61.908C64.0265 61.908 62.4025 61.492 60.9145 60.66L61.8745 58.284C62.4985 58.604 63.1305 58.852 63.7705 59.028C64.4105 59.204 65.0265 59.292 65.6185 59.292C66.0985 59.292 66.5305 59.22 66.9145 59.076C67.3145 58.916 67.5145 58.644 67.5145 58.26C67.5145 57.876 67.2985 57.572 66.8665 57.348C66.4505 57.108 65.9225 56.876 65.2825 56.652C64.8345 56.508 64.3625 56.34 63.8665 56.148C63.3865 55.956 62.9385 55.708 62.5225 55.404C62.1065 55.084 61.7625 54.708 61.4905 54.276C61.2185 53.828 61.0825 53.276 61.0825 52.62C61.0825 51.996 61.2105 51.452 61.4665 50.988C61.7385 50.508 62.0905 50.116 62.5225 49.812C62.9705 49.492 63.4825 49.26 64.0585 49.116C64.6345 48.956 65.2345 48.876 65.8585 48.876C66.6265 48.876 67.4185 48.988 68.2345 49.212C69.0665 49.42 69.8185 49.732 70.4905 50.148L69.5545 52.524ZM81.2069 61.308C80.2949 61.708 79.3669 61.908 78.4229 61.908C76.9669 61.908 75.8949 61.492 75.2069 60.66C74.5349 59.812 74.1989 58.588 74.1989 56.988V51.66H71.8949V49.116H74.1989V46.14L77.6069 45.852V49.116H80.7029V51.66H77.6069V56.508C77.6069 57.34 77.7109 58.004 77.9189 58.5C78.1429 58.996 78.5829 59.244 79.2389 59.244C79.6549 59.244 80.1109 59.156 80.6069 58.98L81.2069 61.308ZM97.7624 58.596C98.3224 58.308 98.7864 57.916 99.1544 57.42C99.5224 56.908 99.8024 56.292 99.9944 55.572C100.186 54.852 100.282 54.06 100.282 53.196C100.282 52.332 100.186 51.54 99.9944 50.82C99.8024 50.1 99.5224 49.484 99.1544 48.972C98.7864 48.46 98.3224 48.068 97.7624 47.796C97.2024 47.508 96.5624 47.364 95.8424 47.364C95.1224 47.364 94.4824 47.508 93.9224 47.796C93.3624 48.068 92.8984 48.46 92.5304 48.972C92.1624 49.484 91.8824 50.1 91.6904 50.82C91.4984 51.54 91.4024 52.332 91.4024 53.196C91.4024 54.06 91.4984 54.852 91.6904 55.572C91.8824 56.292 92.1624 56.908 92.5304 57.42C92.8984 57.916 93.3624 58.308 93.9224 58.596C94.4824 58.868 95.1224 59.004 95.8424 59.004C96.5624 59.004 97.2024 58.868 97.7624 58.596ZM101.674 59.46C100.986 60.228 100.146 60.828 99.1544 61.26C98.1784 61.692 97.0744 61.908 95.8424 61.908C94.6104 61.908 93.4984 61.692 92.5064 61.26C91.5304 60.828 90.6904 60.228 89.9864 59.46C89.2984 58.676 88.7704 57.756 88.4024 56.7C88.0344 55.628 87.8504 54.46 87.8504 53.196C87.8504 51.932 88.0344 50.772 88.4024 49.716C88.7704 48.644 89.2984 47.724 89.9864 46.956C90.6904 46.172 91.5304 45.564 92.5064 45.132C93.4984 44.684 94.6104 44.46 95.8424 44.46C97.0744 44.46 98.1784 44.684 99.1544 45.132C100.146 45.564 100.986 46.172 101.674 46.956C102.378 47.724 102.914 48.644 103.282 49.716C103.65 50.772 103.834 51.932 103.834 53.196C103.834 54.46 103.65 55.628 103.282 56.7C102.914 57.756 102.378 58.676 101.674 59.46ZM109.737 67.236H106.353V49.26L109.065 48.972L109.353 50.652C109.865 50.172 110.465 49.756 111.153 49.404C111.841 49.052 112.593 48.876 113.409 48.876C114.193 48.876 114.889 49.052 115.497 49.404C116.121 49.756 116.649 50.228 117.081 50.82C117.513 51.396 117.841 52.068 118.065 52.836C118.289 53.604 118.401 54.404 118.401 55.236C118.401 56.148 118.265 57.012 117.993 57.828C117.737 58.628 117.369 59.332 116.889 59.94C116.409 60.548 115.825 61.028 115.137 61.38C114.449 61.732 113.681 61.908 112.833 61.908C112.225 61.908 111.665 61.82 111.153 61.644C110.657 61.452 110.185 61.196 109.737 60.876V67.236ZM109.737 58.692C110.121 58.868 110.513 59.004 110.913 59.1C111.313 59.196 111.681 59.244 112.017 59.244C113.025 59.244 113.769 58.876 114.249 58.14C114.745 57.404 114.993 56.452 114.993 55.284C114.993 54.036 114.745 53.1 114.249 52.476C113.753 51.852 113.097 51.54 112.281 51.54C111.865 51.54 111.433 51.62 110.985 51.78C110.553 51.924 110.137 52.108 109.737 52.332V58.692ZM128.832 61.308C127.92 61.708 126.992 61.908 126.048 61.908C124.592 61.908 123.52 61.492 122.832 60.66C122.16 59.812 121.824 58.588 121.824 56.988V51.66H119.52V49.116H121.824V46.14L125.232 45.852V49.116H128.328V51.66H125.232V56.508C125.232 57.34 125.336 58.004 125.544 58.5C125.768 58.996 126.208 59.244 126.864 59.244C127.28 59.244 127.736 59.156 128.232 58.98L128.832 61.308ZM134.09 61.668H130.706V49.26L134.09 48.972V61.668ZM134.378 45.036C134.378 45.58 134.202 46.02 133.85 46.356C133.514 46.692 133.026 46.86 132.386 46.86C131.746 46.86 131.25 46.692 130.898 46.356C130.562 46.02 130.394 45.58 130.394 45.036C130.394 44.508 130.562 44.084 130.898 43.764C131.25 43.428 131.746 43.26 132.386 43.26C133.026 43.26 133.514 43.428 133.85 43.764C134.202 44.084 134.378 44.508 134.378 45.036ZM152.175 61.668C152.047 61.124 151.967 60.532 151.935 59.892C151.903 59.252 151.887 58.7 151.887 58.236V53.964C151.887 53.244 151.767 52.66 151.527 52.212C151.287 51.764 150.831 51.54 150.159 51.54C149.791 51.54 149.399 51.612 148.983 51.756C148.567 51.9 148.159 52.108 147.759 52.38C147.791 52.604 147.815 52.828 147.831 53.052C147.863 53.276 147.879 53.508 147.879 53.748V58.236C147.879 58.7 147.895 59.252 147.927 59.892C147.959 60.532 148.039 61.124 148.167 61.668H144.783C144.655 61.124 144.575 60.532 144.543 59.892C144.511 59.252 144.495 58.7 144.495 58.236V53.964C144.495 53.276 144.375 52.7 144.135 52.236C143.895 51.772 143.447 51.54 142.791 51.54C142.423 51.54 142.039 51.612 141.639 51.756C141.255 51.9 140.871 52.1 140.487 52.356V61.668H137.103V49.26L139.815 48.972L140.103 50.604C140.647 50.14 141.247 49.74 141.903 49.404C142.559 49.052 143.287 48.876 144.087 48.876C144.855 48.876 145.495 49.044 146.007 49.38C146.519 49.716 146.927 50.164 147.231 50.724C147.839 50.18 148.487 49.74 149.175 49.404C149.879 49.052 150.631 48.876 151.431 48.876C152.103 48.876 152.679 49.004 153.159 49.26C153.639 49.516 154.031 49.868 154.335 50.316C154.655 50.748 154.887 51.26 155.031 51.852C155.191 52.444 155.271 53.076 155.271 53.748V58.236C155.271 58.7 155.287 59.252 155.319 59.892C155.351 60.532 155.431 61.124 155.559 61.668H152.175ZM161.606 61.668H158.222V49.26L161.606 48.972V61.668ZM161.894 45.036C161.894 45.58 161.718 46.02 161.366 46.356C161.03 46.692 160.542 46.86 159.902 46.86C159.262 46.86 158.766 46.692 158.414 46.356C158.078 46.02 157.91 45.58 157.91 45.036C157.91 44.508 158.078 44.084 158.414 43.764C158.766 43.428 159.262 43.26 159.902 43.26C160.542 43.26 161.03 43.428 161.366 43.764C161.718 44.084 161.894 44.508 161.894 45.036ZM173.931 61.668H163.875L163.659 59.82L169.635 51.708H164.115V49.116H173.739L173.931 50.988L167.955 59.1H173.931V61.668ZM186.212 60.588C185.412 61.1 184.596 61.452 183.764 61.644C182.932 61.82 182.18 61.908 181.508 61.908C180.612 61.908 179.78 61.764 179.012 61.476C178.26 61.188 177.604 60.764 177.044 60.204C176.484 59.644 176.044 58.956 175.724 58.14C175.42 57.308 175.268 56.348 175.268 55.26C175.268 54.332 175.388 53.476 175.628 52.692C175.868 51.908 176.22 51.236 176.684 50.676C177.164 50.116 177.756 49.676 178.46 49.356C179.164 49.036 179.972 48.876 180.884 48.876C181.764 48.876 182.548 49.02 183.236 49.308C183.94 49.596 184.524 49.996 184.988 50.508C185.452 51.02 185.804 51.62 186.044 52.308C186.3 52.996 186.428 53.732 186.428 54.516C186.428 54.836 186.412 55.18 186.38 55.548C186.348 55.9 186.3 56.212 186.236 56.484H178.628C178.82 57.412 179.188 58.108 179.732 58.572C180.292 59.02 181.004 59.244 181.868 59.244C182.412 59.244 182.956 59.164 183.5 59.004C184.06 58.828 184.62 58.58 185.18 58.26L186.212 60.588ZM183.212 54.276C183.18 53.428 182.98 52.756 182.612 52.26C182.244 51.764 181.684 51.516 180.932 51.516C180.148 51.516 179.572 51.78 179.204 52.308C178.836 52.82 178.612 53.476 178.532 54.276H183.212ZM192.167 61.668H188.783V49.26L191.495 48.972L191.831 50.892C192.295 50.284 192.783 49.796 193.295 49.428C193.807 49.06 194.399 48.876 195.071 48.876C195.503 48.876 195.983 48.964 196.511 49.14L195.887 52.092C195.615 51.996 195.367 51.94 195.143 51.924C194.919 51.892 194.719 51.876 194.543 51.876C194.063 51.876 193.639 51.948 193.271 52.092C192.919 52.236 192.551 52.452 192.167 52.74V61.668Z" fill="white"/>
<g filter="url(#filter1_d_619_513)">
<rect x="108.238" y="85.9307" width="150.002" height="130.1" rx="10" fill="white"/>
</g>
<g clip-path="url(#clip0_619_513)">
<path d="M237.976 104.405H122.436V202.379H237.976V104.405Z" fill="#B4FFC9"/>
<g filter="url(#filter2_d_619_513)">
<path d="M243.428 102.734H128.236V196.53H243.428V102.734Z" fill="white" stroke="#078449" stroke-miterlimit="10"/>
</g>
<path d="M225.098 111.088H222.371V113.822H225.098V111.088Z" fill="#078449"/>
<path d="M226.803 112.455H237.975" stroke="#078449" stroke-miterlimit="10" stroke-linejoin="round"/>
<path d="M225.098 116.062H222.371V118.797H225.098V116.062Z" fill="#92E3A9"/>
<path d="M226.803 117.429H237.975" stroke="#078449" stroke-miterlimit="10" stroke-linejoin="round"/>
<path d="M225.098 121.037H222.371V123.771H225.098V121.037Z" fill="#7D7D7D"/>
<path d="M226.803 122.404H237.975" stroke="#078449" stroke-miterlimit="10" stroke-linejoin="round"/>
<path d="M139.016 111.088H136.289V113.822H139.016V111.088Z" fill="#078449"/>
<path d="M140.721 112.455H151.893" stroke="#078449" stroke-miterlimit="10" stroke-linejoin="round"/>
<path d="M139.016 116.062H136.289V118.797H139.016V116.062Z" fill="#92E3A9"/>
<path d="M140.721 117.429H151.893" stroke="#078449" stroke-miterlimit="10" stroke-linejoin="round"/>
<path d="M139.016 121.037H136.289V123.771H139.016V121.037Z" fill="#7D7D7D"/>
<path d="M140.721 122.404H151.893" stroke="#078449" stroke-miterlimit="10" stroke-linejoin="round"/>
<path d="M225.098 177.948H222.371V180.682H225.098V177.948Z" fill="#078449"/>
<path d="M226.803 179.315H237.975" stroke="#078449" stroke-miterlimit="10" stroke-linejoin="round"/>
<path d="M225.098 182.922H222.371V185.656H225.098V182.922Z" fill="#92E3A9"/>
<path d="M226.803 184.289H237.975" stroke="#078449" stroke-miterlimit="10" stroke-linejoin="round"/>
<path d="M225.098 187.897H222.371V190.631H225.098V187.897Z" fill="#7D7D7D"/>
<path d="M226.803 189.264H237.975" stroke="#078449" stroke-miterlimit="10" stroke-linejoin="round"/>
<path d="M139.016 177.948H136.289V180.682H139.016V177.948Z" fill="#078449"/>
<path d="M140.721 179.315H151.893" stroke="#078449" stroke-miterlimit="10" stroke-linejoin="round"/>
<path d="M139.016 182.922H136.289V185.656H139.016V182.922Z" fill="#92E3A9"/>
<path d="M140.721 184.289H151.893" stroke="#078449" stroke-miterlimit="10" stroke-linejoin="round"/>
<path d="M139.016 187.897H136.289V190.631H139.016V187.897Z" fill="#7D7D7D"/>
<path d="M140.721 189.264H151.893" stroke="#078449" stroke-miterlimit="10" stroke-linejoin="round"/>
</g>
<path fill-rule="evenodd" clip-rule="evenodd" d="M199.587 171.22C199.336 170.969 199.195 170.629 199.195 170.274C199.195 169.92 199.336 169.58 199.587 169.329L203.598 165.317C203.722 165.19 203.869 165.088 204.032 165.018C204.196 164.948 204.371 164.911 204.549 164.909C204.726 164.908 204.902 164.941 205.067 165.009C205.231 165.076 205.38 165.175 205.506 165.301C205.631 165.426 205.731 165.576 205.798 165.74C205.865 165.904 205.899 166.08 205.897 166.258C205.896 166.435 205.859 166.611 205.789 166.774C205.719 166.937 205.617 167.085 205.489 167.208L201.478 171.22C201.227 171.47 200.887 171.611 200.532 171.611C200.178 171.611 199.838 171.47 199.587 171.22Z" fill="#1DBF73"/>
<path fill-rule="evenodd" clip-rule="evenodd" d="M209.5 171.22C209.25 171.47 208.91 171.611 208.555 171.611C208.2 171.611 207.86 171.47 207.61 171.22L203.598 167.208C203.354 166.956 203.22 166.618 203.223 166.267C203.226 165.917 203.366 165.581 203.614 165.334C203.862 165.086 204.198 164.945 204.548 164.942C204.899 164.939 205.237 165.074 205.489 165.317L209.5 169.329C209.751 169.58 209.892 169.92 209.892 170.274C209.892 170.629 209.751 170.969 209.5 171.22Z" fill="#078449"/>
<path fill-rule="evenodd" clip-rule="evenodd" d="M204.542 167.6C204.896 167.6 205.237 167.741 205.487 167.992C205.738 168.242 205.879 168.582 205.879 168.937V179.635C205.879 179.989 205.738 180.329 205.487 180.58C205.237 180.831 204.896 180.972 204.542 180.972C204.187 180.972 203.847 180.831 203.596 180.58C203.345 180.329 203.205 179.989 203.205 179.635V168.937C203.205 168.582 203.345 168.242 203.596 167.992C203.847 167.741 204.187 167.6 204.542 167.6ZM198.801 177.352C199.052 177.603 199.193 177.943 199.193 178.297C199.193 178.652 199.052 178.992 198.801 179.243L194.79 183.254C194.537 183.498 194.2 183.633 193.849 183.63C193.498 183.627 193.163 183.486 192.915 183.238C192.667 182.99 192.527 182.655 192.523 182.304C192.52 181.954 192.655 181.616 192.899 181.364L196.91 177.352C197.161 177.101 197.501 176.961 197.856 176.961C198.21 176.961 198.55 177.101 198.801 177.352Z" fill="#1DBF73"/>
<path fill-rule="evenodd" clip-rule="evenodd" d="M188.888 177.352C189.138 177.101 189.478 176.961 189.833 176.961C190.188 176.961 190.528 177.101 190.778 177.352L194.79 181.364C194.918 181.487 195.02 181.635 195.09 181.798C195.16 181.961 195.197 182.136 195.198 182.314C195.2 182.491 195.166 182.668 195.099 182.832C195.031 182.996 194.932 183.145 194.807 183.271C194.681 183.397 194.532 183.496 194.367 183.563C194.203 183.63 194.027 183.664 193.849 183.663C193.672 183.661 193.496 183.624 193.333 183.554C193.17 183.484 193.023 183.382 192.899 183.254L188.888 179.243C188.637 178.992 188.496 178.652 188.496 178.297C188.496 177.943 188.637 177.603 188.888 177.352Z" fill="#078449"/>
<path fill-rule="evenodd" clip-rule="evenodd" d="M193.845 180.972C193.49 180.972 193.15 180.831 192.899 180.58C192.649 180.329 192.508 179.989 192.508 179.635V168.937C192.508 168.582 192.649 168.242 192.899 167.992C193.15 167.741 193.49 167.6 193.845 167.6C194.2 167.6 194.54 167.741 194.791 167.992C195.041 168.242 195.182 168.582 195.182 168.937V179.635C195.182 179.989 195.041 180.329 194.791 180.58C194.54 180.831 194.2 180.972 193.845 180.972Z" fill="#078449"/>
<g clip-path="url(#clip1_619_513)">
<path d="M167.436 176.812C167.563 178.406 168.823 179.648 171.083 179.795V180.972H172.086V179.787C174.426 179.623 175.793 178.373 175.793 176.557C175.793 174.908 174.747 174.057 172.876 173.616L172.086 173.428V170.224C173.089 170.338 173.727 170.886 173.881 171.645H175.639C175.512 170.109 174.195 168.907 172.086 168.777V167.6H171.083V168.802C169.085 168.997 167.723 170.199 167.723 171.899C167.723 173.403 168.736 174.359 170.419 174.752L171.083 174.916V178.316C170.055 178.16 169.374 177.597 169.221 176.812H167.436ZM171.074 173.191C170.088 172.962 169.553 172.496 169.553 171.794C169.553 171.008 170.13 170.42 171.083 170.248V173.189L171.074 173.191ZM172.231 175.185C173.43 175.463 173.983 175.912 173.983 176.706C173.983 177.612 173.294 178.234 172.086 178.348V175.152L172.231 175.185Z" fill="#078449"/>
<path d="M171.614 185.986C168.511 185.986 165.535 184.754 163.341 182.559C161.146 180.365 159.914 177.389 159.914 174.286C159.914 171.183 161.146 168.207 163.341 166.012C165.535 163.818 168.511 162.585 171.614 162.585C174.717 162.585 177.693 163.818 179.888 166.012C182.082 168.207 183.315 171.183 183.315 174.286C183.315 177.389 182.082 180.365 179.888 182.559C177.693 184.754 174.717 185.986 171.614 185.986ZM171.614 187.658C175.161 187.658 178.562 186.249 181.07 183.741C183.577 181.234 184.986 177.832 184.986 174.286C184.986 170.739 183.577 167.338 181.07 164.83C178.562 162.323 175.161 160.914 171.614 160.914C168.068 160.914 164.666 162.323 162.159 164.83C159.651 167.338 158.242 170.739 158.242 174.286C158.242 177.832 159.651 181.234 162.159 183.741C164.666 186.249 168.068 187.658 171.614 187.658Z" fill="#1DBF73"/>
<path d="M171.613 183.479C169.175 183.479 166.836 182.511 165.112 180.787C163.388 179.062 162.42 176.724 162.42 174.286C162.42 171.848 163.388 169.509 165.112 167.785C166.836 166.061 169.175 165.093 171.613 165.093C174.051 165.093 176.389 166.061 178.114 167.785C179.838 169.509 180.806 171.848 180.806 174.286C180.806 176.724 179.838 179.062 178.114 180.787C176.389 182.511 174.051 183.479 171.613 183.479ZM171.613 184.315C172.93 184.315 174.234 184.055 175.451 183.551C176.668 183.047 177.773 182.309 178.705 181.377C179.636 180.446 180.375 179.341 180.879 178.124C181.383 176.907 181.642 175.603 181.642 174.286C181.642 172.969 181.383 171.665 180.879 170.448C180.375 169.231 179.636 168.126 178.705 167.194C177.773 166.263 176.668 165.524 175.451 165.02C174.234 164.516 172.93 164.257 171.613 164.257C168.953 164.257 166.402 165.314 164.521 167.194C162.641 169.075 161.584 171.626 161.584 174.286C161.584 176.946 162.641 179.497 164.521 181.377C166.402 183.258 168.953 184.315 171.613 184.315Z" fill="#1DBF73"/>
</g>
<path d="M203.943 138.502C203.149 138.495 202.357 138.415 201.577 138.263C200.828 138.105 200.095 137.875 199.391 137.574L198.882 137.454H198.522C198.223 137.454 198.073 137.664 198.073 138.083V139.071C198.031 139.259 198.031 139.453 198.073 139.64C198.224 139.887 198.442 140.084 198.702 140.209C199.422 140.57 200.188 140.832 200.978 140.988C201.959 141.223 202.964 141.343 203.973 141.347C204.988 141.378 206 141.236 206.968 140.928C207.767 140.718 208.512 140.341 209.154 139.82C209.76 139.351 210.26 138.759 210.621 138.083C210.965 137.353 211.139 136.554 211.13 135.747C211.141 134.746 210.826 133.768 210.232 132.962C209.433 132.055 208.396 131.391 207.237 131.045L204.392 130.147C203.597 129.941 202.853 129.574 202.206 129.069C202.016 128.887 201.865 128.668 201.762 128.426C201.66 128.184 201.607 127.924 201.607 127.661C201.586 127.306 201.661 126.951 201.824 126.635C201.987 126.319 202.233 126.053 202.535 125.864C203.364 125.462 204.281 125.277 205.201 125.325C206.511 125.294 207.812 125.56 209.004 126.104C209.248 126.228 209.511 126.309 209.783 126.344C210.082 126.344 210.232 126.104 210.232 125.685V124.607C210.241 124.374 210.178 124.144 210.052 123.948C209.892 123.744 209.687 123.58 209.453 123.469C209.186 123.322 208.905 123.201 208.615 123.109C208.242 122.978 207.862 122.868 207.477 122.78L206.159 122.48C205.671 122.445 205.18 122.445 204.692 122.48C203.851 122.466 203.014 122.577 202.206 122.81C201.45 123.031 200.74 123.386 200.11 123.858C199.525 124.285 199.044 124.837 198.702 125.475C198.335 126.155 198.149 126.919 198.163 127.691C198.145 128.772 198.493 129.828 199.151 130.686C199.974 131.677 201.083 132.388 202.326 132.722L205.321 133.621C206.062 133.794 206.75 134.143 207.327 134.639C207.686 135.019 207.879 135.525 207.866 136.047C207.873 136.426 207.779 136.799 207.595 137.131C207.411 137.462 207.143 137.739 206.818 137.933C205.929 138.381 204.935 138.577 203.943 138.502ZM186.543 123.978C186.497 123.684 186.361 123.412 186.154 123.199C185.93 123.034 185.652 122.959 185.375 122.99H183.728C183.453 122.974 183.18 123.048 182.95 123.199C182.731 123.404 182.593 123.68 182.56 123.978L179.566 137.155L176.152 123.978C176.097 123.681 175.95 123.408 175.732 123.199C175.732 123.199 175.343 122.99 174.954 122.99H173.007C172.678 122.99 172.528 123.169 172.528 123.499C172.557 123.774 172.617 124.045 172.708 124.307L177.379 139.7C177.44 139.974 177.563 140.23 177.739 140.449C177.974 140.586 178.246 140.649 178.517 140.629H180.224C180.506 140.648 180.786 140.585 181.033 140.449C181.222 140.216 181.346 139.937 181.392 139.64L184.387 126.823L187.382 139.67C187.407 139.964 187.534 140.24 187.741 140.449C187.977 140.614 188.264 140.688 188.55 140.659H190.257C190.523 140.672 190.785 140.598 191.006 140.449C191.231 140.245 191.379 139.97 191.425 139.67L196.246 124.277C196.264 124.118 196.264 123.957 196.246 123.798C196.258 123.689 196.258 123.578 196.246 123.469C196.256 123.399 196.25 123.329 196.228 123.263C196.206 123.196 196.169 123.136 196.12 123.086C196.07 123.037 196.01 123 195.943 122.978C195.877 122.956 195.806 122.95 195.737 122.96H193.881C193.606 122.948 193.334 123.021 193.102 123.169C192.918 123.398 192.785 123.663 192.713 123.948L189.718 137.454L186.543 123.978ZM165.071 130.357C164.366 130.264 163.656 130.214 162.945 130.207C161.182 130.114 159.446 130.668 158.063 131.764C157.474 132.269 157.007 132.9 156.695 133.61C156.384 134.32 156.238 135.092 156.266 135.867C156.231 136.573 156.344 137.278 156.597 137.938C156.849 138.598 157.237 139.198 157.734 139.7C158.268 140.193 158.896 140.575 159.58 140.822C160.264 141.069 160.991 141.176 161.717 141.138C162.86 141.171 163.995 140.939 165.034 140.461C166.073 139.983 166.987 139.272 167.706 138.383C167.881 138.784 168.081 139.174 168.305 139.551C168.518 139.88 168.759 140.19 169.024 140.479C169.096 140.552 169.183 140.61 169.278 140.65C169.373 140.69 169.475 140.71 169.578 140.71C169.681 140.71 169.783 140.69 169.878 140.65C169.973 140.61 170.06 140.552 170.132 140.479L171.39 139.64C171.495 139.575 171.584 139.488 171.652 139.384C171.719 139.281 171.762 139.164 171.779 139.041C171.828 138.885 171.828 138.718 171.779 138.562C171.537 138.109 171.326 137.638 171.15 137.155C170.99 136.57 170.919 135.964 170.941 135.358V129.039C171.012 128.151 170.903 127.259 170.62 126.415C170.337 125.57 169.886 124.792 169.294 124.128C168.532 123.488 167.648 123.011 166.695 122.728C165.742 122.444 164.74 122.36 163.753 122.48C162.742 122.48 161.736 122.611 160.758 122.87C159.888 123.072 159.044 123.373 158.243 123.768C158.031 123.862 157.846 124.006 157.704 124.187C157.631 124.411 157.631 124.652 157.704 124.876V125.864C157.704 126.284 157.704 126.463 158.123 126.463C158.232 126.487 158.344 126.487 158.452 126.463L159.141 126.224C159.75 125.925 160.38 125.675 161.028 125.475C161.733 125.298 162.457 125.208 163.184 125.206C164.342 125.084 165.501 125.417 166.419 126.134C167.132 127.03 167.465 128.17 167.347 129.308V130.776L165.071 130.357ZM167.407 133.052V133.86C167.409 134.446 167.339 135.029 167.197 135.597C167.071 136.074 166.835 136.515 166.508 136.885C166.009 137.472 165.356 137.908 164.622 138.143C163.967 138.373 163.279 138.495 162.585 138.502C162.205 138.531 161.824 138.482 161.463 138.358C161.103 138.234 160.772 138.039 160.489 137.784C160.227 137.499 160.027 137.163 159.903 136.797C159.779 136.431 159.734 136.042 159.77 135.657C159.745 135.227 159.822 134.797 159.994 134.402C160.165 134.007 160.427 133.657 160.758 133.381C161.631 132.769 162.691 132.483 163.753 132.573H165.61C166.217 132.7 166.817 132.859 167.407 133.052ZM206.968 149.433C199.808 152.445 192.124 154.013 184.357 154.045C173.961 154.047 163.743 151.343 154.709 146.199C153.99 145.75 153.421 146.498 154.05 147.067C162.182 154.418 172.767 158.466 183.728 158.418C192.373 158.439 200.824 155.862 207.986 151.02C209.004 150.092 208.076 148.864 206.968 149.433Z" fill="#1DBF73"/>
<path d="M202.834 146.618C202.265 147.037 202.355 147.606 202.984 147.517C205.11 147.247 209.812 146.708 210.65 147.786C211.489 148.864 209.722 153.267 208.913 155.243C208.674 155.842 209.213 156.082 209.752 155.632C211.115 154.377 212.161 152.815 212.801 151.076C213.442 149.337 213.659 147.47 213.435 145.63C211.714 144.952 209.858 144.689 208.017 144.86C206.175 145.032 204.4 145.634 202.834 146.618Z" fill="#078449"/>
<defs>
<filter id="filter0_d_619_513" x="0" y="0.835419" width="366.479" height="303.291" filterUnits="userSpaceOnUse" color-interpolation-filters="sRGB">
<feFlood flood-opacity="0" result="BackgroundImageFix"/>
<feColorMatrix in="SourceAlpha" type="matrix" values="0 0 0 0 0 0 0 0 0 0 0 0 0 0 0 0 0 0 127 0" result="hardAlpha"/>
<feMorphology radius="4" operator="dilate" in="SourceAlpha" result="effect1_dropShadow_619_513"/>
<feOffset/>
<feGaussianBlur stdDeviation="5"/>
<feComposite in2="hardAlpha" operator="out"/>
<feColorMatrix type="matrix" values="0 0 0 0 0 0 0 0 0 0 0 0 0 0 0 0 0 0 0.06 0"/>
<feBlend mode="normal" in2="BackgroundImageFix" result="effect1_dropShadow_619_513"/>
<feBlend mode="normal" in="SourceGraphic" in2="effect1_dropShadow_619_513" result="shape"/>
</filter>
<filter id="filter1_d_619_513" x="102.238" y="79.9307" width="162.002" height="142.1" filterUnits="userSpaceOnUse" color-interpolation-filters="sRGB">
<feFlood flood-opacity="0" result="BackgroundImageFix"/>
<feColorMatrix in="SourceAlpha" type="matrix" values="0 0 0 0 0 0 0 0 0 0 0 0 0 0 0 0 0 0 127 0" result="hardAlpha"/>
<feMorphology radius="2" operator="dilate" in="SourceAlpha" result="effect1_dropShadow_619_513"/>
<feOffset/>
<feGaussianBlur stdDeviation="2"/>
<feComposite in2="hardAlpha" operator="out"/>
<feColorMatrix type="matrix" values="0 0 0 0 0 0 0 0 0 0 0 0 0 0 0 0 0 0 0.11 0"/>
<feBlend mode="normal" in2="BackgroundImageFix" result="effect1_dropShadow_619_513"/>
<feBlend mode="normal" in="SourceGraphic" in2="effect1_dropShadow_619_513" result="shape"/>
</filter>
<filter id="filter2_d_619_513" x="123.736" y="102.234" width="124.192" height="102.796" filterUnits="userSpaceOnUse" color-interpolation-filters="sRGB">
<feFlood flood-opacity="0" result="BackgroundImageFix"/>
<feColorMatrix in="SourceAlpha" type="matrix" values="0 0 0 0 0 0 0 0 0 0 0 0 0 0 0 0 0 0 127 0" result="hardAlpha"/>
<feOffset dy="4"/>
<feGaussianBlur stdDeviation="2"/>
<feComposite in2="hardAlpha" operator="out"/>
<feColorMatrix type="matrix" values="0 0 0 0 0 0 0 0 0 0 0 0 0 0 0 0 0 0 0.1 0"/>
<feBlend mode="normal" in2="BackgroundImageFix" result="effect1_dropShadow_619_513"/>
<feBlend mode="normal" in="SourceGraphic" in2="effect1_dropShadow_619_513" result="shape"/>
</filter>
<linearGradient id="paint0_linear_619_513" x1="-33.8308" y1="73.2362" x2="385.945" y2="-36.9361" gradientUnits="userSpaceOnUse">
<stop stop-color="#1DBF73"/>
<stop offset="1" stop-color="#3BBF64"/>
</linearGradient>
<clipPath id="clip0_619_513">
<rect width="122.992" height="104.468" fill="white" transform="translate(121.744 98.7463)"/>
</clipPath>
<clipPath id="clip1_619_513">
<rect width="31.9213" height="27.1331" fill="white" transform="translate(153.191 161.193)"/>
</clipPath>
</defs>
</svg>
