<svg width="367" height="305" viewBox="0 0 367 305" fill="none" xmlns="http://www.w3.org/2000/svg">
<g filter="url(#filter0_d_619_594)">
<rect x="14" y="14.8354" width="338.479" height="275.291" rx="10" fill="white"/>
<rect x="14.5" y="15.3354" width="337.479" height="274.291" rx="9.5" stroke="#E7E7E7"/>
</g>
<mask id="mask0_619_594" style="mask-type:alpha" maskUnits="userSpaceOnUse" x="14" y="14" width="339" height="277">
<rect x="14.5" y="15.3354" width="337.479" height="274.291" rx="9.5" fill="white" stroke="#E7E7E7"/>
</mask>
<g mask="url(#mask0_619_594)">
<path d="M252.597 187.007C319.379 264.527 407.569 183.045 372.351 81.3169C357.751 39.0505 337.716 10.4472 356.402 -34.1856C361.006 -45.2841 364.664 -56.8049 368.717 -68.094C376.255 -89.0147 367.734 -121.478 342.849 -139.924C306.726 -166.819 265.019 -185.711 222.96 -201.493C167.788 -222.048 110.697 -217.457 92.7295 -159.267C82.3317 -125.694 87.2981 -95.3156 56.1281 -77.2447C37.8784 -66.5879 25.5092 -58.9831 16.5235 -37.8501C0.335916 -0.243092 -0.990949 -12.2995 -18.7621 5.27218C-61.7056 47.2194 -27.2932 112.783 31.5047 128.698C70.7171 139.361 104.717 121.888 125.024 115.888C198.126 94.02 198.346 124.136 252.597 187.007Z" fill="#E7E7E7"/>
</g>
<rect x="111.49" y="234.746" width="150" height="35.38" rx="17.69" fill="#E7E7E7"/>
<path d="M133.498 255.696C134.149 256.08 134.778 256.352 135.386 256.512C136.005 256.661 136.56 256.736 137.05 256.736C137.786 256.736 138.384 256.592 138.842 256.304C139.312 256.005 139.546 255.573 139.546 255.008C139.546 254.688 139.466 254.416 139.306 254.192C139.146 253.968 138.933 253.771 138.666 253.6C138.41 253.429 138.106 253.285 137.754 253.168C137.413 253.04 137.061 252.912 136.698 252.784C136.282 252.645 135.866 252.496 135.45 252.336C135.045 252.176 134.677 251.979 134.346 251.744C134.016 251.499 133.749 251.2 133.546 250.848C133.344 250.496 133.242 250.053 133.242 249.52C133.242 248.976 133.349 248.512 133.562 248.128C133.786 247.744 134.074 247.429 134.426 247.184C134.789 246.928 135.2 246.747 135.658 246.64C136.128 246.523 136.602 246.464 137.082 246.464C137.744 246.464 138.384 246.555 139.002 246.736C139.632 246.917 140.192 247.163 140.682 247.472L140.122 248.704C139.589 248.427 139.072 248.213 138.57 248.064C138.069 247.904 137.578 247.824 137.098 247.824C136.81 247.824 136.528 247.856 136.25 247.92C135.973 247.973 135.722 248.064 135.498 248.192C135.285 248.32 135.109 248.485 134.97 248.688C134.842 248.891 134.778 249.136 134.778 249.424C134.778 249.701 134.842 249.941 134.97 250.144C135.109 250.336 135.29 250.507 135.514 250.656C135.738 250.805 136 250.939 136.298 251.056C136.608 251.173 136.933 251.291 137.274 251.408C137.701 251.557 138.138 251.717 138.586 251.888C139.034 252.059 139.44 252.277 139.802 252.544C140.176 252.811 140.48 253.136 140.714 253.52C140.96 253.904 141.082 254.379 141.082 254.944C141.082 255.456 140.976 255.909 140.762 256.304C140.56 256.699 140.277 257.029 139.914 257.296C139.552 257.552 139.12 257.749 138.618 257.888C138.117 258.027 137.573 258.096 136.986 258.096C136.336 258.096 135.664 258.011 134.97 257.84C134.277 257.659 133.594 257.355 132.922 256.928L133.498 255.696ZM148.059 257.936C147.995 257.669 147.953 257.403 147.931 257.136C147.067 257.776 146.203 258.096 145.339 258.096C144.891 258.096 144.502 258.011 144.171 257.84C143.851 257.669 143.59 257.44 143.387 257.152C143.185 256.853 143.035 256.507 142.939 256.112C142.843 255.717 142.795 255.296 142.795 254.848V249.696L144.219 249.568V254.784C144.219 255.072 144.241 255.344 144.283 255.6C144.337 255.856 144.417 256.08 144.523 256.272C144.641 256.453 144.795 256.597 144.987 256.704C145.19 256.811 145.435 256.864 145.723 256.864C146.043 256.864 146.39 256.795 146.763 256.656C147.147 256.507 147.526 256.309 147.899 256.064V249.696L149.323 249.568V255.968C149.323 256.277 149.329 256.608 149.339 256.96C149.361 257.301 149.409 257.627 149.483 257.936H148.059ZM153.096 257.936H151.88V246.016L153.304 245.888V250.544C153.709 250.224 154.131 249.973 154.568 249.792C155.005 249.6 155.464 249.504 155.944 249.504C156.477 249.504 156.947 249.621 157.352 249.856C157.768 250.091 158.115 250.405 158.392 250.8C158.669 251.184 158.877 251.627 159.016 252.128C159.165 252.629 159.24 253.147 159.24 253.68C159.24 254.277 159.155 254.843 158.984 255.376C158.824 255.909 158.584 256.379 158.264 256.784C157.944 257.189 157.549 257.509 157.08 257.744C156.621 257.979 156.093 258.096 155.496 258.096C155.091 258.096 154.691 258.037 154.296 257.92C153.901 257.792 153.555 257.605 153.256 257.36L153.096 257.936ZM153.304 256.224C153.592 256.416 153.907 256.571 154.248 256.688C154.6 256.805 154.957 256.864 155.32 256.864C155.747 256.864 156.115 256.779 156.424 256.608C156.744 256.437 157.005 256.203 157.208 255.904C157.411 255.605 157.56 255.264 157.656 254.88C157.752 254.496 157.8 254.085 157.8 253.648C157.8 253.253 157.757 252.88 157.672 252.528C157.587 252.165 157.453 251.856 157.272 251.6C157.101 251.333 156.877 251.125 156.6 250.976C156.323 250.816 155.997 250.736 155.624 250.736C155.219 250.736 154.803 250.821 154.376 250.992C153.96 251.163 153.603 251.355 153.304 251.568V256.224ZM166.071 251.408C165.644 251.195 165.234 251.024 164.839 250.896C164.444 250.768 164.055 250.704 163.671 250.704C163.468 250.704 163.271 250.725 163.079 250.768C162.898 250.811 162.732 250.875 162.583 250.96C162.444 251.045 162.332 251.152 162.247 251.28C162.162 251.397 162.119 251.541 162.119 251.712C162.119 251.893 162.167 252.059 162.263 252.208C162.37 252.347 162.508 252.475 162.679 252.592C162.85 252.699 163.052 252.8 163.287 252.896C163.522 252.981 163.767 253.067 164.023 253.152C164.343 253.259 164.663 253.376 164.983 253.504C165.303 253.632 165.596 253.797 165.863 254C166.13 254.192 166.343 254.432 166.503 254.72C166.674 255.008 166.759 255.36 166.759 255.776C166.759 256.213 166.668 256.581 166.487 256.88C166.316 257.168 166.082 257.403 165.783 257.584C165.495 257.765 165.159 257.893 164.775 257.968C164.391 258.053 163.991 258.096 163.575 258.096C163.052 258.096 162.535 258.037 162.023 257.92C161.511 257.792 161.036 257.589 160.599 257.312L161.095 256.192C161.511 256.405 161.943 256.576 162.391 256.704C162.85 256.832 163.287 256.896 163.703 256.896C163.906 256.896 164.103 256.88 164.295 256.848C164.498 256.805 164.674 256.747 164.823 256.672C164.983 256.587 165.106 256.475 165.191 256.336C165.287 256.197 165.335 256.032 165.335 255.84C165.335 255.648 165.282 255.477 165.175 255.328C165.068 255.179 164.924 255.051 164.743 254.944C164.562 254.827 164.343 254.72 164.087 254.624C163.831 254.517 163.559 254.416 163.271 254.32C162.962 254.213 162.652 254.096 162.343 253.968C162.034 253.829 161.756 253.664 161.511 253.472C161.266 253.28 161.068 253.051 160.919 252.784C160.77 252.507 160.695 252.181 160.695 251.808C160.695 251.424 160.775 251.088 160.935 250.8C161.095 250.512 161.308 250.272 161.575 250.08C161.852 249.888 162.172 249.744 162.535 249.648C162.898 249.552 163.287 249.504 163.703 249.504C164.172 249.504 164.658 249.568 165.159 249.696C165.66 249.813 166.124 250.011 166.551 250.288L166.071 251.408ZM174.9 257.312C174.506 257.579 174.052 257.776 173.54 257.904C173.039 258.032 172.532 258.096 172.02 258.096C171.391 258.096 170.831 257.995 170.34 257.792C169.86 257.579 169.455 257.285 169.124 256.912C168.794 256.528 168.543 256.075 168.372 255.552C168.202 255.019 168.116 254.432 168.116 253.792C168.116 253.173 168.196 252.603 168.356 252.08C168.527 251.557 168.778 251.104 169.108 250.72C169.439 250.336 169.85 250.037 170.34 249.824C170.831 249.611 171.402 249.504 172.052 249.504C172.607 249.504 173.114 249.579 173.572 249.728C174.031 249.877 174.436 250.064 174.788 250.288L174.308 251.408C173.882 251.184 173.487 251.019 173.124 250.912C172.762 250.795 172.41 250.736 172.068 250.736C171.279 250.736 170.66 251.003 170.212 251.536C169.775 252.059 169.556 252.811 169.556 253.792C169.556 254.229 169.604 254.64 169.7 255.024C169.807 255.397 169.967 255.723 170.18 256C170.394 256.267 170.66 256.48 170.98 256.64C171.311 256.789 171.695 256.864 172.132 256.864C172.538 256.864 172.932 256.805 173.316 256.688C173.7 256.56 174.068 256.395 174.42 256.192L174.9 257.312ZM177.991 257.936H176.567V249.696L177.847 249.568L177.991 250.832C178.332 250.416 178.684 250.091 179.047 249.856C179.42 249.621 179.815 249.504 180.231 249.504C180.519 249.504 180.839 249.563 181.191 249.68L180.855 251.056C180.695 251.003 180.54 250.971 180.391 250.96C180.252 250.939 180.124 250.928 180.007 250.928C179.591 250.928 179.228 251.008 178.919 251.168C178.609 251.328 178.3 251.547 177.991 251.824V257.936ZM184.085 257.936H182.661V249.696L184.085 249.568V257.936ZM184.293 246.8C184.293 247.056 184.208 247.269 184.037 247.44C183.867 247.611 183.643 247.696 183.365 247.696C183.088 247.696 182.864 247.611 182.693 247.44C182.523 247.269 182.437 247.056 182.437 246.8C182.437 246.533 182.523 246.32 182.693 246.16C182.864 246 183.088 245.92 183.365 245.92C183.643 245.92 183.867 246 184.037 246.16C184.208 246.32 184.293 246.533 184.293 246.8ZM187.893 257.936H186.677V246.016L188.101 245.888V250.544C188.506 250.224 188.928 249.973 189.365 249.792C189.802 249.6 190.261 249.504 190.741 249.504C191.274 249.504 191.744 249.621 192.149 249.856C192.565 250.091 192.912 250.405 193.189 250.8C193.466 251.184 193.674 251.627 193.813 252.128C193.962 252.629 194.037 253.147 194.037 253.68C194.037 254.277 193.952 254.843 193.781 255.376C193.621 255.909 193.381 256.379 193.061 256.784C192.741 257.189 192.346 257.509 191.877 257.744C191.418 257.979 190.89 258.096 190.293 258.096C189.888 258.096 189.488 258.037 189.093 257.92C188.698 257.792 188.352 257.605 188.053 257.36L187.893 257.936ZM188.101 256.224C188.389 256.416 188.704 256.571 189.045 256.688C189.397 256.805 189.754 256.864 190.117 256.864C190.544 256.864 190.912 256.779 191.221 256.608C191.541 256.437 191.802 256.203 192.005 255.904C192.208 255.605 192.357 255.264 192.453 254.88C192.549 254.496 192.597 254.085 192.597 253.648C192.597 253.253 192.554 252.88 192.469 252.528C192.384 252.165 192.25 251.856 192.069 251.6C191.898 251.333 191.674 251.125 191.397 250.976C191.12 250.816 190.794 250.736 190.421 250.736C190.016 250.736 189.6 250.821 189.173 250.992C188.757 251.163 188.4 251.355 188.101 251.568V256.224ZM202.26 257.312C201.865 257.579 201.412 257.776 200.9 257.904C200.388 258.032 199.892 258.096 199.412 258.096C198.761 258.096 198.191 257.989 197.7 257.776C197.209 257.563 196.799 257.264 196.468 256.88C196.137 256.485 195.887 256.021 195.716 255.488C195.556 254.944 195.476 254.352 195.476 253.712C195.476 253.147 195.54 252.608 195.668 252.096C195.807 251.584 196.02 251.136 196.308 250.752C196.596 250.368 196.959 250.064 197.396 249.84C197.844 249.616 198.377 249.504 198.996 249.504C199.551 249.504 200.041 249.6 200.468 249.792C200.895 249.973 201.252 250.229 201.54 250.56C201.828 250.891 202.047 251.291 202.196 251.76C202.345 252.219 202.42 252.72 202.42 253.264C202.42 253.659 202.388 254.005 202.324 254.304H196.916C197.001 255.093 197.252 255.717 197.668 256.176C198.084 256.635 198.687 256.864 199.476 256.864C199.881 256.864 200.276 256.805 200.66 256.688C201.055 256.56 201.428 256.395 201.78 256.192L202.26 257.312ZM201.012 253.168C201.001 252.816 200.953 252.491 200.868 252.192C200.783 251.883 200.66 251.621 200.5 251.408C200.34 251.184 200.137 251.013 199.892 250.896C199.647 250.768 199.353 250.704 199.012 250.704C198.66 250.704 198.356 250.768 198.1 250.896C197.855 251.024 197.647 251.2 197.476 251.424C197.316 251.648 197.188 251.909 197.092 252.208C196.996 252.507 196.932 252.827 196.9 253.168H201.012ZM217.226 257.936H215.754L210.074 249.136V257.936H208.602V246.624H210.074L215.754 255.424V246.624H217.226V257.936ZM224.438 256.624C224.747 256.464 225.003 256.251 225.206 255.984C225.408 255.707 225.558 255.381 225.654 255.008C225.75 254.635 225.798 254.229 225.798 253.792C225.798 253.365 225.75 252.965 225.654 252.592C225.558 252.219 225.408 251.899 225.206 251.632C225.003 251.355 224.747 251.136 224.438 250.976C224.128 250.816 223.76 250.736 223.334 250.736C222.896 250.736 222.523 250.816 222.214 250.976C221.904 251.136 221.643 251.355 221.43 251.632C221.227 251.899 221.078 252.219 220.982 252.592C220.886 252.965 220.838 253.365 220.838 253.792C220.838 254.229 220.886 254.635 220.982 255.008C221.078 255.381 221.227 255.707 221.43 255.984C221.643 256.251 221.904 256.464 222.214 256.624C222.523 256.784 222.896 256.864 223.334 256.864C223.76 256.864 224.128 256.784 224.438 256.624ZM226.23 256.912C225.91 257.285 225.504 257.579 225.014 257.792C224.534 257.995 223.974 258.096 223.334 258.096C222.694 258.096 222.128 257.995 221.638 257.792C221.158 257.579 220.747 257.285 220.406 256.912C220.075 256.528 219.824 256.075 219.654 255.552C219.483 255.019 219.398 254.432 219.398 253.792C219.398 253.163 219.483 252.587 219.654 252.064C219.824 251.531 220.075 251.077 220.406 250.704C220.747 250.32 221.158 250.027 221.638 249.824C222.128 249.611 222.694 249.504 223.334 249.504C223.963 249.504 224.518 249.611 224.998 249.824C225.488 250.027 225.899 250.32 226.23 250.704C226.56 251.077 226.811 251.531 226.982 252.064C227.152 252.587 227.238 253.163 227.238 253.792C227.238 254.432 227.152 255.019 226.982 255.552C226.811 256.075 226.56 256.528 226.23 256.912ZM237.351 257.936H235.735L233.895 252.528L232.167 257.936H230.551L228.295 249.664H229.719L231.383 256.384L233.351 250.32H234.535L236.503 256.416L238.263 249.664H239.591L237.351 257.936Z" fill="#767676"/>
<path d="M48.8402 61.668H45.3362V50.028L41.1602 56.7H39.4322L35.3042 50.1V61.668H31.9682V44.7H35.5682L40.4402 52.5L45.3122 44.7H48.8402V61.668ZM57.7365 59.244C58.7445 59.244 59.4725 58.892 59.9205 58.188C60.3845 57.484 60.6165 56.556 60.6165 55.404C60.6165 54.252 60.3845 53.324 59.9205 52.62C59.4725 51.9 58.7445 51.54 57.7365 51.54C56.7285 51.54 55.9925 51.9 55.5285 52.62C55.0645 53.324 54.8325 54.252 54.8325 55.404C54.8325 56.556 55.0645 57.484 55.5285 58.188C55.9925 58.892 56.7285 59.244 57.7365 59.244ZM62.3685 60.084C61.8405 60.66 61.1845 61.108 60.4005 61.428C59.6165 61.748 58.7285 61.908 57.7365 61.908C56.7445 61.908 55.8565 61.748 55.0725 61.428C54.2885 61.108 53.6245 60.66 53.0805 60.084C52.5365 59.508 52.1205 58.828 51.8325 58.044C51.5605 57.244 51.4245 56.364 51.4245 55.404C51.4245 54.444 51.5605 53.564 51.8325 52.764C52.1205 51.964 52.5365 51.276 53.0805 50.7C53.6245 50.124 54.2885 49.676 55.0725 49.356C55.8565 49.036 56.7445 48.876 57.7365 48.876C58.7285 48.876 59.6165 49.036 60.4005 49.356C61.1845 49.676 61.8405 50.124 62.3685 50.7C62.9125 51.276 63.3205 51.964 63.5925 52.764C63.8805 53.564 64.0245 54.444 64.0245 55.404C64.0245 56.364 63.8805 57.244 63.5925 58.044C63.3205 58.828 62.9125 59.508 62.3685 60.084ZM74.4329 61.668C74.3049 61.124 74.2249 60.532 74.1929 59.892C74.1609 59.252 74.1449 58.7 74.1449 58.236V53.964C74.1449 53.628 74.1129 53.316 74.0489 53.028C74.0009 52.724 73.9129 52.468 73.7849 52.26C73.6569 52.036 73.4729 51.86 73.2329 51.732C73.0089 51.604 72.7289 51.54 72.3929 51.54C71.9769 51.54 71.5449 51.628 71.0969 51.804C70.6489 51.98 70.2009 52.228 69.7529 52.548V61.668H66.3689V49.26L69.0809 48.972L69.3929 50.748C70.0009 50.236 70.6569 49.796 71.3609 49.428C72.0649 49.06 72.8409 48.876 73.6889 48.876C74.3609 48.876 74.9369 49.004 75.4169 49.26C75.8969 49.5 76.2889 49.844 76.5929 50.292C76.9129 50.724 77.1449 51.236 77.2889 51.828C77.4489 52.42 77.5289 53.06 77.5289 53.748V58.236C77.5289 58.7 77.5449 59.252 77.5769 59.892C77.6089 60.532 77.6889 61.124 77.8169 61.668H74.4329ZM83.8399 61.668H80.4559V49.26L83.8399 48.972V61.668ZM84.1279 45.036C84.1279 45.58 83.9519 46.02 83.5999 46.356C83.2639 46.692 82.7759 46.86 82.1359 46.86C81.4959 46.86 80.9999 46.692 80.6479 46.356C80.3119 46.02 80.1439 45.58 80.1439 45.036C80.1439 44.508 80.3119 44.084 80.6479 43.764C80.9999 43.428 81.4959 43.26 82.1359 43.26C82.7759 43.26 83.2639 43.428 83.5999 43.764C83.9519 44.084 84.1279 44.508 84.1279 45.036ZM94.9412 61.308C94.0292 61.708 93.1012 61.908 92.1572 61.908C90.7012 61.908 89.6292 61.492 88.9412 60.66C88.2692 59.812 87.9332 58.588 87.9332 56.988V51.66H85.6292V49.116H87.9332V46.14L91.3412 45.852V49.116H94.4372V51.66H91.3412V56.508C91.3412 57.34 91.4452 58.004 91.6532 58.5C91.8772 58.996 92.3172 59.244 92.9732 59.244C93.3892 59.244 93.8452 59.156 94.3412 58.98L94.9412 61.308ZM102.455 59.244C103.463 59.244 104.191 58.892 104.639 58.188C105.103 57.484 105.335 56.556 105.335 55.404C105.335 54.252 105.103 53.324 104.639 52.62C104.191 51.9 103.463 51.54 102.455 51.54C101.447 51.54 100.711 51.9 100.247 52.62C99.7833 53.324 99.5513 54.252 99.5513 55.404C99.5513 56.556 99.7833 57.484 100.247 58.188C100.711 58.892 101.447 59.244 102.455 59.244ZM107.087 60.084C106.559 60.66 105.903 61.108 105.119 61.428C104.335 61.748 103.447 61.908 102.455 61.908C101.463 61.908 100.575 61.748 99.7913 61.428C99.0073 61.108 98.3433 60.66 97.7993 60.084C97.2553 59.508 96.8393 58.828 96.5513 58.044C96.2793 57.244 96.1433 56.364 96.1433 55.404C96.1433 54.444 96.2793 53.564 96.5513 52.764C96.8393 51.964 97.2553 51.276 97.7993 50.7C98.3433 50.124 99.0073 49.676 99.7913 49.356C100.575 49.036 101.463 48.876 102.455 48.876C103.447 48.876 104.335 49.036 105.119 49.356C105.903 49.676 106.559 50.124 107.087 50.7C107.631 51.276 108.039 51.964 108.311 52.764C108.599 53.564 108.743 54.444 108.743 55.404C108.743 56.364 108.599 57.244 108.311 58.044C108.039 58.828 107.631 59.508 107.087 60.084ZM114.472 61.668H111.088V49.26L113.8 48.972L114.136 50.892C114.6 50.284 115.088 49.796 115.6 49.428C116.112 49.06 116.704 48.876 117.376 48.876C117.808 48.876 118.288 48.964 118.816 49.14L118.192 52.092C117.92 51.996 117.672 51.94 117.448 51.924C117.224 51.892 117.024 51.876 116.848 51.876C116.368 51.876 115.944 51.948 115.576 52.092C115.224 52.236 114.856 52.452 114.472 52.74V61.668ZM123.918 61.668H120.534V49.26L123.918 48.972V61.668ZM124.206 45.036C124.206 45.58 124.03 46.02 123.678 46.356C123.342 46.692 122.854 46.86 122.214 46.86C121.574 46.86 121.078 46.692 120.726 46.356C120.39 46.02 120.222 45.58 120.222 45.036C120.222 44.508 120.39 44.084 120.726 43.764C121.078 43.428 121.574 43.26 122.214 43.26C122.854 43.26 123.342 43.428 123.678 43.764C124.03 44.084 124.206 44.508 124.206 45.036ZM134.995 61.668C134.867 61.124 134.787 60.532 134.755 59.892C134.723 59.252 134.707 58.7 134.707 58.236V53.964C134.707 53.628 134.675 53.316 134.611 53.028C134.563 52.724 134.475 52.468 134.347 52.26C134.219 52.036 134.035 51.86 133.795 51.732C133.571 51.604 133.291 51.54 132.955 51.54C132.539 51.54 132.107 51.628 131.659 51.804C131.211 51.98 130.763 52.228 130.315 52.548V61.668H126.931V49.26L129.643 48.972L129.955 50.748C130.563 50.236 131.219 49.796 131.923 49.428C132.627 49.06 133.403 48.876 134.251 48.876C134.923 48.876 135.499 49.004 135.979 49.26C136.459 49.5 136.851 49.844 137.155 50.292C137.475 50.724 137.707 51.236 137.851 51.828C138.011 52.42 138.091 53.06 138.091 53.748V58.236C138.091 58.7 138.107 59.252 138.139 59.892C138.171 60.532 138.251 61.124 138.379 61.668H134.995ZM152.274 61.164C152.274 63.26 151.706 64.836 150.57 65.892C149.45 66.948 147.93 67.476 146.01 67.476C144.314 67.476 142.778 67.06 141.402 66.228L142.362 63.876C143.482 64.5 144.594 64.812 145.698 64.812C147.826 64.812 148.89 63.612 148.89 61.212V60.564C148.394 60.932 147.834 61.244 147.21 61.5C146.602 61.74 145.962 61.86 145.29 61.86C144.506 61.86 143.802 61.684 143.178 61.332C142.57 60.98 142.058 60.516 141.642 59.94C141.226 59.348 140.906 58.676 140.682 57.924C140.458 57.156 140.346 56.356 140.346 55.524C140.346 54.628 140.474 53.78 140.73 52.98C140.986 52.164 141.354 51.452 141.834 50.844C142.314 50.236 142.89 49.756 143.562 49.404C144.234 49.052 144.994 48.876 145.842 48.876C146.53 48.876 147.154 48.988 147.714 49.212C148.29 49.436 148.81 49.756 149.274 50.172L149.49 49.26L152.274 48.972V61.164ZM148.89 52.092C148.522 51.916 148.138 51.78 147.738 51.684C147.354 51.588 146.994 51.54 146.658 51.54C145.682 51.54 144.954 51.908 144.474 52.644C143.994 53.38 143.754 54.324 143.754 55.476C143.754 56.708 143.994 57.636 144.474 58.26C144.97 58.884 145.626 59.196 146.442 59.196C146.826 59.196 147.234 59.132 147.666 59.004C148.098 58.876 148.506 58.724 148.89 58.548V52.092Z" fill="#767676"/>
<g filter="url(#filter1_d_619_594)">
<rect x="108.238" y="85.9307" width="150.002" height="130.1" rx="10" fill="white"/>
</g>
<defs>
<filter id="filter0_d_619_594" x="0" y="0.835419" width="366.479" height="303.291" filterUnits="userSpaceOnUse" color-interpolation-filters="sRGB">
<feFlood flood-opacity="0" result="BackgroundImageFix"/>
<feColorMatrix in="SourceAlpha" type="matrix" values="0 0 0 0 0 0 0 0 0 0 0 0 0 0 0 0 0 0 127 0" result="hardAlpha"/>
<feMorphology radius="4" operator="dilate" in="SourceAlpha" result="effect1_dropShadow_619_594"/>
<feOffset/>
<feGaussianBlur stdDeviation="5"/>
<feComposite in2="hardAlpha" operator="out"/>
<feColorMatrix type="matrix" values="0 0 0 0 0 0 0 0 0 0 0 0 0 0 0 0 0 0 0.06 0"/>
<feBlend mode="normal" in2="BackgroundImageFix" result="effect1_dropShadow_619_594"/>
<feBlend mode="normal" in="SourceGraphic" in2="effect1_dropShadow_619_594" result="shape"/>
</filter>
<filter id="filter1_d_619_594" x="102.238" y="79.9307" width="162.002" height="142.1" filterUnits="userSpaceOnUse" color-interpolation-filters="sRGB">
<feFlood flood-opacity="0" result="BackgroundImageFix"/>
<feColorMatrix in="SourceAlpha" type="matrix" values="0 0 0 0 0 0 0 0 0 0 0 0 0 0 0 0 0 0 127 0" result="hardAlpha"/>
<feMorphology radius="2" operator="dilate" in="SourceAlpha" result="effect1_dropShadow_619_594"/>
<feOffset/>
<feGaussianBlur stdDeviation="2"/>
<feComposite in2="hardAlpha" operator="out"/>
<feColorMatrix type="matrix" values="0 0 0 0 0 0 0 0 0 0 0 0 0 0 0 0 0 0 0.11 0"/>
<feBlend mode="normal" in2="BackgroundImageFix" result="effect1_dropShadow_619_594"/>
<feBlend mode="normal" in="SourceGraphic" in2="effect1_dropShadow_619_594" result="shape"/>
</filter>
</defs>
</svg>
