<svg width="536" height="371" viewBox="0 0 536 371" fill="none" xmlns="http://www.w3.org/2000/svg">
<g clip-path="url(#clip0_222_827)">
<path d="M364.416 303.361C430.345 437.883 585.919 355.319 573.824 198.258C568.844 133.014 551.057 85.0887 594.22 28.86C604.892 14.8621 614.378 -0.0847778 624.339 -14.5572C642.837 -41.3666 642.837 -90.4778 614.378 -125.828C573.113 -177.312 520.939 -219.543 467.104 -257.503C396.432 -307.089 313.665 -321.799 266.471 -246.115C239.198 -202.461 234.929 -157.62 183.941 -143.622C154.059 -135.318 133.664 -129.15 113.031 -102.578C76.0348 -55.3645 78.6435 -72.9212 46.8647 -54.6528C-29.7366 -11.2356 -5.30955 94.3416 72.2403 138.708C123.94 168.364 178.723 156.264 209.791 155.315C321.728 151.519 310.819 194.225 364.416 303.361Z" fill="url(#paint0_linear_222_827)" fill-opacity="0.16"/>
</g>
<defs>
<linearGradient id="paint0_linear_222_827" x1="0.145028" y1="35.941" x2="637.189" y2="35.941" gradientUnits="userSpaceOnUse">
<stop stop-color="#00B962"/>
<stop offset="1" stop-color="#74FFBE"/>
</linearGradient>
<clipPath id="clip0_222_827">
<rect width="637" height="670" fill="white" transform="translate(0.144531 -299.022)"/>
</clipPath>
</defs>
</svg>
