<svg width="343" height="480" viewBox="0 0 343 480" fill="none" xmlns="http://www.w3.org/2000/svg">
<path d="M73.8984 383.319C51.323 531.417 -121.846 499.282 -157.385 345.818C-172.191 282.081 -169.587 231.028 -227.619 190.322C-241.996 180.167 -255.527 168.751 -269.367 157.929C-295.051 137.897 -309.772 91.0444 -293.218 48.789C-269.282 -12.6965 -232.165 -68.6246 -192.185 -120.976C-139.625 -189.466 -65.0728 -228.308 2.63695 -170.251C41.741 -136.779 59.2544 -95.2792 112.094 -97.2085C143.091 -98.2434 164.397 -98.4719 192.046 -79.306C241.493 -45.3532 233.742 -61.3207 269.535 -53.4178C355.629 -34.9579 363.971 73.0866 303.286 138.658C262.852 182.448 206.961 187.325 177.038 195.732C69.1098 225.663 92.3181 263.135 73.8984 383.319Z" fill="url(#paint0_linear_619_1758)" fill-opacity="0.16"/>
<defs>
<linearGradient id="paint0_linear_619_1758" x1="341.262" y1="19.0063" x2="-266.49" y2="209.957" gradientUnits="userSpaceOnUse">
<stop stop-color="#00B962"/>
<stop offset="1" stop-color="#74FFBE"/>
</linearGradient>
</defs>
</svg>
