<svg width="91" height="92" viewBox="0 0 91 92" fill="none" xmlns="http://www.w3.org/2000/svg">
<g filter="url(#filter0_d_262_3)">
<circle cx="45.5328" cy="42.3834" r="41.4196" fill="white"/>
<circle cx="45.5328" cy="42.3834" r="40.4196" stroke="#21CE99" stroke-width="2"/>
</g>
<g clip-path="url(#clip0_262_3)">
<path d="M27.8164 26.5168H23.3164V62.5168H63.8164V58.0168H27.8164V26.5168Z" fill="#21CE99"/>
<path d="M45.8164 44.5168L39.0664 40.0168L30.0664 49.0168V55.7668H61.5664V31.0168L45.8164 44.5168Z" fill="#21CE99"/>
<path d="M58.5664 56.6334C59.561 56.6334 60.5148 56.2383 61.2181 55.5351C61.9213 54.8318 62.3164 53.878 62.3164 52.8834C62.3164 51.8889 61.9213 50.935 61.2181 50.2318C60.5148 49.5285 59.561 49.1334 58.5664 49.1334C57.5718 49.1334 56.618 49.5285 55.9148 50.2318C55.2115 50.935 54.8164 51.8889 54.8164 52.8834C54.8164 53.878 55.2115 54.8318 55.9148 55.5351C56.618 56.2383 57.5718 56.6334 58.5664 56.6334Z" fill="#263238"/>
<path fill-rule="evenodd" clip-rule="evenodd" d="M58.5664 41.6334C58.8979 41.6334 59.2159 41.7651 59.4503 41.9995C59.6847 42.234 59.8164 42.5519 59.8164 42.8834V44.2209C61.6863 44.4912 63.4187 45.3592 64.7547 46.6952C66.0907 48.0311 66.9586 49.7635 67.2289 51.6334H68.5664C68.8979 51.6334 69.2159 51.7651 69.4503 51.9995C69.6847 52.234 69.8164 52.5519 69.8164 52.8834C69.8164 53.2149 69.6847 53.5329 69.4503 53.7673C69.2159 54.0017 68.8979 54.1334 68.5664 54.1334H67.2289C66.9586 56.0034 66.0907 57.7357 64.7547 59.0717C63.4187 60.4077 61.6863 61.2756 59.8164 61.5459V62.8834C59.8164 63.2149 59.6847 63.5329 59.4503 63.7673C59.2159 64.0017 58.8979 64.1334 58.5664 64.1334C58.2349 64.1334 57.9169 64.0017 57.6825 63.7673C57.4481 63.5329 57.3164 63.2149 57.3164 62.8834V61.5459C55.4465 61.2756 53.7141 60.4077 52.3781 59.0717C51.0421 57.7357 50.1742 56.0034 49.9039 54.1334H48.5664C48.2349 54.1334 47.9169 54.0017 47.6825 53.7673C47.4481 53.5329 47.3164 53.2149 47.3164 52.8834C47.3164 52.5519 47.4481 52.234 47.6825 51.9995C47.9169 51.7651 48.2349 51.6334 48.5664 51.6334H49.9039C50.1744 49.7636 51.0424 48.0313 52.3784 46.6954C53.7143 45.3594 55.4465 44.4914 57.3164 44.2209V42.8834C57.3164 42.5519 57.4481 42.234 57.6825 41.9995C57.9169 41.7651 58.2349 41.6334 58.5664 41.6334ZM52.3164 52.8834C52.3164 51.2258 52.9749 49.6361 54.147 48.464C55.3191 47.2919 56.9088 46.6334 58.5664 46.6334C60.224 46.6334 61.8137 47.2919 62.9858 48.464C64.1579 49.6361 64.8164 51.2258 64.8164 52.8834C64.8164 54.541 64.1579 56.1307 62.9858 57.3028C61.8137 58.4749 60.224 59.1334 58.5664 59.1334C56.9088 59.1334 55.3191 58.4749 54.147 57.3028C52.9749 56.1307 52.3164 54.541 52.3164 52.8834Z" fill="#263238"/>
</g>
<defs>
<filter id="filter0_d_262_3" x="0.113281" y="0.963867" width="90.8391" height="90.8391" filterUnits="userSpaceOnUse" color-interpolation-filters="sRGB">
<feFlood flood-opacity="0" result="BackgroundImageFix"/>
<feColorMatrix in="SourceAlpha" type="matrix" values="0 0 0 0 0 0 0 0 0 0 0 0 0 0 0 0 0 0 127 0" result="hardAlpha"/>
<feOffset dy="4"/>
<feGaussianBlur stdDeviation="2"/>
<feComposite in2="hardAlpha" operator="out"/>
<feColorMatrix type="matrix" values="0 0 0 0 0 0 0 0 0 0 0 0 0 0 0 0 0 0 0.25 0"/>
<feBlend mode="normal" in2="BackgroundImageFix" result="effect1_dropShadow_262_3"/>
<feBlend mode="normal" in="SourceGraphic" in2="effect1_dropShadow_262_3" result="shape"/>
</filter>
<clipPath id="clip0_262_3">
<rect width="49" height="45" fill="white" transform="translate(21.0332 19.8834)"/>
</clipPath>
</defs>
</svg>
