<svg width="31" height="31" viewBox="0 0 31 31" fill="none" xmlns="http://www.w3.org/2000/svg">
<path d="M19.2012 14.1738L13.9012 8.87384C13.785 8.75668 13.6467 8.66369 13.4944 8.60023C13.3421 8.53677 13.1787 8.50409 13.0137 8.50409C12.8487 8.50409 12.6853 8.53677 12.533 8.60023C12.3806 8.66369 12.2424 8.75668 12.1262 8.87384C11.8934 9.10804 11.7627 9.42486 11.7627 9.75509C11.7627 10.0853 11.8934 10.4021 12.1262 10.6363L16.5512 15.0613L12.1262 19.4863C11.8934 19.7205 11.7627 20.0374 11.7627 20.3676C11.7627 20.6978 11.8934 21.0146 12.1262 21.2488C12.243 21.3647 12.3815 21.4563 12.5338 21.5186C12.6861 21.5808 12.8492 21.6123 13.0137 21.6113C13.1782 21.6123 13.3413 21.5808 13.4936 21.5186C13.6459 21.4563 13.7844 21.3647 13.9012 21.2488L19.2012 15.9488C19.3183 15.8326 19.4113 15.6944 19.4748 15.5421C19.5383 15.3897 19.5709 15.2264 19.5709 15.0613C19.5709 14.8963 19.5383 14.7329 19.4748 14.5806C19.4113 14.4283 19.3183 14.29 19.2012 14.1738Z" fill="#1DBF73"/>
<rect x="1.16406" y="0.56134" width="29" height="29" rx="14.5" stroke="#1DBF73"/>
</svg>
