<svg width="31" height="31" viewBox="0 0 31 31" fill="none" xmlns="http://www.w3.org/2000/svg">
<path d="M12.1269 14.1738L17.4269 8.87384C17.5431 8.75668 17.6814 8.66369 17.8337 8.60023C17.986 8.53677 18.1494 8.50409 18.3144 8.50409C18.4795 8.50409 18.6428 8.53677 18.7952 8.60023C18.9475 8.66369 19.0857 8.75668 19.2019 8.87384C19.4348 9.10804 19.5654 9.42486 19.5654 9.75509C19.5654 10.0853 19.4348 10.4021 19.2019 10.6363L14.7769 15.0613L19.2019 19.4863C19.4348 19.7205 19.5654 20.0374 19.5654 20.3676C19.5654 20.6978 19.4348 21.0146 19.2019 21.2488C19.0851 21.3647 18.9466 21.4563 18.7943 21.5186C18.642 21.5808 18.4789 21.6123 18.3144 21.6113C18.1499 21.6123 17.9869 21.5808 17.8346 21.5186C17.6823 21.4563 17.5437 21.3647 17.4269 21.2488L12.1269 15.9488C12.0098 15.8326 11.9168 15.6944 11.8533 15.5421C11.7899 15.3897 11.7572 15.2264 11.7572 15.0613C11.7572 14.8963 11.7899 14.7329 11.8533 14.5806C11.9168 14.4283 12.0098 14.29 12.1269 14.1738Z" fill="#1DBF73"/>
<rect x="-0.5" y="0.5" width="29" height="29" rx="14.5" transform="matrix(-1 0 0 1 29.6641 0.0613403)" stroke="#1DBF73"/>
</svg>
